<svg class="logo" xmlns="http://www.w3.org/2000/svg" viewBox="0 0 772 213"><path d="M5.8 97h3.8v4.2h7.7v4.2h15.3v-4.2h7.7V97h3.8v-8.4H48V59.3h-3.8v-8.4h-3.8v-4.2h-7.7v-4.2H17.3v4.2H9.6v4.2H5.8v8.4H2v29.3h3.8V97zm34.5-33.5h3.8v21h-3.8v-21zm-26.8-4.2h3.8v-4.2h15.3v4.2h3.8v29.3h-3.8v4.2H17.3v-4.2h-3.8V59.3zM100.8 101.2h3.8v4.2h19.2v-4.2h3.8V97h3.9v8.4H143V42.5h-11.5v41.9h-3.9v4.2h-3.8v4.2h-11.5v-4.2h-3.8V42.5H97V97h3.8zM233.6 46.7h-3.8v-4.2h-15.3v4.2h-3.8v4.2h-3.8v-8.4h-11.5v62.9h11.5V63.5h3.8v-4.2h3.8v-4.2H226v4.2h3.8v4.2h3.8v-4.2h3.8v-8.4h-3.8v-4.2zm-7.7 4.2h-7.7v-4.2h7.7v4.2zM45 158.7h-3.8v-4.2h-7.7v-4.2H22v4.2h-3.8v4.2h-3.8v-8.4H2.8v62.9h11.5v-41.9h3.8v-4.2H22v-4.2h11.5v4.2h3.8v46.1h11.5v-46.1H45v-8.4zm-15.4 0h-3.8v-4.2h3.8v4.2zM45 209h-3.8v-37.7H45V209zM139.7 158.7h-3.8v-4.2h-7.7v-4.2h-15.3v4.2h-7.7v4.2h-3.8v8.4h-3.8v29.3h3.8v8.4h3.8v4.2h7.7v4.2h15.3V209h7.7v-4.2h3.8v-4.2h3.8v-8.4H132v4.2h-3.8v4.2h-15.3v-4.2H109v-12.6h34.5V167h-3.8v-8.3zm-7.7 16.8h-23v-8.4h3.8v-4.2h15.3v4.2h3.8v8.4zM217.8 129.4h-11.5v20.9h-7.6v12.6h7.6v50.3h11.5v-50.3h15.4v-12.6h-15.4zM335.4 162.9h-3.8v12.6h-3.8v12.6H324v12.6h-3.8v-12.6h-3.8v-12.6h-3.8v-8.4h-3.8v8.4H305v12.6h-3.8v12.6h-3.8v-12.6h-3.8v-12.6h-3.8v-12.6H286v-12.6h-11.5v12.6h3.8v12.6h3.8v16.8h3.8v12.6h3.8v8.4H305v-8.4h3.8v-12.6h3.8v12.6h3.8v8.4h15.3v-8.4h3.8v-12.6h3.8v-16.8h3.8v-12.6h3.8v-12.6h-11.5v12.6zm-57.5-4.2v-4.2h3.8v4.2h-3.8zm3.8 12.6v-4.2h3.8v4.2h-3.8zm3.9 16.8v-8.4h3.8v8.4h-3.8zm7.7 12.5h-3.8v-8.4h3.8v8.4zM424.7 158.7h-3.8v-4.2h-7.7v-4.2h-15.3v4.2h-7.7v4.2h-3.8v8.4h-3.8v29.3h3.8v8.4h3.8v4.2h7.7v4.2h15.3V209h7.7v-4.2h3.8v-8.4h3.8v-29.3h-3.8v-8.4zm-23-4.2h7.7v4.2h-7.7v-4.2zm15.4 41.9h-3.8v4.2H398v-4.2h-3.8v-29.3h3.8v-4.2h15.3v4.2h3.8v29.3zM519.2 154.5h-3.8v-4.2H500v4.2h-3.8v4.2h-3.8v-8.4h-11.5v62.9h11.5v-41.9h3.8v-4.2h3.8v-4.2h11.5v4.2h3.9v4.2h3.8v-4.2h3.8v-8.4h-3.8zM706.1 183.9h-3.8v-4.2h-3.8v-4.2h-7.7v-4.2H687v-4.2h-3.9v-4.2h3.9v-4.2h7.6v4.2h3.9v4.2h7.6v-12.6h-3.8v-4.2h-23v4.2h-3.8v4.2h-3.9v12.6h3.9v4.2h3.8v4.2h3.8v4.2h7.7v4.2h3.8v4.2h3.9v8.3h-3.9v4.2H687v-4.2h-3.9v-4.2h-3.8v-4.1h-3.8v4.1h-3.9v8.4h3.9v4.2h3.8v4.2h23V209h3.8v-4.2h3.9v-16.7h-3.9zM605.6 154.5h-3.8v4.2H598v4.2h-3.8v4.2h-3.8v4.2h-3.8v4.2h-3.8v-46.1h-11.5v83.8h11.5V188h3.8v4.2h3.8v4.2h3.8v4.2h3.8v4.2h3.8v4.2h3.8v4.2H621V209h-3.8v-4.2h-3.8v-4.2h-3.8v-4.2h-3.8v-4.2H602V188h-4v-4.2h-3.8v-4.2h3.8v-4.2h3.8v-4.2h3.8V167h3.8v-4.2h3.8v-4.2h3.8v-4.2h3.8v-4.2h-15.3v4.3zm-15.3 29.4h-7.7v-4.2h7.7v4.2zM667.6 76.2h5.5v-11h5.5V54.3h5.5v-11h5.4V32.4h5.5v-11h5.5V10.5h5.4V.3h-33v10.2h-5.4v10.9H662v11h-5.5v10.9h-5.4v11h-5.5v10.9h-5.5v11h-5.5v10.9h-5.4V98h-5.5v11h-5.5v10.9h33V109h5.5V98h5.5V87.1h5.4zM305.4 93h8.3v8.3h-8.3zM601.8 119.9V109h5.5V98h5.5V87.1h5.4V76.2h5.5v-11h5.5V54.3h5.4v-11h5.5V32.4h5.5v-11h5.5V10.5h5.4V.3h-33v10.2h-5.4v10.9h-5.5v11h-5.5v10.9h-5.5v11h-5.4v10.9h-5.5v11h-5.5v10.9h-5.5V98h-5.4v11h-5.5v10.9h27.5zM717.1 76.2h5.4v-11h5.5V54.3h5.5v-11h5.4V32.4h5.5v-11h5.5V10.5h5.5V.3h-33v10.2h-5.5v10.9h-5.5v11h-5.5v10.9h-5.4v11H695v10.9h-5.5v11h-5.4v10.9h-5.5V98h-5.5v11h-5.5v10.9h33V109h5.5V98h5.5V87.1h5.5zM766.3 10.5v10.9h-5.5v11h-5.4v10.9h-5.5v11h-5.5v10.9h-5.5v11h-5.4v10.9H728V98h-5.5v11h-5.4v10.9h54.7V10.5zM305.4 47h8.3v8.3h-8.3zM568.8 76.2h5.5v-11h5.4V54.3h5.5v-11h5.5V32.4h5.5v-11h5.4V10.5h5.5V.3h-33v10.2h-5.5v10.9h-5.4v11h-5.5v10.9h-5.5v11h-5.5v10.9h-5.4v11h-5.5v10.9h-5.5V98h-5.4v11h-5.5v10.9h33V109h5.5V98h5.4V87.1h5.5zM470 76.2h5.4v-11h5.5V54.3h5.5v-11h5.5V32.4h5.4v-11h5.5V10.5h5.5V.3h-33v10.2h-5.5v10.9h-5.5v11h-5.5v10.9h-5.4v11h-5.5v10.9h-5.5v11H437v10.9h-5.5V98H426v11h-5.5v10.9h33V109h5.5V98h5.5V87.1h5.5zM404.1 119.9V109h5.5V98h5.5V87.1h5.4V76.2h5.5v-11h5.5V54.3h5.5v-11h5.4V32.4h5.5v-11h5.5V10.5h5.4V.3h-33v10.2h-5.4v10.9h-5.5v11h-5.5v10.9H404v11h-5.5v10.9H393v11h-5.5v10.9h-5.4V98h-5.5v11h-5.5v10.9h27.6z"/><path d="M371.1 76.2h5.5v-11h5.5V54.3h5.5v-11h5.5V32.4h5.5v-11h5.5V10.5h5.5V.3H274.1V120h80.7v-11h5.5V98h5.5V87.1h5.5V76.2zM319 106.6h-19v-19h19v19zm0-46h-19v-19h19v19zM503 119.9V109h5.4V98h5.5V87.1h5.5V76.2h5.5v-11h5.4V54.3h5.5v-11h5.5V32.4h5.4v-11h5.5V10.5h5.5V.3h-33v10.2h-5.5v10.9h-5.5v11h-5.4v10.9h-5.5v11h-5.5v10.9h-5.4v11h-5.5v10.9h-5.5V98h-5.5v11H470v10.9h27.5z"/></svg>