<svg width="156" height="45" class="logo" viewBox="0 0 156 45" xmlns="http://www.w3.org/2000/svg" xmlns:xlink="http://www.w3.org/1999/xlink"><defs><path id="a" d="M0 0H155.82v44.394H0z"/></defs><g transform="translate(0 .492)" fill="none" fill-rule="evenodd"><mask id="b" fill="#fff"><use xlink:href="#a"/></mask><path d="M129.448 37.708c0 .121-.1.22-.22.22h-1.25c-.12 0-.22-.099-.22-.22v-.483c0-.121.1-.22.22-.22h1.25a.22.22 0 0 1 .22.22v.483zm1.47-.703c.12 0 .22-.1.22-.22V36.3c0-.121.099-.22.22-.22h.404c.122 0 .22-.1.22-.22v-.483c0-.122.1-.22.221-.22h.404c.121 0 .22-.1.22-.22v-.484c0-.121.1-.22.22-.22h.405c.121 0 .22-.1.22-.22v-.484c0-.121.1-.22.22-.22h.405c.121 0 .22-.1.22-.22v-.483c0-.121.1-.22.22-.22h.405c.121 0 .22-.1.22-.22v-.484c0-.121.1-.22.22-.22h.405c.12 0 .22-.1.22-.22v-.484a.22.22 0 0 0-.22-.22h-2.94a.22.22 0 0 0-.22.22v.483c0 .122-.099.22-.22.22h-.404a.22.22 0 0 0-.22.221v.483c0 .121-.1.22-.22.22h-.405a.22.22 0 0 0-.22.221v.483c0 .12-.1.22-.22.22h-.405a.22.22 0 0 0-.22.22v.483c0 .121-.1.22-.22.22h-.405c-.12 0-.22.1-.22.22v.484c0 .121-.1.22-.22.22h-.404a.22.22 0 0 0-.22.22v.484c0 .12-.1.22-.221.22h-.404c-.122 0-.22-.1-.22-.22v-9.72a.22.22 0 0 0-.221-.22h-2.094a.22.22 0 0 0-.22.22v18.032c0 .122.099.22.22.22h2.094c.121 0 .22-.098.22-.22v-5.1c0-.122.1-.221.22-.221h.405c.121 0 .22.099.22.22v.483c0 .122.1.22.22.22h.405a.22.22 0 0 1 .22.221v.483c0 .121.1.22.22.22h.405a.22.22 0 0 1 .22.22v.483c0 .121.1.22.22.22h.404a.22.22 0 0 1 .22.221v.483c0 .121.1.22.221.22h.404a.22.22 0 0 1 .22.22v.484c0 .121.1.22.221.22h.404c.121 0 .22.1.22.22v.483c0 .122.1.22.22.22h2.94c.12 0 .22-.098.22-.22v-.483c0-.12-.1-.22-.22-.22h-.404c-.122 0-.22-.099-.22-.22v-.483a.22.22 0 0 0-.221-.22h-.404c-.122 0-.22-.1-.22-.22v-.484a.22.22 0 0 0-.221-.22h-.404c-.121 0-.22-.1-.22-.22v-.483a.22.22 0 0 0-.22-.22h-.405c-.121 0-.22-.1-.22-.221v-.483a.22.22 0 0 0-.22-.22h-.405c-.121 0-.22-.1-.22-.22v-.484c0-.121-.1-.22-.22-.22h-.405c-.121 0-.22-.1-.22-.22v-.483a.22.22 0 0 0-.22-.22h-.405c-.12 0-.22-.1-.22-.221v-.483c0-.121.1-.22.22-.22h.404zm18.362 7.389c-.121 0-.22-.1-.22-.22v-.484c0-.12-.1-.22-.22-.22h-.405c-.12 0-.22-.099-.22-.22v-.483a.22.22 0 0 0-.22-.22h-.405c-.12 0-.22-.1-.22-.22V40.92c0-.122.1-.22.22-.22h.405c.121 0 .22-.1.22-.221v-.483c0-.121.1-.22.22-.22h.405a.22.22 0 0 1 .22.22v.483c0 .121.099.22.22.22h.405a.22.22 0 0 1 .22.22v.483c0 .121.099.22.22.22h.404a.22.22 0 0 1 .22.221v.483c0 .121.1.22.221.22h1.25c.12 0 .22-.099.22-.22v-.483c0-.121.099-.22.22-.22h.404c.121 0 .22-.1.22-.22v-1.407c0-.121-.099-.22-.22-.22h-.404c-.121 0-.22-.1-.22-.22v-.484c0-.121-.1-.22-.22-.22h-.405c-.121 0-.22-.1-.22-.22v-.483a.22.22 0 0 0-.22-.22h-1.25c-.121 0-.22-.1-.22-.221v-.483a.22.22 0 0 0-.22-.22h-.405c-.121 0-.22-.1-.22-.22V36.3a.22.22 0 0 0-.22-.22h-.405c-.12 0-.22-.1-.22-.22v-.483a.22.22 0 0 0-.22-.22h-.405c-.12 0-.22-.1-.22-.22v-2.331c0-.121.1-.22.22-.22h.405c.121 0 .22-.1.22-.22v-.484c0-.121.1-.22.22-.22h.405c.12 0 .22-.1.22-.22v-.484c0-.121.099-.22.22-.22h4.629c.12 0 .22.099.22.22v.483c0 .122.1.22.22.22h.405c.12 0 .22.1.22.221v2.33c0 .121-.1.22-.22.22h-1.25c-.12 0-.22-.099-.22-.22v-.483c0-.121-.099-.22-.22-.22h-.404c-.121 0-.22-.1-.22-.22v-.483a.22.22 0 0 0-.22-.22h-1.25a.22.22 0 0 0-.22.22v.483c0 .12-.1.22-.22.22h-.405a.22.22 0 0 0-.22.22v.483c0 .121.099.22.22.22h.404c.122 0 .22.1.22.22v.484c0 .121.1.22.221.22h.404a.22.22 0 0 1 .22.22v.484c0 .12.1.22.221.22h1.25c.12 0 .22.099.22.22v.483c0 .121.099.22.22.22h.404c.12 0 .22.1.22.221v.483c0 .121.1.22.22.22h.405c.12 0 .22.1.22.22v.484c0 .12.1.22.22.22h.405c.12 0 .22.099.22.22v3.254c0 .121-.1.22-.22.22h-.404a.22.22 0 0 0-.22.22v.484c0 .121-.1.22-.221.22h-.404c-.122 0-.22.1-.22.22v.483c0 .122-.1.22-.221.22h-4.629zm-43.725 0c-.121 0-.22-.1-.22-.22V30.758c0-.121.099-.22.22-.22h2.094a.22.22 0 0 1 .22.22v1.407c0 .121.1.22.22.22h.405c.12 0 .22-.099.22-.22v-.483c0-.121.1-.22.22-.22h.404c.121 0 .22-.1.22-.22v-.484c0-.121.1-.22.221-.22h2.939a.22.22 0 0 1 .22.22v.483c0 .122.1.22.22.22h.405a.22.22 0 0 1 .22.221v.483c0 .121.1.22.22.22h.405a.22.22 0 0 1 .22.221v1.406c0 .121-.1.22-.22.22h-.404c-.122 0-.22.1-.22.22v.484c0 .121-.1.22-.221.22h-.404c-.122 0-.22-.099-.22-.22v-.483c0-.121-.1-.22-.221-.22h-.404c-.121 0-.22-.1-.22-.22v-.484a.22.22 0 0 0-.22-.22h-2.095a.221.221 0 0 0-.22.22v.483c0 .121-.1.22-.22.22h-.405c-.12 0-.22.1-.22.22v.484c0 .121-.1.22-.22.22h-.405a.221.221 0 0 0-.22.22v8.796c0 .122-.1.22-.22.22h-2.094zM89.37 32.387c.121 0 .22-.1.22-.22v-.484a.22.22 0 0 0-.22-.22h-1.25a.221.221 0 0 0-.22.22v.483c0 .121.1.22.22.22h1.25zm.845 9.236c.12 0 .22-.1.22-.22v-.483c0-.122.1-.22.22-.22h.404c.122 0 .22-.1.22-.221v-6.025c0-.121-.098-.22-.22-.22h-.404c-.12 0-.22-.1-.22-.22v-.484a.22.22 0 0 0-.22-.22h-2.94a.221.221 0 0 0-.22.22v.483c0 .121-.099.22-.22.22h-.404c-.121 0-.22.1-.22.22v6.026c0 .121.099.22.22.22h.404a.22.22 0 0 1 .22.22v.483c0 .121.1.22.22.22h2.94zm-2.94 2.77c-.12 0-.22-.098-.22-.22v-.483c0-.12-.099-.22-.22-.22h-1.249c-.121 0-.22-.099-.22-.22v-.483c0-.122-.1-.22-.22-.22h-.405c-.121 0-.22-.1-.22-.22V40.92c0-.122-.1-.22-.22-.22h-.405c-.12 0-.22-.1-.22-.221v-6.025c0-.121.1-.22.22-.22h.405c.12 0 .22-.1.22-.22v-1.407c0-.121.099-.22.22-.22h.405c.12 0 .22-.1.22-.22v-.484c0-.121.099-.22.22-.22h1.25c.12 0 .22-.1.22-.22v-.484c0-.121.099-.22.22-.22h2.939a.22.22 0 0 1 .22.22v.483c0 .122.1.22.22.22h1.25a.22.22 0 0 1 .22.221v.483c0 .121.1.22.22.22h.404a.22.22 0 0 1 .22.221v1.406c0 .121.1.22.221.22h.404c.121 0 .22.1.22.22v6.026c0 .121-.099.22-.22.22h-.404a.22.22 0 0 0-.22.22v1.407c0 .121-.1.22-.22.22h-.405a.221.221 0 0 0-.22.22v.484c0 .121-.1.22-.22.22h-1.25c-.12 0-.22.1-.22.22v.483c0 .122-.1.22-.22.22h-2.94zm-23.277-4.397a.22.22 0 0 0-.22-.22h-.405a.22.22 0 0 0-.22.22v1.406c0 .121.099.22.22.22h.404c.122 0 .22-.099.22-.22v-1.406zm-.845-2.77a.22.22 0 0 0-.22-.221h-.405a.22.22 0 0 0-.22.22v1.407c0 .12.099.22.22.22h.404c.122 0 .22-.1.22-.22v-1.407zm-.845-2.772c0-.121-.1-.22-.22-.22h-.405c-.12 0-.22.099-.22.22v.483c0 .121.1.22.22.22h.404c.122 0 .22-.099.22-.22v-.483zm-.845-2.77a.22.22 0 0 0-.22-.221h-.404a.22.22 0 0 0-.22.22v.483c0 .121.098.22.22.22h.404c.12 0 .22-.099.22-.22v-.483zm7.384 4.397a.22.22 0 0 1 .22.22v2.33c0 .122.1.22.22.22h.405c.12 0 .22.1.22.221v2.33c0 .121.1.22.22.22h.405c.12 0 .22-.099.22-.22v-2.33c0-.121.1-.22.22-.22h.404c.122 0 .22-.1.22-.22v-2.33c0-.122.1-.22.221-.22h.404c.121 0 .22-.1.22-.221v-2.33c0-.122.1-.22.22-.22h.405c.121 0 .22-.1.22-.221v-2.33c0-.122.1-.22.22-.22h2.095c.12 0 .22.098.22.22v2.33c0 .12-.1.22-.22.22h-.404a.22.22 0 0 0-.22.22v2.33c0 .122-.1.221-.221.221h-.404a.22.22 0 0 0-.22.22v3.254c0 .122-.1.22-.22.22h-.405a.22.22 0 0 0-.22.221v2.33c0 .121-.1.22-.22.22h-.405a.22.22 0 0 0-.22.22v1.407c0 .122-.1.22-.22.22h-2.94c-.12 0-.22-.098-.22-.22v-1.406a.22.22 0 0 0-.22-.22h-.405c-.12 0-.22-.1-.22-.22v-2.33a.22.22 0 0 0-.22-.221h-.404a.22.22 0 0 0-.22.22v2.33c0 .121-.1.22-.221.22h-.404a.22.22 0 0 0-.22.22v1.407c0 .122-.1.22-.221.22h-2.939c-.121 0-.22-.098-.22-.22v-1.406a.22.22 0 0 0-.22-.22h-.405c-.121 0-.22-.1-.22-.22v-2.33a.22.22 0 0 0-.22-.221h-.405c-.12 0-.22-.1-.22-.22V36.3a.22.22 0 0 0-.22-.22h-.404c-.122 0-.22-.1-.22-.22v-2.33a.22.22 0 0 0-.221-.22h-.404c-.122 0-.22-.1-.22-.221v-2.33c0-.122.098-.22.22-.22h2.093a.22.22 0 0 1 .22.22v2.33c0 .12.1.22.221.22h.404a.22.22 0 0 1 .22.22v2.33c0 .122.1.221.221.221h.404a.22.22 0 0 1 .22.22v2.33c0 .122.1.22.221.22h.404c.121 0 .22.1.22.221v2.33c0 .121.1.22.22.22h.405c.121 0 .22-.099.22-.22v-2.33c0-.121.1-.22.22-.22h.405c.121 0 .22-.1.22-.22v-2.33c0-.122.1-.22.22-.22h.405c.121 0 .22-.1.22-.221v-1.407c0-.121.1-.22.22-.22h.405c.121 0 .22.099.22.22v1.407c0 .12.1.22.22.22h.405zm-23.779 8.313c-.121 0-.22-.1-.22-.22V33.53a.22.22 0 0 0-.22-.22h-1.25c-.12 0-.22-.1-.22-.22v-2.33c0-.122.1-.22.22-.22h1.25c.12 0 .22-.1.22-.221V26.14c0-.121.099-.22.22-.22h2.094a.22.22 0 0 1 .22.22v4.178c0 .121.1.22.22.22h2.94a.22.22 0 0 1 .22.22v2.33c0 .122-.1.221-.22.221h-2.94a.22.22 0 0 0-.22.22v10.643c0 .122-.099.22-.22.22h-2.094zM28.25 36.08c.121 0 .22-.1.22-.22v-1.407c0-.121-.099-.22-.22-.22h-.405c-.12 0-.22-.1-.22-.22v-.484a.22.22 0 0 0-.22-.22h-2.94a.22.22 0 0 0-.22.22v.483c0 .121-.099.22-.22.22h-.404c-.121 0-.22.1-.22.22v1.408c0 .12.099.22.22.22h4.629zm-3.784 8.313c-.121 0-.22-.1-.22-.22v-.484c0-.12-.1-.22-.22-.22h-1.25c-.121 0-.22-.099-.22-.22v-.483a.22.22 0 0 0-.22-.22h-.405c-.12 0-.22-.1-.22-.22V40.92a.22.22 0 0 0-.22-.22h-.405c-.12 0-.22-.1-.22-.221v-6.025c0-.121.1-.22.22-.22h.405c.12 0 .22-.1.22-.22v-1.407c0-.121.1-.22.22-.22h.404c.122 0 .22-.1.22-.22v-.484c0-.121.1-.22.221-.22h1.25c.12 0 .22-.1.22-.22v-.484c0-.121.099-.22.22-.22h2.939a.22.22 0 0 1 .22.22v.483c0 .122.1.22.22.22h1.25a.22.22 0 0 1 .22.221v.483c0 .121.1.22.22.22h.405a.22.22 0 0 1 .22.221v1.406c0 .121.1.22.22.22h.404c.122 0 .22.1.22.22v3.255c0 .121-.098.22-.22.22h-7.163a.22.22 0 0 0-.22.22v2.33c0 .122.099.221.22.221h.404a.22.22 0 0 1 .22.22v.483c0 .121.1.22.22.22h2.94c.121 0 .22-.099.22-.22v-.482c0-.122.1-.22.22-.22h.405c.121 0 .22-.1.22-.221v-.483c0-.121.1-.22.22-.22h2.094a.22.22 0 0 1 .22.22v1.406c0 .121-.098.22-.22.22h-.404a.22.22 0 0 0-.22.221v.483c0 .121-.1.22-.22.22h-.405a.22.22 0 0 0-.22.22v.484c0 .121-.1.22-.22.22h-1.25c-.12 0-.22.1-.22.22v.483c0 .122-.099.22-.22.22h-2.94zM9.073 43.47c.121 0 .22-.099.22-.22v-7.872c0-.122-.099-.22-.22-.22H8.67a.22.22 0 0 0-.22.22v7.872c0 .121.1.22.22.22h.404zM5.914 31.683c0-.121-.1-.22-.22-.22H5.29a.22.22 0 0 0-.22.22v.483c0 .121.099.22.22.22h.404c.12 0 .22-.099.22-.22v-.483zM.22 44.393a.22.22 0 0 1-.22-.22V30.76a.22.22 0 0 1 .22-.22h2.094a.22.22 0 0 1 .22.22v1.407c0 .121.1.22.221.22h.404c.122 0 .22-.099.22-.22v-.483a.22.22 0 0 1 .221-.22h.404c.121 0 .22-.1.22-.22v-.484c0-.121.1-.22.22-.22H6.54c.12 0 .22.099.22.22v.483c0 .122.1.22.22.22h1.25c.12 0 .22.1.22.221v.483c0 .121.1.22.22.22h.404c.121 0 .22.1.22.221v1.406c0 .121.1.22.221.22h.404c.121 0 .22.1.22.22v9.72c0 .122-.099.22-.22.22H7.824c-.12 0-.22-.098-.22-.22v-9.72c0-.12-.1-.22-.22-.22H6.98c-.122 0-.22-.099-.22-.22v-.483c0-.121-.1-.22-.221-.22H4.445a.22.22 0 0 0-.22.22v.483c0 .121-.1.22-.22.22H3.6a.22.22 0 0 0-.22.22v.484c0 .121-.1.22-.22.22h-.405a.22.22 0 0 0-.22.22v8.796c0 .122-.1.22-.22.22H.22zM49.388 5.75a.22.22 0 0 0-.22-.22h-1.25a.221.221 0 0 0-.22.22v.483c0 .12.1.22.22.22h1.25c.121 0 .22-.1.22-.22v-.483zm-6.538 12.71c-.122 0-.22-.1-.22-.22V4.825c0-.122.098-.22.22-.22h2.094a.22.22 0 0 1 .22.22v1.407c0 .12.1.22.22.22h.404c.122 0 .22-.1.22-.22v-.483c0-.122.1-.22.221-.22h.404c.122 0 .22-.1.22-.221v-.483c0-.122.1-.22.221-.22h2.939a.22.22 0 0 1 .22.22v.483c0 .121.1.22.22.22h.405a.22.22 0 0 1 .22.22v.484c0 .12.1.22.22.22h.405c.12 0 .22.099.22.22V8.08c0 .12-.1.22-.22.22h-.405c-.12 0-.22.1-.22.22v.484c0 .12-.1.22-.22.22h-.404c-.122 0-.22-.1-.22-.22v-.484c0-.12-.1-.22-.221-.22h-.404c-.121 0-.22-.1-.22-.22v-.483a.22.22 0 0 0-.221-.22h-2.094a.221.221 0 0 0-.22.22v.483c0 .12-.1.22-.22.22h-.405c-.121 0-.22.1-.22.22v.484c0 .12-.1.22-.22.22h-.405a.221.221 0 0 0-.22.22v8.796c0 .12-.1.22-.22.22H42.85zm-19.969 0c-.121 0-.22-.1-.22-.22v-.483c0-.121-.1-.22-.22-.22h-.405c-.121 0-.22-.1-.22-.22v-.484c0-.121-.1-.22-.22-.22h-.405c-.12 0-.22-.1-.22-.22V4.825c0-.122.1-.22.22-.22h2.094c.121 0 .22.098.22.22v9.72c0 .12.1.22.221.22h.404c.121 0 .22.099.22.22v.483c0 .12.1.22.221.22h2.094c.12 0 .22-.1.22-.22v-.483c0-.121.1-.22.22-.22h.405c.12 0 .22-.1.22-.22v-.483c0-.122.1-.22.22-.22h.404c.122 0 .22-.1.22-.221V4.825c0-.122.1-.22.221-.22h2.094a.22.22 0 0 1 .22.22v13.414c0 .12-.099.22-.22.22h-2.094c-.12 0-.22-.1-.22-.22v-1.407a.22.22 0 0 0-.22-.22h-.405a.221.221 0 0 0-.22.22v.483c0 .121-.1.22-.22.22h-.405a.221.221 0 0 0-.22.22v.484c0 .12-.1.22-.22.22H22.88zM9.112 13.841c.121 0 .22-.1.22-.22V9.443a.22.22 0 0 0-.22-.22h-.404a.221.221 0 0 0-.22.22v4.178c0 .12.099.22.22.22h.404zm-2.535 1.847c.122 0 .22-.1.22-.22v-.483c0-.121.1-.22.221-.22h.404c.121 0 .22-.1.22-.22V8.518c0-.12-.099-.22-.22-.22h-.404c-.12 0-.22-.1-.22-.22v-.483a.22.22 0 0 0-.22-.22h-2.94a.22.22 0 0 0-.22.22v.483c0 .12-.099.22-.22.22h-.404c-.121 0-.22.1-.22.22v6.025c0 .121.099.22.22.22h.404c.121 0 .22.1.22.22v.484c0 .12.1.22.22.22h2.94zM3.64 18.459c-.121 0-.22-.1-.22-.22v-.483c0-.121-.1-.22-.22-.22h-1.25c-.121 0-.22-.1-.22-.22v-.484c0-.121-.1-.22-.22-.22h-.405c-.121 0-.22-.1-.22-.22v-1.407c0-.121-.1-.22-.22-.22H.258c-.12 0-.22-.1-.22-.22V8.518c0-.12.1-.22.22-.22h.404c.121 0 .22-.1.22-.22V6.672c0-.121.1-.22.221-.22h.404c.121 0 .22-.1.22-.22v-.483c0-.122.1-.22.221-.22h1.25c.12 0 .22-.1.22-.221v-.483c0-.122.099-.22.22-.22h2.938a.22.22 0 0 1 .22.22v.483c0 .121.1.22.221.22h1.25a.22.22 0 0 1 .22.22v.484c0 .12.099.22.22.22h.404c.121 0 .22.099.22.22V8.08c0 .12.1.22.22.22h.405c.121 0 .22.1.22.22v6.025c0 .121-.099.22-.22.22h-.404a.221.221 0 0 0-.22.22v1.408c0 .12-.1.22-.221.22h-.404a.221.221 0 0 0-.22.22v.483c0 .121-.1.22-.22.22h-1.25a.221.221 0 0 0-.22.22v.484c0 .12-.1.22-.22.22h-2.94zM141.078 1.592c0 .121-.1.22-.22.22h-.482c-.121 0-.22-.099-.22-.22V1.11c0-.121.099-.22.22-.22h.482c.12 0 .22.099.22.22v.482zM139.773 0c-.121 0-.22.1-.22.22v3.254c0 .121-.1.22-.22.22h-2.596c-.12 0-.22.1-.22.22V7.17c0 .12-.1.22-.22.22h-2.595c-.12 0-.22.1-.22.22v10.643c0 .122.1.22.22.22h2.595c.12 0 .22-.098.22-.22V15c0-.122.1-.22.22-.22h2.595c.121 0 .22-.1.22-.221v-3.254c0-.121.1-.22.22-.22h2.596c.12 0 .22-.1.22-.22V.22c0-.12-.1-.22-.22-.22h-2.595zm-13.271 1.592c0 .121-.1.22-.22.22h-.482c-.121 0-.22-.099-.22-.22V1.11c0-.121.099-.22.22-.22h.481c.122 0 .22.099.22.22v.482zM125.197 0c-.122 0-.22.1-.22.22v3.254a.22.22 0 0 1-.221.22h-2.595c-.121 0-.22.1-.22.22V7.17c0 .12-.1.22-.22.22h-2.595c-.121 0-.22.1-.22.22v10.643c0 .122.099.22.22.22h2.594c.122 0 .22-.098.22-.22V15c0-.122.1-.22.221-.22h2.595c.121 0 .22-.1.22-.221v-3.254c0-.121.1-.22.22-.22h2.595c.122 0 .22-.1.22-.22V.22a.22.22 0 0 0-.22-.22h-2.594zm-13.335 1.592c0 .121-.099.22-.22.22h-.481a.22.22 0 0 1-.22-.22V1.11c0-.121.098-.22.22-.22h.481c.121 0 .22.099.22.22v.482zM110.557 0c-.12 0-.22.1-.22.22v3.254c0 .121-.1.22-.22.22h-2.595c-.121 0-.22.1-.22.22V7.17a.22.22 0 0 1-.22.22h-2.595c-.121 0-.22.1-.22.22v10.643c0 .122.099.22.22.22h2.594c.122 0 .22-.098.22-.22V15c0-.122.1-.22.22-.22h2.596c.12 0 .22-.1.22-.221v-3.254c0-.121.1-.22.22-.22h2.595c.122 0 .22-.1.22-.22V.22a.22.22 0 0 0-.22-.22h-2.595zM97.223 1.592c0 .121-.099.22-.22.22h-.482c-.12 0-.22-.099-.22-.22V1.11c0-.121.1-.22.22-.22h.482c.121 0 .22.099.22.22v.482zM95.918 0c-.121 0-.22.1-.22.22v3.254a.22.22 0 0 1-.22.22h-2.595c-.121 0-.22.1-.22.22V7.17a.22.22 0 0 1-.221.22h-2.594c-.121 0-.22.1-.22.22v10.643c0 .122.099.22.22.22h2.594c.121 0 .22-.098.22-.22V15c0-.122.1-.22.22-.22h2.595c.122 0 .22-.1.22-.221v-3.254c0-.121.1-.22.221-.22h2.595c.121 0 .22-.1.22-.22V.22c0-.12-.099-.22-.22-.22h-2.595zM82.584 1.592c0 .121-.1.22-.22.22h-.482a.22.22 0 0 1-.22-.22V1.11c0-.121.099-.22.22-.22h.482c.12 0 .22.099.22.22v.482zM81.28 0a.22.22 0 0 0-.22.22v3.254c0 .121-.1.22-.22.22h-2.596c-.12 0-.22.1-.22.22V7.17a.22.22 0 0 1-.22.22h-2.595c-.12 0-.22.1-.22.22v10.643c0 .122.1.22.22.22h2.595c.121 0 .22-.098.22-.22V15c0-.122.1-.22.22-.22h2.596c.12 0 .22-.1.22-.221v-3.254a.22.22 0 0 1 .22-.22h2.595c.121 0 .22-.1.22-.22V.22c0-.12-.099-.22-.22-.22h-2.595zM67.631 7.49c0 .12-.1.22-.22.22h-.377c-.121 0-.22-.1-.22-.22v-.442c0-.122.099-.22.22-.22h.376c.121 0 .22.098.22.22v.442zm-.97-1.148c-.12 0-.22.1-.22.22V9.38c0 .12.1.22.22.22h2.574c.12 0 .22-.1.22-.22V6.563c0-.121-.1-.22-.22-.22h-2.573zm.97 8.942c0 .121-.1.22-.22.22h-.377c-.121 0-.22-.099-.22-.22v-.442c0-.121.099-.22.22-.22h.376c.121 0 .22.099.22.22v.442zm-.97-1.147c-.12 0-.22.1-.22.22v2.816c0 .121.1.22.22.22h2.574c.12 0 .22-.099.22-.22v-2.816c0-.12-.1-.22-.22-.22h-2.573z" fill="#000" mask="url(#b)"/></g></svg>