<svg class="logo" width="156" height="40" viewBox="0 0 156 40" xmlns="http://www.w3.org/2000/svg" xmlns:xlink="http://www.w3.org/1999/xlink"><defs><path id="a" d="M0 .027h10.139v13.896H0z"/><path id="c" d="M.154.027h10.139v13.896H.154z"/><path id="e" d="M.184.027h8.448v13.896H.184z"/><path id="g" d="M.071.036h10.983v18.528H.071z"/></defs><g fill="none" fill-rule="evenodd"><path d="M67.63 10.725a.221.221 0 0 1-.22.221h-.376c-.121 0-.22-.1-.22-.22v-.444c0-.122.099-.221.22-.221h.376c.122 0 .22.1.22.22v.444zm-.968-1.15c-.121 0-.22.099-.22.22v2.825c0 .121.099.22.22.22h2.573c.12 0 .22-.099.22-.22V9.796c0-.122-.1-.221-.22-.221h-2.573zM67.63 2.908a.221.221 0 0 1-.22.22h-.376c-.121 0-.22-.099-.22-.22v-.444c0-.121.099-.22.22-.22h.376c.122 0 .22.099.22.22v.444zm-.968-1.151c-.121 0-.22.1-.22.221v2.824c0 .122.099.221.22.221h2.573c.12 0 .22-.1.22-.22V1.977c0-.122-.1-.221-.22-.221h-2.573zM82.584 1.46c0 .123-.099.222-.22.222h-.482c-.12 0-.22-.1-.22-.221V.89c0-.12.1-.22.22-.22h.482c.121 0 .22.1.22.22v.57zM81.28 0c-.121 0-.22.1-.22.221v2.342c0 .122-.1.221-.22.221h-2.595c-.122 0-.22.1-.22.221v2.343c0 .122-.1.221-.221.221h-2.595c-.12 0-.22.1-.22.221v7.912c0 .122.1.221.22.221h2.595c.121 0 .22-.1.22-.22V11.36c0-.122.1-.221.22-.221h2.595c.122 0 .22-.1.22-.221V8.575c0-.122.1-.221.221-.221h2.595c.12 0 .22-.1.22-.221V.22c0-.122-.1-.22-.22-.22h-2.595zM97.223 1.46c0 .123-.099.222-.22.222h-.482c-.12 0-.22-.1-.22-.221V.89c0-.12.1-.22.22-.22h.482c.121 0 .22.1.22.22v.57zM95.918 0c-.12 0-.22.1-.22.221v2.342c0 .122-.1.221-.22.221h-2.595c-.121 0-.22.1-.22.221v2.343c0 .122-.1.221-.22.221h-2.596c-.12 0-.22.1-.22.221v7.912c0 .122.1.221.22.221h2.595c.121 0 .22-.1.22-.22V11.36c0-.122.1-.221.22-.221h2.596c.12 0 .22-.1.22-.221V8.575c0-.122.1-.221.22-.221h2.595c.121 0 .22-.1.22-.221V.22c0-.122-.099-.22-.22-.22h-2.595zM9.112 9.278c.121 0 .22-.1.22-.221v-4.19a.221.221 0 0 0-.22-.221h-.404c-.121 0-.22.1-.22.22v4.19c0 .122.099.222.22.222h.404zM6.577 11.13c.122 0 .22-.1.22-.22v-.485c0-.121.1-.221.221-.221h.404c.122 0 .22-.1.22-.221V3.94c0-.121-.098-.22-.22-.22h-.404c-.121 0-.22-.1-.22-.222v-.484c0-.122-.1-.221-.22-.221h-2.94c-.12 0-.22.1-.22.22v.485c0 .122-.099.221-.22.221h-.404c-.122 0-.22.1-.22.221v6.043c0 .121.098.22.22.22h.404c.121 0 .22.1.22.222v.484c0 .122.1.221.22.221h2.94zM3.64 13.91c-.122 0-.22-.1-.22-.221v-.485c0-.121-.1-.22-.221-.22h-1.25c-.12 0-.22-.1-.22-.222v-.484c0-.122-.099-.221-.22-.221h-.404c-.121 0-.22-.1-.22-.221v-1.411c0-.121-.1-.221-.22-.221H.258c-.121 0-.22-.1-.22-.221V3.94c0-.121.099-.22.22-.22h.404c.122 0 .22-.1.22-.222v-1.41c0-.122.1-.221.221-.221h.404c.121 0 .22-.1.22-.221V1.16c0-.121.1-.22.22-.22h1.25c.121 0 .22-.1.22-.222V.235c0-.122.1-.221.22-.221h2.94c.12 0 .22.1.22.22V.72c0 .122.099.221.22.221h1.25c.12 0 .22.1.22.221v.485c0 .121.099.22.22.22h.404c.121 0 .22.1.22.222v1.41c0 .122.1.221.22.221h.405c.121 0 .22.1.22.221v6.043c0 .121-.099.22-.22.22h-.404c-.121 0-.22.1-.22.222v1.41a.221.221 0 0 1-.221.222h-.404c-.121 0-.22.1-.22.22v.485c0 .122-.1.221-.22.221h-1.25c-.121 0-.22.1-.22.221v.485c0 .121-.1.22-.22.22h-2.94zM22.881 13.91c-.121 0-.22-.1-.22-.221v-.485c0-.121-.1-.22-.22-.22h-.405c-.121 0-.22-.1-.22-.222v-.484c0-.122-.1-.221-.22-.221h-.405c-.12 0-.22-.1-.22-.221V.235c0-.122.1-.221.22-.221h2.094c.122 0 .22.1.22.22v9.749c0 .121.1.22.22.22h.405c.121 0 .22.1.22.222v.484c0 .122.1.221.22.221h2.095c.121 0 .22-.1.22-.22v-.485c0-.121.1-.221.22-.221h.405c.12 0 .22-.1.22-.221v-.484c0-.122.1-.221.22-.221h.405c.12 0 .22-.1.22-.221V.235c0-.122.099-.221.22-.221h2.094c.121 0 .22.1.22.22V13.69c0 .121-.099.22-.22.22h-2.094c-.121 0-.22-.099-.22-.22v-1.411c0-.122-.1-.221-.22-.221h-.405c-.12 0-.22.1-.22.22v.485c0 .122-.1.221-.22.221h-.405c-.12 0-.22.1-.22.221v.485a.221.221 0 0 1-.22.22H22.88zM49.388 1.161c0-.121-.099-.22-.22-.22h-1.25c-.12 0-.22.099-.22.22v.485c0 .121.1.22.22.22h1.25c.121 0 .22-.099.22-.22V1.16zM42.85 13.91c-.122 0-.22-.1-.22-.221V.235c0-.122.098-.221.22-.221h2.094c.12 0 .22.1.22.22v1.412c0 .121.099.22.22.22h.405c.12 0 .22-.099.22-.22V1.16c0-.121.099-.22.22-.22h.404c.122 0 .22-.1.22-.222V.235c0-.122.1-.221.221-.221h2.939c.121 0 .22.1.22.22V.72c0 .122.1.221.22.221h.405c.121 0 .22.1.22.221v.485c0 .121.1.22.22.22h.405c.12 0 .22.1.22.222v1.41c0 .122-.1.221-.22.221h-.405c-.12 0-.22.1-.22.221v.485a.221.221 0 0 1-.22.22h-.404c-.122 0-.22-.099-.22-.22V3.94c0-.121-.1-.22-.221-.22h-.404c-.122 0-.22-.1-.22-.222v-.484c0-.122-.1-.221-.22-.221h-2.095c-.121 0-.22.1-.22.221v.484c0 .122-.1.221-.22.221h-.405c-.121 0-.22.1-.22.221v.485c0 .121-.1.22-.22.22h-.405c-.121 0-.22.1-.22.222v8.822c0 .121-.1.22-.22.22H42.85z" fill="#000"/><g transform="translate(0 25.999)"><mask id="b" fill="#fff"><use xlink:href="#a"/></mask><path d="M9.073 12.996c.122 0 .22-.1.22-.22V4.88a.221.221 0 0 0-.22-.221H8.67c-.121 0-.22.1-.22.22v7.896c0 .122.099.221.22.221h.404zM5.914 1.174a.221.221 0 0 0-.22-.22H5.29c-.122 0-.22.099-.22.22v.485c0 .121.098.22.22.22h.404c.121 0 .22-.099.22-.22v-.485zM.22 13.923c-.12 0-.22-.1-.22-.221V.248C0 .126.1.027.22.027h2.094c.122 0 .22.1.22.22V1.66c0 .121.1.22.22.22h.405c.121 0 .22-.099.22-.22v-.485c0-.121.1-.22.22-.22h.405c.121 0 .22-.1.22-.222V.248c0-.122.1-.221.22-.221H6.54c.121 0 .22.1.22.22v.485c0 .122.1.221.22.221h1.25c.12 0 .22.1.22.221v.485c0 .121.099.22.22.22h.404c.122 0 .22.1.22.222v1.41c0 .122.1.221.221.221h.404c.122 0 .22.1.22.221v9.749a.221.221 0 0 1-.22.22H7.824c-.121 0-.22-.099-.22-.22V3.953a.221.221 0 0 0-.22-.22h-.405c-.12 0-.22-.1-.22-.222v-.484a.221.221 0 0 0-.22-.22H4.445c-.122 0-.22.099-.22.22v.484a.221.221 0 0 1-.221.221H3.6c-.121 0-.22.1-.22.221v.485c0 .121-.1.22-.22.22h-.405c-.121 0-.22.1-.22.222v8.822a.221.221 0 0 1-.22.22H.22z" fill="#000" mask="url(#b)"/></g><g transform="translate(20.712 25.999)"><mask id="d" fill="#fff"><use xlink:href="#c"/></mask><path d="M7.538 5.585c.121 0 .22-.1.22-.22V3.952a.221.221 0 0 0-.22-.22h-.405c-.12 0-.22-.1-.22-.222v-.484a.221.221 0 0 0-.22-.221h-2.94c-.12 0-.22.1-.22.221v.484a.221.221 0 0 1-.22.221H2.91c-.121 0-.22.1-.22.221v1.411c0 .122.099.221.22.221h4.629zm-3.784 8.338c-.121 0-.22-.1-.22-.221v-.485a.221.221 0 0 0-.22-.22h-1.25c-.121 0-.22-.1-.22-.222v-.484a.221.221 0 0 0-.22-.221h-.405c-.12 0-.22-.1-.22-.221v-1.41a.221.221 0 0 0-.22-.222H.374c-.12 0-.22-.1-.22-.22V3.952c0-.121.1-.22.22-.22H.78c.121 0 .22-.1.22-.222v-1.41c0-.122.1-.221.22-.221h.404c.122 0 .22-.1.22-.221v-.485c0-.121.1-.22.221-.22h1.25c.12 0 .22-.1.22-.222V.248c0-.122.099-.221.22-.221h2.939c.121 0 .22.1.22.22v.485c0 .122.1.221.22.221h1.25c.121 0 .22.1.22.221v.485c0 .121.1.22.22.22h.405c.121 0 .22.1.22.222v1.41c0 .122.1.221.22.221h.404c.122 0 .22.1.22.221v3.264a.221.221 0 0 1-.22.22H2.91c-.121 0-.22.1-.22.222v2.337c0 .122.099.221.22.221h.404c.122 0 .22.1.22.221v.484c0 .122.1.221.22.221h2.94c.121 0 .22-.1.22-.22v-.485c0-.121.1-.22.22-.22h.405c.121 0 .22-.1.22-.222v-.484c0-.122.1-.221.22-.221h2.094c.122 0 .22.1.22.22v1.411a.221.221 0 0 1-.22.221h-.404c-.12 0-.22.1-.22.221v.485a.221.221 0 0 1-.22.22h-.405c-.12 0-.22.1-.22.222v.484a.221.221 0 0 1-.22.221h-1.25c-.12 0-.22.1-.22.221v.485a.221.221 0 0 1-.22.22h-2.94z" fill="#000" mask="url(#d)"/></g><path d="M45.068 39.921c-.121 0-.22-.1-.22-.22V29.025a.221.221 0 0 0-.22-.221h-1.25c-.121 0-.22-.1-.22-.221v-2.338c0-.121.099-.22.22-.22h1.25c.12 0 .22-.1.22-.222v-4.19c0-.121.099-.22.22-.22h2.094c.121 0 .22.099.22.22v4.19c0 .122.1.221.22.221h2.94c.12 0 .22.1.22.221v2.338a.221.221 0 0 1-.22.22h-2.94c-.12 0-.22.1-.22.222V39.7a.221.221 0 0 1-.22.221h-2.094zM63.998 35.51a.221.221 0 0 0-.22-.22h-.405c-.121 0-.22.099-.22.22v1.411c0 .122.099.221.22.221h.404c.122 0 .22-.1.22-.22V35.51zm-.845-2.779a.221.221 0 0 0-.22-.22h-.405c-.121 0-.22.099-.22.22v1.411c0 .121.099.221.22.221h.404c.122 0 .22-.1.22-.22V32.73zm-.845-2.779a.221.221 0 0 0-.22-.221h-.405c-.12 0-.22.1-.22.221v.484c0 .122.1.221.22.221h.404c.122 0 .22-.099.22-.22v-.485zm-.845-2.78a.221.221 0 0 0-.22-.22h-.404c-.122 0-.22.1-.22.22v.485c0 .122.098.221.22.221h.404c.121 0 .22-.099.22-.22v-.485zm7.384 4.412c.12 0 .22.1.22.22v2.338c0 .121.099.221.22.221h.405c.12 0 .22.1.22.221v2.337c0 .122.099.221.22.221h.405c.12 0 .22-.1.22-.22v-2.338c0-.121.099-.22.22-.22h.404c.122 0 .22-.1.22-.222v-2.337c0-.121.1-.221.221-.221h.404c.121 0 .22-.1.22-.221v-2.337c0-.122.1-.221.22-.221h.405c.121 0 .22-.1.22-.221v-2.338c0-.121.1-.22.22-.22h2.095c.12 0 .22.099.22.22v2.338c0 .121-.1.22-.22.22h-.404c-.122 0-.22.1-.22.222v2.337c0 .121-.1.22-.221.22h-.404c-.121 0-.22.1-.22.222v3.263c0 .122-.1.221-.22.221h-.405c-.121 0-.22.1-.22.221v2.337c0 .122-.1.221-.22.221h-.405c-.121 0-.22.1-.22.221V39.7a.221.221 0 0 1-.22.221h-2.94c-.121 0-.22-.1-.22-.22v-1.412a.221.221 0 0 0-.22-.22h-.405c-.12 0-.22-.1-.22-.222V35.51a.221.221 0 0 0-.22-.22h-.404c-.122 0-.22.099-.22.22v2.337a.221.221 0 0 1-.221.221h-.404c-.122 0-.22.1-.22.221V39.7a.221.221 0 0 1-.221.221h-2.939c-.121 0-.22-.1-.22-.22v-1.412a.221.221 0 0 0-.22-.22h-.405c-.121 0-.22-.1-.22-.222V35.51a.221.221 0 0 0-.22-.22h-.405c-.12 0-.22-.1-.22-.222v-3.263a.221.221 0 0 0-.22-.221h-.404c-.122 0-.22-.1-.22-.221v-2.337a.221.221 0 0 0-.221-.221h-.404c-.122 0-.22-.1-.22-.221v-2.338c0-.121.098-.22.22-.22h2.093c.122 0 .22.099.22.22v2.338c0 .121.1.22.221.22h.404c.122 0 .22.1.22.222v2.337c0 .121.1.22.221.22h.404c.122 0 .22.1.22.222v2.337c0 .121.1.221.221.221h.404c.122 0 .22.1.22.221v2.337c0 .122.1.221.22.221h.405c.121 0 .22-.1.22-.22v-2.338c0-.121.1-.22.22-.22h.405c.121 0 .22-.1.22-.222v-2.337c0-.121.1-.221.22-.221h.405c.121 0 .22-.1.22-.221v-1.411c0-.122.1-.221.22-.221h.405c.121 0 .22.1.22.221v1.41c0 .122.1.222.22.222h.405zM89.37 27.878c.121 0 .22-.099.22-.22v-.485a.221.221 0 0 0-.22-.221h-1.25c-.12 0-.22.1-.22.221v.484c0 .122.1.221.22.221h1.25zm.845 9.264c.121 0 .22-.1.22-.22v-.485c0-.122.1-.221.22-.221h.404c.122 0 .22-.1.22-.221v-6.043a.221.221 0 0 0-.22-.221h-.404c-.12 0-.22-.1-.22-.221v-.484a.221.221 0 0 0-.22-.221h-2.94c-.12 0-.22.1-.22.22v.485a.221.221 0 0 1-.22.221h-.404c-.121 0-.22.1-.22.221v6.043c0 .121.099.22.22.22h.404c.121 0 .22.1.22.222v.484c0 .122.1.221.22.221h2.94zm-2.94 2.78c-.12 0-.22-.1-.22-.222v-.484a.221.221 0 0 0-.22-.22h-1.249c-.121 0-.22-.1-.22-.222v-.485a.221.221 0 0 0-.22-.22h-.405c-.121 0-.22-.1-.22-.222v-1.41a.221.221 0 0 0-.22-.221h-.405c-.121 0-.22-.1-.22-.221v-6.043c0-.122.099-.221.22-.221h.404c.122 0 .22-.1.22-.221V28.1c0-.122.1-.222.221-.222h.404c.122 0 .22-.099.22-.22v-.485c0-.122.1-.221.221-.221h1.25c.12 0 .22-.1.22-.221v-.485c0-.121.099-.22.22-.22h2.939c.121 0 .22.099.22.22v.485c0 .121.1.221.22.221h1.25c.12 0 .22.1.22.221v.484c0 .122.099.221.22.221h.404c.122 0 .22.1.22.221v1.411c0 .122.1.221.221.221h.404c.122 0 .22.1.22.221v6.043a.221.221 0 0 1-.22.22h-.404c-.121 0-.22.1-.22.222v1.41a.221.221 0 0 1-.22.221h-.405c-.121 0-.22.1-.22.221v.485a.221.221 0 0 1-.22.221h-1.25c-.12 0-.22.1-.22.221v.484a.221.221 0 0 1-.22.221h-2.94zM105.555 39.921c-.122 0-.22-.1-.22-.22V26.245c0-.121.098-.22.22-.22h2.094c.121 0 .22.099.22.22v1.411c0 .122.099.221.22.221h.405c.121 0 .22-.099.22-.22v-.485c0-.122.099-.221.22-.221h.404c.122 0 .22-.1.22-.221v-.485c0-.121.1-.22.221-.22h2.939c.121 0 .22.099.22.22v.485c0 .121.1.22.22.22h.405c.121 0 .22.1.22.222v.484c0 .122.1.221.22.221h.405c.12 0 .22.1.22.221v1.411c0 .121-.1.221-.22.221h-.404c-.122 0-.22.1-.22.221v.484a.221.221 0 0 1-.221.221h-.404c-.122 0-.22-.099-.22-.22v-.485a.221.221 0 0 0-.221-.221h-.404c-.121 0-.22-.1-.22-.221v-.484a.221.221 0 0 0-.22-.221h-2.095c-.121 0-.22.1-.22.22v.485a.221.221 0 0 1-.22.221h-.405c-.121 0-.22.1-.22.221v.484a.221.221 0 0 1-.22.221h-.405c-.121 0-.22.1-.22.221V39.7a.221.221 0 0 1-.22.221h-2.094z" fill="#000"/><g transform="translate(147.186 25.999)"><mask id="f" fill="#fff"><use xlink:href="#e"/></mask><path d="M2.094 13.923c-.122 0-.22-.1-.22-.221v-.485a.221.221 0 0 0-.221-.22h-.404c-.121 0-.22-.1-.22-.222v-.484a.221.221 0 0 0-.22-.221H.403c-.121 0-.22-.1-.22-.221v-1.411c0-.121.099-.221.22-.221h.404c.122 0 .22-.1.22-.221v-.484c0-.122.1-.221.22-.221h.405c.121 0 .22.1.22.22v.485c0 .122.1.221.22.221h.405c.121 0 .22.1.22.221v.484c0 .122.1.221.22.221h.405c.121 0 .22.1.22.221v.485c0 .121.1.22.22.22h1.25c.121 0 .22-.099.22-.22v-.485c0-.121.1-.22.22-.22h.405c.121 0 .22-.1.22-.222v-1.41a.221.221 0 0 0-.22-.221h-.405c-.12 0-.22-.1-.22-.221v-.485a.221.221 0 0 0-.22-.22h-.405c-.12 0-.22-.1-.22-.222V7.66a.221.221 0 0 0-.22-.221h-1.25c-.12 0-.22-.1-.22-.221v-.484a.221.221 0 0 0-.22-.221h-.404c-.122 0-.22-.1-.22-.221v-.485a.221.221 0 0 0-.221-.22h-.404c-.121 0-.22-.1-.22-.222V4.88a.221.221 0 0 0-.22-.221H.403c-.121 0-.22-.1-.22-.221V2.1c0-.122.099-.221.22-.221h.404c.122 0 .22-.1.22-.221v-.485c0-.121.1-.22.22-.22h.405c.121 0 .22-.1.22-.222V.248c0-.122.1-.221.22-.221h4.63c.12 0 .22.1.22.22v.485c0 .122.099.221.22.221h.404c.122 0 .22.1.22.221v2.337a.221.221 0 0 1-.22.221H6.318c-.12 0-.22-.1-.22-.22v-.485a.221.221 0 0 0-.22-.221h-.405c-.12 0-.22-.1-.22-.221v-.484a.221.221 0 0 0-.22-.221h-1.25c-.12 0-.22.1-.22.22v.485a.221.221 0 0 1-.22.22h-.404c-.122 0-.22.1-.22.222v.484c0 .122.098.221.22.221h.404c.121 0 .22.1.22.221v.485c0 .121.1.22.22.22h.405c.121 0 .22.1.22.222v.484c0 .122.1.221.22.221h1.25c.121 0 .22.1.22.221v.485c0 .121.1.22.22.22h.404c.122 0 .22.1.22.222v.484c0 .121.1.22.221.22h.404c.122 0 .22.1.22.222v.484c0 .122.1.221.221.221h.404c.122 0 .22.1.22.221v3.264a.221.221 0 0 1-.22.22h-.404c-.121 0-.22.1-.22.222v.484a.221.221 0 0 1-.22.221h-.405c-.121 0-.22.1-.22.221v.485a.221.221 0 0 1-.22.22h-4.63z" fill="#000" mask="url(#f)"/></g><g transform="translate(125.153 21.358)"><mask id="h" fill="#fff"><use xlink:href="#g"/></mask><path d="M4.295 11.858a.221.221 0 0 1-.22.22h-1.25c-.12 0-.22-.099-.22-.22v-.484c0-.122.1-.221.22-.221h1.25c.121 0 .22.099.22.22v.485zm1.47-.705c.121 0 .22-.1.22-.221v-.485c0-.121.1-.22.22-.22h.405c.121 0 .22-.1.22-.222v-.484c0-.122.1-.221.22-.221h.405c.121 0 .22-.1.22-.221v-.485c0-.121.1-.22.22-.22H8.3c.121 0 .22-.1.22-.222v-.484c0-.122.1-.221.22-.221h.404c.122 0 .22-.1.22-.221v-.484c0-.122.1-.221.221-.221h.404c.122 0 .22-.1.22-.221v-.485c0-.121.1-.22.221-.22h.404c.122 0 .22-.1.22-.222V4.89a.221.221 0 0 0-.22-.221H7.895c-.12 0-.22.1-.22.22v.485a.221.221 0 0 1-.22.221H7.05c-.12 0-.22.1-.22.221V6.3a.221.221 0 0 1-.22.22h-.405c-.12 0-.22.1-.22.222v.484a.221.221 0 0 1-.22.22H5.36c-.121 0-.22.1-.22.222v.484a.221.221 0 0 1-.221.221h-.404c-.121 0-.22.1-.22.221v.485a.221.221 0 0 1-.221.22h-.404c-.121 0-.22.1-.22.222v.484a.221.221 0 0 1-.22.221h-.405c-.121 0-.22-.1-.22-.22V.255a.221.221 0 0 0-.22-.22H.29c-.12 0-.22.1-.22.22v18.087c0 .121.1.22.22.22h2.094c.122 0 .22-.099.22-.22v-5.117c0-.121.1-.22.22-.22h.405c.122 0 .22.099.22.22v.485c0 .121.1.22.22.22h.405c.121 0 .22.1.22.222v.484c0 .121.1.22.22.22h.405c.121 0 .22.1.22.222v.484c0 .122.1.221.22.221h.405c.121 0 .22.1.22.221v.485c0 .121.1.22.22.22h.405c.121 0 .22.1.22.222v.484c0 .122.1.221.22.221h.405c.121 0 .22.1.22.221v.485c0 .121.1.22.22.22h2.94c.12 0 .22-.099.22-.22v-.485a.221.221 0 0 0-.22-.22h-.405c-.121 0-.22-.1-.22-.222v-.484a.221.221 0 0 0-.22-.221h-.405c-.121 0-.22-.1-.22-.221v-.485a.221.221 0 0 0-.22-.22H8.74c-.12 0-.22-.1-.22-.222v-.484a.221.221 0 0 0-.22-.221h-.405c-.12 0-.22-.1-.22-.221v-.484a.221.221 0 0 0-.22-.221H7.05c-.12 0-.22-.1-.22-.221v-.485a.221.221 0 0 0-.22-.22h-.405c-.12 0-.22-.1-.22-.222V12.3a.221.221 0 0 0-.22-.221H5.36c-.121 0-.22-.1-.22-.221v-.484c0-.122.099-.221.22-.221h.404z" fill="#000" mask="url(#h)"/></g></g></svg>