<svg xmlns="http://www.w3.org/2000/svg" class="logo" viewBox="0 0 762 213"><path d="M15.3 105.1V101H7.7v-4.2H3.8v-8.4H0V59h3.8v-8.4h3.8v-4.2h7.7v-4.2h15.3v4.2h7.7v4.2h3.8V59H46v29.3h-3.8v8.4h-3.8v4.2h-7.7v4.2H15.3zm15.4-12.5v-4.2h3.8V59h-3.8v-4.2H15.3V59h-3.8v29.3h3.8v4.2h15.4zm11.5-8.4v-21h-3.8v21h3.8zm60.5 20.9V101h-3.8v-4.2H95V42.3h11.5v46.1h3.8v4.2h11.5v-4.2h3.8v-4.2h3.8V42.3H141v62.9h-11.5v-8.4h-3.8v4.2h-3.8v4.2h-19.2zm90.6 0V42.3h11.5v8.4h3.8v-4.2h3.8v-4.2h15.3v4.2h3.8v4.2h3.8V59h-3.8v4.2h-3.8V59H224v-4.2h-11.5V59h-3.8v4.2h-3.8v41.9h-11.6zM224 46.5h-7.7v4.2h7.7v-4.2zM.8 213v-62.9h11.5v8.4h3.8v-4.2H20v-4.2h11.5v4.2h7.7v4.2H43v8.4h3.8V213H35.3v-46.1h-3.8v-4.2H20v4.2h-3.8v4.2h-3.8V213H.8zm26.9-58.7h-3.8v4.2h3.8v-4.2zM43 208.8V171h-3.8v37.7H43zm67.9 4.2v-4.2h-7.7v-4.2h-3.8v-8.4h-3.8v-29.3h3.8v-8.4h3.8v-4.2h7.7v-4.2h15.3v4.2h7.7v4.2h3.8v8.4h3.8v16.8H107v12.6h3.8v4.2h15.3v-4.2h3.8V192h11.5v8.4h-3.8v4.2h-3.8v4.2h-7.7v4.2h-15.2zm19.1-37.8v-8.4h-3.8v-4.2h-15.3v4.2H107v8.4h23zm74.4 37.8v-50.3h-7.7v-12.6h7.7v-21h11.5v21h15.3v12.6h-15.3V213h-11.5zm109.9-37.8v12.6h3.8v12.6h3.8v-12.6h3.8v-12.6h3.8v-12.6h3.8V150H345v12.6h-3.8v12.6h-3.8V192h-3.8v12.6h-3.8v8.4h-15.3v-8.4h-3.8V192h-3.8v12.6h-3.8v8.4h-15.3v-8.4H284V192h-3.8v-16.8h-3.8v-12.6h-3.8V150h11.5v12.6h3.8v12.6h3.8v12.6h3.8v12.6h3.8v-12.6h3.8v-12.6h3.8v-8.4h3.8v8.4h3.6zm-34.5-20.9H276v4.2h3.8v-4.2zm3.8 12.5h-3.8v4.2h3.8v-4.2zm3.9 12.6h-3.8v8.4h3.8v-8.4zm3.8 12.6h-3.8v8.4h3.8V192zm104.6 21v-4.2h-7.7v-4.2h-3.8v-8.4h-3.8v-29.3h3.8v-8.4h3.8v-4.2h7.7v-4.2h15.3v4.2h7.7v4.2h3.8v8.4h3.8v29.3h-3.8v8.4h-3.8v4.2h-7.7v4.2h-15.3zm15.4-12.6v-4.2h3.8v-29.3h-3.8v-4.2H396v4.2h-3.8v29.3h3.8v4.2h15.3zm-3.9-41.9v-4.2h-7.7v4.2h7.7zm71.5 54.5v-62.9h11.5v8.4h3.8v-4.2h3.8v-4.2h15.3v4.2h3.8v4.2h3.8v8.4h-3.8v4.2h-3.8v-4.2h-3.8v-4.2H498v4.2h-3.8v4.2h-3.8V213h-11.5zm198.4 0v-4.2h-3.8v-4.2h-3.8v-8.4h3.8V192h3.8v4.2h3.8v4.2h3.8v4.2h7.7v-4.2h3.8V192h-3.8v-4.2h-3.8v-4.2h-7.7v-4.2h-3.8v-4.2h-3.8V171h-3.8v-12.6h3.8v-4.2h3.8V150h23v4.2h3.8v12.6h-7.7v-4.2h-3.8v-4.2H685v4.2h-3.8v4.2h3.8v4.2h3.8v4.2h7.7v4.2h3.8v4.2h3.8v4.2h3.8v16.8h-3.8v4.2h-3.8v4.2h-23zM596 179.4v-4.2h3.8V171h3.8v-4.2h3.8v-4.2h3.8v-4.2h3.8v-4.2h3.8V150h-15.3v4.2h-3.8v4.2H596v4.2h-3.8v4.2h-3.8v4.2h-3.8v4.2h-3.8v-46.1h-11.5V213h11.5v-25.2h3.8v4.2h3.8v4.2h3.8v4.2h3.8v4.2h3.8v4.2h3.8v4.2H619v-4.2h-3.8v-4.2h-3.8v-4.2h-3.8v-4.2h-3.8V192H600v-4.2h-4v-4.2h-3.8v-4.2h3.8zm-7.7 4.2h-7.7v-4.2h7.7v4.2zm-105-63.3h-37.8v-15h7.5v-15h7.5v-15h7.5v-15h7.5v-15h7.5v-15h7.5V15h7.5V0h45.3v15H536v15h-7.5v15H521v15h-7.5v15H506v15h-7.5v15H491v15h-7.7zm-60.4 0v-15h7.5v-15h7.5v-15h7.5v-15h7.5v-15h7.5v-15h7.5V15h7.5V0h-45.3v15h-7.5v15h-7.5v15h-7.5v15h-7.5v15h-7.5v15h-7.5v15h-7.5v15h45.3zm331.9-75.2h-7.5v15h-7.5v15h-7.5v15h-7.5v15h-7.5v15h45.1v-90h-7.5v15zm-60.2 75.2v-15h7.5v-15h7.5v-15h7.5v-15h7.5v-15h7.5v-15h7.5V15h7.5V0h-45.3v15h-7.5v15h-7.5v15h-7.5v15h-7.5v15h-7.5v15h-7.5v15h-7.5v15h45.3zm-135.8 0v-15h7.5v-15h7.5v-15h7.5v-15h7.5v-15h7.5v-15h7.5V15h7.5V0H566v15h-7.5v15H551v15h-7.5v15H536v15h-7.5v15H521v15h-7.5v15h45.3zm67.9 0v-15h7.5v-15h7.5v-15h7.5v-15h7.5v-15h7.5v-15h7.5V15h7.5V0H634v15h-7.5v15H619v15h-7.5v15H604v15h-7.5v15H589v15h-7.5v15H626.7zM311.8 57.7v-8.3h-8.3v8.3h8.3zM272.1 0v120.3h82.8v-15h7.5v-15h7.5v-15h7.5v-15h7.5v-15h7.5v-15h7.5V15h7.5V0H272.1zm46.8 105.7h-22.5V83.2h22.5v22.5zm0-40.9h-22.5V42.3h22.5v22.5zm-15.4 33.8v-8.3h8.3v8.3h-8.3z"/></svg>