<svg xmlns="http://www.w3.org/2000/svg" viewBox="0 0 60.9 34.9"><path d="M58.1 3c0 .2-.2.4-.4.4h-.9c-.2 0-.4-.2-.4-.4v-.9c0-.2.2-.4.4-.4h.9c.2 0 .4.2.4.4V3zm-2.5-3c-.2 0-.4.2-.4.4v6.1c0 .3-.2.5-.4.5h-4.9c-.2 0-.4.2-.4.4v6.1c0 .2-.2.4-.4.4h-4.9c-.2 0-.4.2-.4.4v20.1c0 .2.2.4.4.4h4.9c.2 0 .4-.2.4-.4v-6.1c0-.2.2-.4.4-.4h4.9c.2 0 .4-.2.4-.4v-6.1c0-.2.2-.4.4-.4h4.9c.2 0 .4-.2.4-.4V.4c0-.2-.2-.4-.4-.4h-4.9zM30.5 3c0 .2-.2.4-.4.4h-.9c-.2 0-.4-.2-.4-.4v-.9c0-.2.2-.4.4-.4h.8c.2 0 .4.2.4.4V3zM28 0c-.2 0-.4.2-.4.4v6.1c0 .2-.2.4-.4.4h-4.9c-.2 0-.4.2-.4.4v6.1c0 .2-.2.4-.4.4h-4.9c-.2 0-.4.2-.4.4v20.1c0 .2.2.4.4.4h4.9c.2 0 .4-.2.4-.4v-6.1c0-.2.2-.4.4-.4h4.9c.2 0 .4-.2.4-.4v-6.1c0-.2.2-.4.4-.4h4.9c.2 0 .4-.2.4-.4V.4c0-.2-.2-.4-.4-.4H28zM2.2 14.1c0 .2-.2.4-.4.4h-.7c-.2 0-.4-.2-.4-.4v-.8c0-.2.2-.4.4-.4h.7c.2 0 .4.2.4.4v.8zM.4 12c-.2 0-.4.2-.4.4v5.3c0 .2.2.4.4.4h4.9c.2 0 .4-.2.4-.4v-5.3c0-.2-.2-.4-.4-.4H.4zM2.2 28.8c0 .2-.2.4-.4.4h-.7c-.2 0-.4-.2-.4-.4V28c0-.2.2-.4.4-.4h.7c.2 0 .4.2.4.4v.8zM.4 26.7c-.2 0-.4.2-.4.4v5.3c0 .2.2.4.4.4h4.9c.2 0 .4-.2.4-.4v-5.3c0-.2-.2-.4-.4-.4H.4z"/></svg>