<svg xmlns="http://www.w3.org/2000/svg" viewBox="0 0 452.763 224.001"><title>DJL-text-red</title><g data-name="Layer 2"><g data-name="Layer 1" fill="#e3454b"><path d="M68.763 81.807a35.56 35.56 0 1 1 3.791-53.584l12.543 12.543a5.926 5.926 0 0 0 8.381-8.381L80.936 19.842a47.41 47.41 0 1 0-36.67 80.832q1.575.104 3.143.103a47.357 47.357 0 0 0 28.484-9.502 5.926 5.926 0 1 0-7.13-9.468z"/><path d="M210.814 15.622a53.337 53.337 0 0 0-75.43 0L85.116 65.89a5.926 5.926 0 1 0 8.381 8.38l50.268-50.267a41.484 41.484 0 0 1 58.668 0 5.926 5.926 0 1 0 8.381-8.38zM319.784 166.498l-33.524 33.525a41.532 41.532 0 0 1-58.668 0 5.926 5.926 0 1 0-8.381 8.381 53.398 53.398 0 0 0 75.43 0l33.525-33.525a5.926 5.926 0 1 0-8.381-8.38z"/><circle cx="340.737" cy="153.926" r="5.926" transform="rotate(-45 340.737 153.926)"/><path d="M119.447 130.792h-8.57l-.489-3.795a10.838 10.838 0 0 1-9.243 4.835c-8.263 0-12.364-6.855-12.364-17.383 0-10.038 5.08-17.2 13.466-17.2a10.535 10.535 0 0 1 7.529 3.06V84.336l9.671 1.04zm-9.671-9.732v-14.017c-1.469-1.713-2.877-2.754-5.02-2.754-3.488 0-5.936 2.937-5.936 10.222 0 8.08 2.203 10.221 5.386 10.221 2.265 0 4.04-1.223 5.57-3.672zM136.57 86.66a5.93 5.93 0 1 1-5.958-5.705 5.667 5.667 0 0 1 5.958 5.706zm-10.73 44.132V98.29h9.67v32.502zM162.47 101.473c4.102 1.775 6.122 4.162 6.122 8.386 0 6.304-5.203 10.895-13.65 10.895a17.96 17.96 0 0 1-3.734-.367 2.08 2.08 0 0 0-1.04 1.836c0 .98.428 1.959 3.55 1.959h4.896c7.59 0 12.426 3.978 12.426 9.426 0 6.672-5.876 10.773-17.016 10.773-12.303 0-15.547-4.04-15.547-10.467h8.691c0 2.815 1.224 4.04 7.1 4.04 5.693 0 7.04-1.592 7.04-3.673 0-1.897-1.408-3.182-4.652-3.182h-4.713c-7.1 0-9.978-2.94-9.978-6.427a7.74 7.74 0 0 1 3.857-6.244c-4.163-2.204-5.815-5.08-5.815-9.304 0-7.345 5.753-11.874 14.262-11.874a25.742 25.742 0 0 0 15.302-4.224l2.265 7.162c-2.265.918-5.264 1.285-9.365 1.285zm-12.853 7.53c0 3.549 1.958 5.508 4.896 5.508 3.183 0 4.897-1.898 4.897-5.632 0-3.61-1.652-5.264-4.897-5.264-2.999 0-4.896 2.02-4.896 5.387zM186.622 86.66a5.93 5.93 0 1 1-5.958-5.705 5.667 5.667 0 0 1 5.958 5.706zm-10.731 44.132V98.29h9.67v32.502zM205.117 131.832c-7.161-.06-10.65-4.1-10.65-11.752v-15.057h-4.591V98.29h4.59v-7.039l9.672-1.102v8.141h7.467l-1.04 6.733h-6.427v14.935c0 3.122 1.04 4.224 3.06 4.224a6.43 6.43 0 0 0 3.49-1.102l3.243 6.182a16.102 16.102 0 0 1-8.814 2.57zM245.072 125.345l-2.02 6.304c-3.856-.306-6.366-1.469-7.835-4.713-2.326 3.611-5.937 4.896-9.794 4.896-6.488 0-10.589-4.223-10.589-10.16 0-7.1 5.387-10.957 15.241-10.957h3.306v-1.408c0-3.856-1.53-5.019-5.51-5.019a29.263 29.263 0 0 0-8.507 1.715l-2.204-6.367a36.725 36.725 0 0 1 12.242-2.386c9.426 0 13.466 3.978 13.466 11.507v12.609c0 2.51.673 3.428 2.204 3.979zm-11.691-3.55v-5.754h-2.388c-4.407 0-6.549 1.53-6.549 4.774 0 2.57 1.408 4.1 3.795 4.1a5.79 5.79 0 0 0 5.142-3.12zM260.4 124.182a4.602 4.602 0 0 0 1.592-.306l1.897 6.855a17.502 17.502 0 0 1-6.243 1.101c-5.387 0-8.57-3.182-8.57-9.18V85.374l9.672-1.04v37.337c0 1.837.612 2.51 1.652 2.51zM278.803 144.32l-3.244-7.04c4.162-1.897 6.61-3.61 6.61-9.548V98.29h9.671v28.83c0 10.589-5.447 14.445-13.037 17.2zm14.159-57.66a5.93 5.93 0 1 1-5.958-5.705 5.667 5.667 0 0 1 5.958 5.706zM316.21 130.792l-.428-4.1a11.249 11.249 0 0 1-9.855 5.14c-6.06 0-9.059-3.917-9.059-10.221V98.29h9.671v22.097c0 3.305 1.102 4.285 3.122 4.285s3.856-1.348 5.264-3.796V98.29h9.671v32.502zM353.966 101.228l-3.55 5.509a14.319 14.319 0 0 0-7.712-2.57c-2.939 0-4.224.978-4.224 2.448 0 1.713.857 2.448 6.672 4.162 6.427 1.836 10.038 4.53 10.038 10.344 0 6.733-6.365 10.711-14.445 10.711a20.208 20.208 0 0 1-13.589-4.835l4.775-5.325a13.606 13.606 0 0 0 8.508 3.244c3 0 4.774-1.102 4.774-2.999 0-2.265-.98-2.938-6.855-4.591-6.427-1.836-9.61-5.141-9.61-10.16 0-5.57 5.08-9.916 13.282-9.916a18.913 18.913 0 0 1 11.936 3.978zM371.18 131.832c-7.16-.06-10.65-4.1-10.65-11.752v-15.057h-4.59V98.29h4.59v-7.039l9.671-1.102v8.141h7.468l-1.04 6.733H370.2v14.935c0 3.122 1.04 4.224 3.06 4.224a6.429 6.429 0 0 0 3.49-1.102l3.244 6.182a16.102 16.102 0 0 1-8.814 2.57zM392.773 86.66a5.93 5.93 0 1 1-5.958-5.705 5.667 5.667 0 0 1 5.958 5.706zm-10.731 44.132V98.29h9.67v32.502zM422.53 101.228l-4.224 5.815a9.237 9.237 0 0 0-6.121-2.388c-4.163 0-6.55 2.816-6.55 10.1 0 7.223 2.571 9.427 6.427 9.427 2.326 0 3.918-.735 6.06-2.388l4.407 6.182a16.906 16.906 0 0 1-10.956 3.856c-9.978 0-16.099-6.732-16.099-17.016 0-10.344 6.183-17.566 15.915-17.566a16.344 16.344 0 0 1 11.14 3.978zM452.58 117.387H432.44c.674 5.815 3.428 7.407 7.407 7.407 2.632 0 4.958-.918 7.773-2.877l3.979 5.386a19.983 19.983 0 0 1-12.67 4.53c-10.835 0-16.344-6.978-16.344-17.139 0-9.732 5.326-17.444 15.18-17.444 9.304 0 14.997 6.12 14.997 16.648a32.441 32.441 0 0 1-.184 3.49zm-9.305-6.243c-.06-4.407-1.407-7.467-5.264-7.467-3.244 0-5.141 2.08-5.57 7.895h10.834zM102.276 195.014a4.602 4.602 0 0 0 1.591-.307l1.897 6.856a17.502 17.502 0 0 1-6.243 1.101c-5.386 0-8.57-3.182-8.57-9.181v-37.276l9.672-1.04v37.337c0 1.837.612 2.51 1.653 2.51zM138.265 196.177l-2.02 6.304c-3.856-.306-6.365-1.469-7.834-4.713-2.326 3.611-5.938 4.896-9.794 4.896-6.488 0-10.59-4.223-10.59-10.16 0-7.1 5.387-10.957 15.242-10.957h3.305v-1.408c0-3.856-1.53-5.019-5.508-5.019a29.263 29.263 0 0 0-8.509 1.715l-2.203-6.367a36.725 36.725 0 0 1 12.242-2.386c9.426 0 13.466 3.978 13.466 11.507v12.609c0 2.51.673 3.428 2.203 3.979zm-11.69-3.55v-5.754h-2.388c-4.407 0-6.55 1.53-6.55 4.774 0 2.57 1.409 4.101 3.796 4.101a5.79 5.79 0 0 0 5.141-3.122zM173.457 185.403c0 10.04-4.836 17.261-12.915 17.261a10.415 10.415 0 0 1-8.508-4.161l-.49 3.121h-8.57v-45.417l9.672-1.04v17.26a10.783 10.783 0 0 1 8.569-4.345c8.018 0 12.242 6.427 12.242 17.321zm-10.038 0c0-8.263-2.204-10.221-5.203-10.221-2.326 0-4.163 1.408-5.57 3.794v13.528a6.083 6.083 0 0 0 5.141 3.122c3.306 0 5.632-2.633 5.632-10.223z"/></g></g></svg>
