<?xml version="1.0" encoding="UTF-8"?>
<svg xmlns="http://www.w3.org/2000/svg" xmlns:xlink="http://www.w3.org/1999/xlink" width="87px" height="98px" viewBox="0 0 87 98" version="1.1"><title>DWeb-logo</title><g id="+++--favicon" stroke="none" stroke-width="1" fill="none" fill-rule="evenodd"><g id="IPDB-favicon---guide-Copy-3" transform="translate(-339.000000, -314.000000)"><g id="DWeb-logo-original" transform="translate(339.000000, 314.000000)"><path d="M63.844,7.6041 C63.844,9.0641 62.659,10.2491 61.198,10.2491 C59.739,10.2491 58.554,9.0641 58.554,7.6041 C58.554,6.1431 59.739,4.9591 61.198,4.9591 C62.659,4.9591 63.844,6.1431 63.844,7.6041" id="Fill-3" fill="#000000"/><path d="M69.3537,25.2467 C69.3537,29.7507 65.7027,33.4017 61.1987,33.4017 C56.6947,33.4017 53.0437,29.7507 53.0437,25.2467 C53.0437,20.7427 56.6947,17.0917 61.1987,17.0917 C65.7027,17.0917 69.3537,20.7427 69.3537,25.2467" id="Fill-5" fill="##000000"/><path d="M63.4026,42.8898 C63.4026,44.1068 62.4166,45.0938 61.1986,45.0938 C59.9816,45.0938 58.9946,44.1068 58.9946,42.8898 C58.9946,41.6728 59.9816,40.6858 61.1986,40.6858 C62.4166,40.6858 63.4026,41.6728 63.4026,42.8898" id="Fill-7" fill="#000000"/><path d="M64.9455,60.5324 C64.9455,62.6014 63.2675,64.2794 61.1985,64.2794 C59.1295,64.2794 57.4525,62.6014 57.4525,60.5324 C57.4525,58.4634 59.1295,56.7854 61.1985,56.7854 C63.2675,56.7854 64.9455,58.4634 64.9455,60.5324" id="Fill-9" fill="#000000"/><path d="M80.1379,7.6041 C80.1379,8.2121 79.6449,8.7061 79.0359,8.7061 C78.4279,8.7061 77.9339,8.2121 77.9339,7.6041 C77.9339,6.9951 78.4279,6.5021 79.0359,6.5021 C79.6449,6.5021 80.1379,6.9951 80.1379,7.6041" id="Fill-11" fill="#000000"/><path d="M47.9514,7.6041 C47.9514,10.1601 45.8794,12.2321 43.3224,12.2321 C40.7664,12.2321 38.6944,10.1601 38.6944,7.6041 C38.6944,5.0481 40.7664,2.9761 43.3224,2.9761 C45.8794,2.9761 47.9514,5.0481 47.9514,7.6041" id="Fill-13" fill="#000000"/><path d="M45.5266,25.2467 C45.5266,26.4637 44.5406,27.4507 43.3226,27.4507 C42.1056,27.4507 41.1186,26.4637 41.1186,25.2467 C41.1186,24.0297 42.1056,23.0427 43.3226,23.0427 C44.5406,23.0427 45.5266,24.0297 45.5266,25.2467" id="Fill-15" fill="#000000"/><path d="M44.425,42.8898 C44.425,43.4978 43.931,43.9918 43.322,43.9918 C42.714,43.9918 42.221,43.4978 42.221,42.8898 C42.221,42.2808 42.714,41.7878 43.322,41.7878 C43.931,41.7878 44.425,42.2808 44.425,42.8898" id="Fill-17" fill="#000000"/><path d="M44.425,60.5324 C44.425,61.1414 43.931,61.6344 43.322,61.6344 C42.714,61.6344 42.221,61.1414 42.221,60.5324 C42.221,59.9244 42.714,59.4304 43.322,59.4304 C43.931,59.4304 44.425,59.9244 44.425,60.5324" id="Fill-19" fill="#000000"/><path d="M31.4309,7.6041 C31.4309,10.8911 28.7669,13.5551 25.4809,13.5551 C22.1939,13.5551 19.5299,10.8911 19.5299,7.6041 C19.5299,4.3171 22.1939,1.6531 25.4809,1.6531 C28.7669,1.6531 31.4309,4.3171 31.4309,7.6041" id="Fill-21" fill="#000000"/><path d="M30.3293,25.2467 C30.3293,27.9247 28.1583,30.0957 25.4803,30.0957 C22.8023,30.0957 20.6313,27.9247 20.6313,25.2467 C20.6313,22.5687 22.8023,20.3977 25.4803,20.3977 C28.1583,20.3977 30.3293,22.5687 30.3293,25.2467" id="Fill-23" fill="#000000"/><path d="M28.1252,42.8898 C28.1252,44.3498 26.9402,45.5348 25.4802,45.5348 C24.0202,45.5348 22.8352,44.3498 22.8352,42.8898 C22.8352,41.4288 24.0202,40.2448 25.4802,40.2448 C26.9402,40.2448 28.1252,41.4288 28.1252,42.8898" id="Fill-25" fill="#000000"/><path d="M30.1086,60.5324 C30.1086,63.0884 28.0366,65.1604 25.4806,65.1604 C22.9236,65.1604 20.8516,63.0884 20.8516,60.5324 C20.8516,57.9764 22.9236,55.9044 25.4806,55.9044 C28.0366,55.9044 30.1086,57.9764 30.1086,60.5324" id="Fill-27" fill="#000000"/><path d="M33.635,78.1749 C33.635,82.6789 29.985,86.3299 25.481,86.3299 C20.977,86.3299 17.325,82.6789 17.325,78.1749 C17.325,73.6709 20.977,70.0199 25.481,70.0199 C29.985,70.0199 33.635,73.6709 33.635,78.1749" id="Fill-29" fill="#000000"/><path d="M27.6848,95.818 C27.6848,97.035 26.6978,98.022 25.4808,98.022 C24.2628,98.022 23.2768,97.035 23.2768,95.818 C23.2768,94.601 24.2628,93.614 25.4808,93.614 C26.6978,93.614 27.6848,94.601 27.6848,95.818" id="Fill-31" fill="#000000"/><path d="M15.2082,7.6041 C15.2082,11.8041 11.8042,15.2081 7.6042,15.2081 C3.4042,15.2081 0.0002,11.8041 0.0002,7.6041 C0.0002,3.4041 3.4042,0.0001 7.6042,0.0001 C11.8042,0.0001 15.2082,3.4041 15.2082,7.6041" id="Fill-33" fill="#000000"/><path d="M12.343,25.2467 C12.343,27.8637 10.221,29.9857 7.604,29.9857 C4.987,29.9857 2.865,27.8637 2.865,25.2467 C2.865,22.6297 4.987,20.5077 7.604,20.5077 C10.221,20.5077 12.343,22.6297 12.343,25.2467" id="Fill-35" fill="#000000"/><path d="M12.2326,42.8898 C12.2326,45.4458 10.1606,47.5178 7.6036,47.5178 C5.0476,47.5178 2.9756,45.4458 2.9756,42.8898 C2.9756,40.3328 5.0476,38.2608 7.6036,38.2608 C10.1606,38.2608 12.2326,40.3328 12.2326,42.8898" id="Fill-37" fill="#000000"/><path d="M11.7922,60.5324 C11.7922,62.8454 9.9172,64.7204 7.6042,64.7204 C5.2912,64.7204 3.4162,62.8454 3.4162,60.5324 C3.4162,58.2194 5.2912,56.3454 7.6042,56.3454 C9.9172,56.3454 11.7922,58.2194 11.7922,60.5324" id="Fill-39" fill="#000000"/><path d="M11.3508,78.1749 C11.3508,80.2449 9.6728,81.9219 7.6038,81.9219 C5.5348,81.9219 3.8568,80.2449 3.8568,78.1749 C3.8568,76.1059 5.5348,74.4279 7.6038,74.4279 C9.6728,74.4279 11.3508,76.1059 11.3508,78.1749" id="Fill-41" fill="#000000"/><path d="M9.8078,95.818 C9.8078,97.035 8.8218,98.022 7.6038,98.022 C6.3868,98.022 5.3998,97.035 5.3998,95.818 C5.3998,94.601 6.3868,93.614 7.6038,93.614 C8.8218,93.614 9.8078,94.601 9.8078,95.818" id="Fill-43" fill="#000000"/><path d="M81.2404,25.2467 C81.2404,26.4637 80.2534,27.4507 79.0364,27.4507 C77.8184,27.4507 76.8324,26.4637 76.8324,25.2467 C76.8324,24.0297 77.8184,23.0427 79.0364,23.0427 C80.2534,23.0427 81.2404,24.0297 81.2404,25.2467" id="Fill-45" fill="#000000"/><path d="M86.3098,42.8898 C86.3098,46.9068 83.0528,50.1628 79.0368,50.1628 C75.0188,50.1628 71.7628,46.9068 71.7628,42.8898 C71.7628,38.8728 75.0188,35.6168 79.0368,35.6168 C83.0528,35.6168 86.3098,38.8728 86.3098,42.8898" id="Fill-47" fill="#000000"/><path d="M83.885,60.5324 C83.885,63.2104 81.714,65.3814 79.036,65.3814 C76.359,65.3814 74.188,63.2104 74.188,60.5324 C74.188,57.8544 76.359,55.6834 79.036,55.6834 C81.714,55.6834 83.885,57.8544 83.885,60.5324" id="Fill-49" fill="#000000"/><polygon id="Fill-53" fill="#000000" points="85.6428 96.0773 85.6428 95.5483 40.4798 95.5483 40.4798 72.2443 85.1148 72.2443 85.1148 96.0773 85.6428 96.0773 85.6428 95.5483 85.6428 96.0773 86.1718 96.0773 86.1718 71.1863 39.4218 71.1863 39.4218 96.6063 86.1718 96.6063 86.1718 96.0773"/><path d="M73.0217,83.0861 C72.5487,83.6671 72.2827,84.4931 72.2827,85.4691 C72.2827,86.4461 72.5487,87.2771 73.0217,87.8621 C73.4957,88.4471 74.1727,88.7891 75.0107,88.7891 C75.9217,88.7891 76.6447,88.4681 77.1437,87.8951 C77.6427,87.3211 77.9177,86.4911 77.9177,85.4691 C77.9177,84.4481 77.6427,83.6231 77.1437,83.0541 C76.6447,82.4851 75.9217,82.1691 75.0107,82.1681 C74.1727,82.1691 73.4947,82.5061 73.0217,83.0861 L73.0217,83.0861 Z M79.5397,85.4691 C79.5397,86.9561 79.1477,88.1691 78.4167,89.0111 C77.6857,89.8541 76.6167,90.3211014 75.2797,90.3211014 C73.9007,90.3221 72.9987,89.7771 72.4317,88.9541 L72.0867,90.2321 L70.8397,90.2321 L70.8397,77.4721 L72.4127,77.4721 L72.4607,77.4721 L72.4607,81.9621 C73.0297,81.1771 73.9227,80.6351 75.2797,80.6361 C76.5897,80.6361 77.6587,81.0981 78.3957,81.9361 C79.1337,82.7741 79.5397,83.9821 79.5397,85.4691 L79.5397,85.4691 Z M60.9237,84.5601 L66.4117,84.5601 C66.3997,83.9191 66.1617,83.3241 65.7247,82.8861 C65.2777,82.4371 64.6247,82.1501 63.7927,82.1501 C62.8567,82.1501 62.1397,82.5071 61.6557,82.9931 C61.1867,83.4641 60.9397,84.0571 60.9237,84.5601 L60.9237,84.5601 Z M66.8747,81.9161 C67.5717,82.7151 67.9457,83.8301 67.9457,85.0931 C67.9457,85.6891 67.8737,85.9091 67.8717,85.9161 L67.8597,85.9491 L60.8167,85.9491 C60.8287,86.5621 61.0647,87.2721 61.5457,87.8321 C62.0397,88.4061 62.7857,88.8241 63.8117,88.8251 C64.9757,88.8251 66.0007,88.2251 66.6377,87.3221 L66.6647,87.2851 L67.8357,88.0151 L67.8147,88.0551 C67.1247,89.3441 65.6027,90.3201 63.8117,90.3211 C62.4487,90.3211 61.3087,89.8821 60.5117,89.0561 C59.7147,88.2301 59.2637,87.0201 59.2637,85.4871 C59.2637,83.9991 59.7517,82.7841 60.5757,81.9431 C61.3977,81.1021 62.5537,80.6361 63.8827,80.6361 C65.1587,80.6361 66.1767,81.1171 66.8747,81.9161 L66.8747,81.9161 Z M56.0257,77.5001 L57.6677,77.5001 L55.7707,90.2321 L54.6707,90.2321 L53.9707,90.2321 L52.3587,84.4611 L52.3417,84.4611 L52.3257,84.4611 L50.7117,90.2321 L50.0117,90.2321 L48.9557,90.2321 L48.9127,90.2321 L47.0167,77.5001 L48.6577,77.5001 L50.0197,87.7141 L50.0287,87.7141 L51.6407,81.6221 L52.3417,81.6221 L53.0427,81.6221 L54.6557,87.7141 L54.6637,87.7141 L56.0257,77.5001 Z" id="Fill-54" fill="#000000 "/><path d="M83.885,60.5324 C83.885,63.2104 81.714,65.3814 79.036,65.3814 C76.359,65.3814 74.188,63.2104 74.188,60.5324 C74.188,57.8544 76.359,55.6834 79.036,55.6834 C81.714,55.6834 83.885,57.8544 83.885,60.5324" id="Fill-55" fill="#000000"/></g></g></g></svg>