<svg xmlns="http://www.w3.org/2000/svg" width="87" height="98"><g fill="none" fill-rule="evenodd"><path fill="#000" d="M63.844 7.604a2.646 2.646 0 0 1-5.29 0 2.645 2.645 0 0 1 5.29 0"/><path fill="##000000" d="M69.354 25.247a8.155 8.155 0 1 1-16.31 0 8.155 8.155 0 0 1 16.31 0"/><path fill="#000" d="M63.403 42.89a2.204 2.204 0 1 1-4.408 0 2.204 2.204 0 0 1 4.408 0M64.945 60.532a3.748 3.748 0 1 1-7.495 0 3.748 3.748 0 0 1 7.495 0M80.138 7.604a1.102 1.102 0 1 1-2.204 0 1.102 1.102 0 0 1 2.204 0M47.951 7.604a4.628 4.628 0 1 1-9.256 0 4.628 4.628 0 0 1 9.256 0M45.527 25.247a2.204 2.204 0 1 1-4.408 0 2.204 2.204 0 0 1 4.408 0M44.425 42.89a1.103 1.103 0 1 1-2.206-.002 1.103 1.103 0 0 1 2.206.002M44.425 60.532a1.102 1.102 0 1 1-2.205 0 1.102 1.102 0 0 1 2.205 0M31.43 7.604a5.95 5.95 0 1 1-11.9 0 5.95 5.95 0 1 1 11.9 0M30.33 25.247a4.849 4.849 0 1 1-9.699 0 4.849 4.849 0 0 1 9.698 0M28.125 42.89a2.646 2.646 0 0 1-5.29 0 2.645 2.645 0 0 1 5.29 0M30.109 60.532a4.628 4.628 0 1 1-9.256 0 4.628 4.628 0 0 1 9.256 0M33.635 78.175a8.156 8.156 0 1 1-16.309-.001 8.156 8.156 0 0 1 16.309 0M27.685 95.818a2.204 2.204 0 1 1-4.409 0 2.204 2.204 0 0 1 4.409 0M15.208 7.604c0 4.2-3.404 7.604-7.604 7.604A7.603 7.603 0 0 1 0 7.604C0 3.404 3.404 0 7.604 0s7.604 3.404 7.604 7.604M12.343 25.247a4.74 4.74 0 1 1-9.479-.001 4.74 4.74 0 0 1 9.479 0M12.233 42.89a4.628 4.628 0 1 1-9.257 0 4.628 4.628 0 0 1 9.257 0M11.792 60.532a4.188 4.188 0 1 1-8.376 0 4.188 4.188 0 0 1 8.376 0M11.35 78.175a3.747 3.747 0 1 1-7.493 0 3.747 3.747 0 0 1 7.494 0M9.808 95.818a2.204 2.204 0 1 1-4.408 0 2.204 2.204 0 0 1 4.408 0M81.24 25.247a2.204 2.204 0 1 1-4.408 0 2.204 2.204 0 0 1 4.408 0M86.31 42.89a7.273 7.273 0 1 1-14.547 0 7.273 7.273 0 0 1 14.547 0M83.885 60.532a4.849 4.849 0 1 1-9.698 0 4.849 4.849 0 0 1 9.698 0M85.643 96.077v-.529H40.48V72.244h44.635v23.833zv-.529zh.529V71.185h-46.75v25.42h46.75v-.529z"/><path fill="#000" d="M73.022 83.086c-.473.581-.74 1.407-.74 2.383 0 .977.267 1.808.74 2.393.474.585 1.15.927 1.989.927.91 0 1.634-.32 2.133-.894s.774-1.404.774-2.426c0-1.02-.275-1.846-.774-2.415-.5-.569-1.222-.885-2.133-.886-.838.001-1.516.338-1.99.918m6.518 2.383c0 1.487-.392 2.7-1.123 3.542-.731.843-1.8 1.31-3.137 1.31-1.38.001-2.281-.544-2.848-1.367l-.345 1.278H70.84v-12.76h1.621v4.49c.569-.785 1.462-1.327 2.819-1.326 1.31 0 2.379.462 3.116 1.3s1.144 2.046 1.144 3.533m-18.616-.909h5.488a2.4 2.4 0 0 0-.687-1.674c-.447-.449-1.1-.736-1.932-.736-.936 0-1.653.357-2.137.843-.47.471-.716 1.064-.732 1.567m5.95-2.644c.698.8 1.072 1.914 1.072 3.177 0 .596-.072.816-.074.823l-.012.033h-7.043c.012.613.248 1.323.729 1.883.494.574 1.24.992 2.266.993 1.164 0 2.189-.6 2.826-1.503l.027-.037 1.17.73-.02.04c-.69 1.29-2.212 2.265-4.003 2.266-1.363 0-2.503-.439-3.3-1.265s-1.248-2.036-1.248-3.569c0-1.488.488-2.703 1.312-3.544.822-.84 1.978-1.307 3.307-1.307 1.276 0 2.294.481 2.992 1.28M56.027 77.5h1.642L55.77 90.232h-1.8l-1.612-5.77h-.033l-1.614 5.77h-1.799L47.017 77.5h1.64l1.363 10.214h.009l1.612-6.092h1.402l1.613 6.092h.008zM83.885 60.532a4.849 4.849 0 1 1-9.698 0 4.849 4.849 0 0 1 9.698 0"/></g></svg>