<svg xmlns="http://www.w3.org/2000/svg" class="logo" viewBox="0 0 421.48 112.21"><g data-name="Layer 2"><path d="M171.45 27.81c0 15.66-11.18 26.85-27.21 26.85s-27.6-11.26-27.6-26.85S128.2 1 144.24 1c12.9 0 23.86 8.2 26.17 19.46h-15.88a11.17 11.17 0 00-10.22-6.34c-7.08 0-12.15 5.74-12.15 13.65s5.07 13.64 12.15 13.64c4.77 0 8.8-2.46 10.37-6.11h-10.37V24h27c.07 1 .14 2.54.14 3.81zm35.95 17.38h-17.3l-2.61 8.72h-16.41l18.42-52.2H208l18.42 52.2H210zm-3-9.92l-5.67-18.72-5.66 18.72zm87.7-33.56v52.2h-15.21V21.32l-8.95 32.59h-12.82l-9-32.59v32.59H231V1.71h22L261.53 33l8.58-31.25zm69.5 0v52.2h-15.21V21.32l-8.95 32.59h-12.82l-8.95-32.59v32.59h-15.22V1.71h22L331 33l8.6-31.29zm40.86 43.48h-17.3l-2.61 8.72h-16.4l18.42-52.2h18.49l18.42 52.2h-16.41zm-3-9.92l-5.67-18.72-5.66 18.72zm-217.9 41.21h-14.77c0-3.51-2.61-6-6.49-6-3.05 0-5.44 1.56-5.44 3.88 0 8 28.34 1 28.34 20.5 0 10.67-9.62 17-22.9 17-12.82 0-22-7-22.22-18.34h15.29c0 3.5 3.13 6 7.68 6 3.73 0 6.64-1.64 6.64-4 0-7.53-28.34-1-28.34-20.2 0-10.52 9-17.16 21.33-17.16 11.93-.03 20.88 7.58 20.88 18.32zm52.49.89c0 10.67-8 18.42-18.94 18.42H205v15.29h-15.17v-52.2h25.28c10.96 0 18.94 7.76 18.94 18.49zm-15.51.23a5.06 5.06 0 00-5.14-5.3H205V83h8.36a5.21 5.21 0 005.18-5.4zM267 102.35h-17.3l-2.61 8.73H230.7l18.41-52.2h18.5l18.39 52.2h-16.38zm-3-9.91l-5.67-18.72-5.67 18.72zm49.24 19.38c-16 0-27.59-11.26-27.59-26.84s11.56-26.85 27.59-26.85c14.54 0 25.51 9.25 27.15 22.67H324.8a11.56 11.56 0 00-11.56-8.72c-7.08 0-12.08 5.37-12.08 12.82s5 13 12.08 13a11.69 11.69 0 0011.56-8.72h15.59c-1.64 13.32-12.61 22.64-27.15 22.64zm48.99-39.52v6.19h21.33v12.83h-21.33v6.34h22.82v13.42H347v-52.2h38V72.3zM26.37 112.21L64 70.96l-49.68 41.25h12.05zm-4.91-62.69L64 70.96 23.13 44.69l-1.67 4.83zm22.27 62.69L64 70.96l-27.65 41.25h7.38zM17.39 61.28L64 70.96 19 56.62l-1.61 4.66zM7.58 89.65L64 70.96 9.43 84.31l-1.85 5.34zm5.43-15.71L64 70.96l-49.12-2.42-1.87 5.4zM0 111.57l64-40.61-60.98 31.89L0 111.57zm54.81.64L64 70.96l-12.95 41.25h3.76zm56.45 0L64 70.96l40.05 41.25h7.21zm-17.47 0L64 70.96l19.28 41.25h10.51zm-26.54 0L64 70.96l-3.25 41.25h6.5zm9.8 0L64 70.96l9.39 41.25h3.66zm31.97-55.72L64 70.96l46.55-10.05-1.53-4.42zm-9.29-26.96L64 70.96l38.55-33.25-2.82-8.18zm5.35 15.51L64 70.96l42.87-20.72-1.79-5.2zm8.09 23.5L64 70.96l50.87 2.5-1.7-4.92zM64 70.96l63.97 41.25h.25l-3.46-10.05L64 70.96zm54.03 11.66L64 70.96l56.24 18.07-2.21-6.41zM60.51 0L64 70.96 67.91 0h-7.4zM93.7 12.04L64 70.96l32.46-50.93-2.76-7.99zm-62.52 9.37L64 70.96 34.52 11.78l-3.34 9.63zM38.9 0L64 70.96 50.19 0H38.9zm40.42 0L64 70.96 86.81 0h-7.49zM25.97 36.49L64 70.96l-36.16-39.9-1.87 5.43z" data-name="Layer 1"/></g></svg>