<svg xmlns="http://www.w3.org/2000/svg" width="1000" height="158.741" viewBox="81.207 78.333 1000 158.741"><path d="M563.191 78.464v20.849H461.498v41.044h90.318v20.602h-90.318v74.172h-20.852V78.464h122.545zm141.908 97.159c0 1.682-.46 41.17-40.289 41.17-37.069 0-40.208-31.523-40.288-41.17V78.464H603.67v97.159c0 28.348 16.014 61.451 61.14 61.451 45.124 0 61.139-33.105 61.139-61.451V78.464h-20.85v97.159zm161.856-.252l36.701 59.758h-25.139l-35.195-57.623h-40.1v57.623h-20.846V78.467h67.112c38.289 0 55.43 24.873 55.43 49.521.002 35.336-28.078 45.058-37.963 47.383zm-17.465-18.712c15.783 0 34.595-4.975 34.595-28.672 0-25.116-21.673-28.867-34.595-28.867h-46.268v57.539h46.268zM354.753 78.464v124.504h-4.552L276.623 78.464h-26.978v156.665h20.848V114.562h4.55l70.246 120.566h30.309V78.464h-20.845zm-273.546 0v19.339h46.298v117.992H81.207v19.334h113.441v-19.334h-46.296V97.803h46.296V78.464H81.207zm1000 156.664h-21.917l-17.178-47.479h-60.649l-17.154 47.479h-21.914l56.919-156.795h24.979l56.914 156.795zm-46.431-67.763l-20.52-56.717h-4.975l-20.492 56.717h45.987z"/></svg>