<svg version="1.0" xmlns="http://www.w3.org/2000/svg" width="312" height="276" viewBox="0 0 234 207"><path d="M0 103.5V207h234V0H0v103.5zm89-83V30h19v19h19V30h19V11h36.9l.3 9.2.3 9.3 9.2.3 9.2.3.3 9.2.3 9.2 9.3.3 9.2.3V104h-19v18.9l-9.2.3-9.3.3-.3 9.3-.3 9.2H165v18h-19v19h-19v19h-19v-19H89v-19H70v-18H52.1l-.3-9.3-.3-9.2-9.2-.3-9.3-.3V104H14V49.1l9.2-.3 9.3-.3.3-9.2.3-9.2 9.2-.3 9.2-.3.3-9.3.3-9.2H89v9.5z"/><path d="M60 74.9c0 2.1.5 3.1 1.5 3.1 1.2 0 1.5 1.6 1.5 8.4 0 6.5-.3 8.5-1.5 9-.8.3-1.5 1.7-1.5 3.1 0 2.5.2 2.6 5.7 2.3 4.8-.2 5.8-.6 6.1-2.2.3-1.1-.3-2.5-1.3-3.2-1.2-.9-1.5-2.4-1.3-5.4l.3-4.3 3.4 6.1c4.2 7.4 5.6 8.2 7.9 4.1.9-1.6 2.6-4.5 3.7-6.2l2-3.2.3 3.9c.2 2.8-.1 4.2-1.2 4.8-.9.5-1.6 2-1.6 3.4 0 2.4.2 2.5 5.8 2.2 5-.3 5.7-.6 6-2.6.2-1.3-.3-2.5-1.2-2.8-2.3-.9-2.4-17.4-.1-17.4 1 0 1.5-1 1.5-3.1 0-2.9-.1-3-4.2-2.7-4.2.3-4.3.4-8.9 8.7l-4.7 8.3-4.9-8.3c-4.8-8.2-4.9-8.4-9.1-8.7-4.1-.3-4.2-.2-4.2 2.7z"/><path d="M105.3 73.5c-8.5 3.7-10.4 16.9-3.4 23.8 2.4 2.4 4 3.1 8.4 3.5 9.7.8 15.7-4.6 15.7-14.3 0-11.3-10.1-17.6-20.7-13zm11.9 6.2c4.1 4.7 2.8 13.4-2.3 15.2-4.5 1.5-8.5-.3-9.9-4.5-2.3-6.8.9-12.4 7-12.4 2.3 0 4.3.7 5.2 1.7zM133.5 73.2c-3.2 1.7-4.5 3.9-4.5 7.5 0 3.3 2.8 7.3 5.3 7.3.6 0 2.9.5 5 1.1 2.9.8 3.7 1.5 3.7 3.4 0 4.2-7.2 4.6-8.3.5-.3-1.4-1.4-2-3.1-2-2.3 0-2.6.4-2.6 3.8 0 4.7 2.5 6.2 10.1 6.2 4.2 0 5.5-.5 8-2.9 5.6-5.7 3.2-12-5.6-14.6-4.3-1.2-5.5-2-5.5-3.5 0-2.9 6.5-2.9 7.3 0 .6 2.4 4.5 2.7 5.3.5 1.2-3-.5-6.3-3.7-7.4-4-1.4-8.8-1.4-11.4.1zM157.5 73.2c-3.2 1.7-4.5 3.9-4.5 7.5 0 4.2 2.6 6.8 7.6 7.8 2.2.4 4.5 1.1 5.2 1.7 1.8 1.6 1.5 4.6-.7 5.3-3.1 1-7.1-.5-7.1-2.6 0-1.4-.7-1.9-2.5-1.9-2.2 0-2.5.4-2.5 3.8 0 4.7 2.5 6.2 10.1 6.2 4.2 0 5.5-.5 8-2.9 5.6-5.7 3.2-12-5.6-14.6-4.3-1.2-5.5-2-5.5-3.5 0-2.9 6.5-2.9 7.3 0 .5 2 4.1 2.8 5.1 1.1.3-.5.3-2.3 0-3.9-.5-2.3-1.4-3.4-3.7-4.1-3.8-1.4-8.6-1.3-11.2.1z"/></svg>