<svg id="Layer_1" data-name="Layer 1" xmlns="http://www.w3.org/2000/svg" viewBox="0 10 676 300"><defs><style>.cls-4{fill:#ec325a}.cls-7{opacity:.1;isolation:isolate}</style></defs><path d="M422.24 179.78a1.61 1.61 0 01-1.62 1.62h-8.37a1.61 1.61 0 01-1.62-1.62v-12.69a25.43 25.43 0 01-9.72 1.62c-6.84 0-16.29-4.59-16.29-21 0-18.81 7.47-24.39 18.54-24.39 5.76 0 19.08 2.25 19.08 4.32zm-11.61-45.27a31.77 31.77 0 00-6.3-1c-3.51 0-7.65 1.53-7.92 6.93 0 0-.18 3.15-.18 5.85s.18 5.4.18 5.4c.27 5.4 4.32 6.84 7.92 6.84a29.36 29.36 0 006.3-1.08zM452.3 133.52c-6.3 0-7.29 1.89-7.29 1.89v31a1.61 1.61 0 01-1.62 1.62H435a1.61 1.61 0 01-1.62-1.62v-38.7c0-1.62 7.65-4.32 17.55-4.32a33.69 33.69 0 015.85.54c.63.27 1.08.63 1.08 1.35v7.56c0 .63-.27 1.17-1 1.17a28.11 28.11 0 00-4.56-.49zM466 115.07c0-4.5 2.7-5.67 6.12-5.67s6.3 1.17 6.3 5.67c0 4.14-2.88 5.58-6.3 5.58s-6.12-1.44-6.12-5.58zm12 51.3a1.61 1.61 0 01-1.62 1.62H468a1.61 1.61 0 01-1.62-1.62v-40.68a1.61 1.61 0 011.62-1.62h8.37a1.61 1.61 0 011.62 1.62zM493.79 155.75a6.48 6.48 0 010 13 6.48 6.48 0 010-13zM509.27 115.07c0-4.5 2.7-5.67 6.12-5.67s6.3 1.17 6.3 5.67c0 4.14-2.88 5.58-6.3 5.58s-6.12-1.44-6.12-5.58zm12 51.3a1.61 1.61 0 01-1.62 1.62h-8.37a1.61 1.61 0 01-1.62-1.62v-40.68a1.61 1.61 0 011.62-1.62h8.37a1.61 1.61 0 011.62 1.62zM567.86 143.24v5.58c0 15.12-8.19 19.89-18.18 19.89s-18.18-4.77-18.18-19.89v-5.58c0-15.12 8.19-19.89 18.18-19.89s18.18 4.77 18.18 19.89zm-11.61 8.55v-11.52a6.57 6.57 0 10-13.14 0v11.52a6.57 6.57 0 1013.14 0z"/><path d="M345.41 142.75c0-25.45-10.43-37.48-19.47-47s-19.12-13.65-33.63-18.11S267.2 62 262.08 57.7a51.25 51.25 0 00-14-8.2c-4.17-1.72-13.15-4.44-25.45-1.36a38.42 38.42 0 00-14.89 7.36A61.18 61.18 0 00182 49.17c-16.54-.49-24.69 3.75-24.69 3.75S148 43.93 138.71 39s-32.16-7.59-45.09 9S81 87.51 95.4 99.92s18.24 11.64 18.49 19.89-2.27 21.39-12.41 30.89-18.39 21.23-17.4 40 11 29.16 24 38.54c11.47 8.32 42.62 9.55 57.86-6.88 1.66 4.55 2.54 9-.59 12.33-8.25 8.07-11.69 30.6 4.64 42.62 18.05 12.89 38.84-.68 41.76-8.41 2.76-5.68 11.17-8.07 18.91-8.07 37.27.15 60-32.5 60.33-61.43 33.42-3.55 54.72-28.2 54.42-56.65z" fill="#fff"/><path d="M225.52 137.47a59.26 59.26 0 00-54.63 82.17h-.08c.23.48.54 1.08.86 1.74.18.37.33.73.5 1.09 1.4 3.26 2.58 8-1.2 13.27a21.51 21.51 0 00-1.76 2.18l-.16.21a24 24 0 1040.69 25.4 6.55 6.55 0 00.4-.58c4.19-6.75 10.5-6.94 14.15-7h1.26a59.24 59.24 0 000-118.48z" fill="#fdc503"/><path d="M338.87 141.68a59.61 59.61 0 00-46.49-58.13 75.49 75.49 0 01-17.13-8.31c-10.63-6.87-15.89-14-21.74-17.06A36.52 36.52 0 00208 64.47c.54.54 2.15 2.14 4.59 4.46 3 2.84 11.51 9.79 16.68 29.17s-12 48.61-12 48.61c5.77-1.51 19.92 2.83 25.87 5.47 23.25 10.34 35.76 26.94 39.66 35.75a11.79 11.79 0 012 5.66c30.2-2.18 54.07-20.97 54.07-51.91z" fill="#45d7f8"/><path class="cls-4" d="M92.13 86.44c-.23-.59-.44-1.2-.65-1.82.21.62.4 1.23.65 1.82zM90.35 80.42zM91.1 83.48c-.19-.63-.33-1.28-.48-1.94.15.66.29 1.31.48 1.94zM95 92c-.34-.54-.65-1.09-.95-1.65.24.51.57 1.06.95 1.65zM96.72 94.47c-.38-.5-.75-1-1.11-1.55.39.52.73 1.08 1.11 1.55zM89.89 77.24c-.09-1.07-.15-2.16-.15-3.25a27 27 0 00.15 3.25zM93.41 89.27c-.28-.57-.55-1.15-.8-1.74.27.59.52 1.17.8 1.74zM107.73 103.74a33.09 33.09 0 01-5.29-3.44 35.52 35.52 0 005.29 3.44zM98.71 96.8c-.44-.46-.84-1-1.24-1.43.4.5.8.97 1.24 1.43zM118.86 121.55c0 .28 0 .59.08.88 0-.29-.06-.6-.08-.88z"/><path d="M209.86 63c.82.48 1.62 1 2.43 1.49a12.4 12.4 0 00-2.43-1.49z" fill="#4fc7f3"/><path class="cls-4" d="M97.45 95.37c-.25-.31-.5-.59-.73-.9.28.31.5.59.73.9zM95.61 92.92c-.21-.32-.44-.63-.65-1 .21.35.42.68.65 1zM90 78.24c0-.35-.12-.67-.14-1 .05.35.14.67.14 1zM94 90.3l-.58-1zM90.62 81.54c-.09-.38-.19-.74-.27-1.14.08.4.18.76.27 1.14zM98.71 96.8c.11.12.19.25.3.37a10.21 10.21 0 003.41 3.11 31.85 31.85 0 01-3.71-3.48zM91.48 84.62c-.13-.38-.27-.74-.38-1.12.11.36.27.74.38 1.12zM92.61 87.53c-.15-.36-.33-.73-.48-1.09.15.36.33.73.48 1.09z"/><path d="M230.2 96.13c-3.69-13.84-11.78-27.4-16.84-30.76-.37-.35-.71-.63-1.05-.9-.81-.52-1.61-1-2.43-1.49l-.25-.12-.15-.11a60.89 60.89 0 00-53.25-3.37c-.39-.36-3.18-3.09-4.5-4.66-.93-1.11-3.27-3.27-4.74-4.61A33.62 33.62 0 0089.7 74c0 1.09.06 2.18.16 3.25 0 .35.09.67.13 1 .1.72.19 1.45.32 2.16.08.38.2.76.27 1.14.16.66.29 1.31.48 1.94.12.38.25.76.38 1.12.21.62.4 1.23.65 1.82.16.36.33.73.48 1.09.27.59.52 1.17.8 1.74.18.34.39.69.58 1 .3.56.63 1.11 1 1.65l.65 1c.37.54.73 1 1.11 1.55.23.31.48.61.73.9.4.5.82 1 1.24 1.43a35.47 35.47 0 003.75 3.5 33.48 33.48 0 005.3 3.45h.07c10.35 7.36 10.23 12 11 17.42v.35c0 .28 0 .59.08.88-.25 15.35-8.81 26.48-13.8 30.72a1.53 1.53 0 00-.18.18 43 43 0 1063 57.74c-.16-.75-.31-1.49-.44-2.24-2.3-13-.48-26.38 6.73-35.5 7.61-9.66 26-15.84 34.78-21.34 2.48-1.48 4.26-2.53 5.77-3.54a27.34 27.34 0 004.59-3.86 39.12 39.12 0 005.36-7.08c7.39-12.2 8.92-28.54 5.51-41.34z" fill="#ff0b3d"/><path d="M266.93 128.41c-2.79 0-5-1.93-5-4.32v-11.26c0-2.39 2.25-4.32 5-4.32s5 1.93 5 4.32v11.26c.07 2.37-2.2 4.32-5 4.32zM308.69 129c-2.79 0-5-1.94-5-4.33v-11.31c0-2.39 2.26-4.32 5-4.32s5 1.93 5 4.32v11.26c.03 2.38-2.22 4.38-5 4.38zM208.25 189.23c-2.79 0-5-1.93-5-4.32v-11.26c0-2.39 2.26-4.32 5-4.32s5 1.93 5 4.32v11.26c.03 2.39-2.25 4.32-5 4.32zM250 189.77c-2.79 0-5-1.93-5-4.32v-11.26c0-2.39 2.26-4.33 5-4.33s5 1.94 5 4.33v11.26c0 2.39-2.22 4.32-5 4.32zM170 114.18c-2.79 0-5-1.93-5-4.32V98.6c0-2.39 2.26-4.32 5-4.32s5 1.93 5 4.32v11.26c0 2.37-2.22 4.32-5 4.32zM211.75 114.72c-2.79 0-5-1.93-5-4.32V99.14c0-2.39 2.26-4.33 5-4.33s5 1.94 5 4.33v11.26c.05 2.37-2.21 4.32-5 4.32z"/><path class="cls-7" d="M220.05 73.06s-7.88-13.22-.54-16.81c0 0-6.1 2.31-9.92 6.63.02-.02 5.12 3.12 10.46 10.18zM229.8 94.7c.36 5 3.46 8.45 5 18.15 3.16 24.76 32.2 48.41 37 59.31-11.8-11.61-21.88-16.89-19.59-15.16 0 0-11.38-7.48-23.12-9.26s-15.47 2.49-27.21 8.19c-11.74 5.87-35.75 12.44-35.39 42.33 1.42 21.34 1.51 12.89 1.51 12.89s-12.54 18-34.95 17.88-36.46-16.1-40.29-28c0 0 21 24.9 47.67 10.67s22.14-26.94 21.78-30.86c-.9-9.25-19-15.12-15.66-21s4.8-3.56 36.46-8.53S233 118.89 229.8 94.7zM284.75 193.69c-.7-4.09-4.62-12.89-9.59-17.52 0 0 18.14 34.69-29.53 62.8-45.71 25.08-72.75-14.59-72.75-14.59a11.66 11.66 0 01-1.88 11.2c2.11-.28 18.23 8.76 25.53 17.31 1.68 2 5.51 10.25-2.41 13.42-7.76 3.4-20.9 3.59-25.39-.94h-.08a24 24 0 0041.06-1.64c.13-.17.26-.36.4-.57 4.18-6.75 10.49-6.95 14.15-7h1.26a59.23 59.23 0 0059.08-55.05zM156.24 59.4s-7.47 3.92-10.67 6.14 6.75-10.32 2.15-14.76c3.11 3.1 8.52 8.62 8.52 8.62z"/></svg>