<svg width="226" height="48" fill="none" xmlns="http://www.w3.org/2000/svg"><path d="M87.35 20.855V.495h8.684v46.551H87.35v-2.629c-.244.119-.343.14-.407.201-3.257 3.03-7.139 3.791-11.32 2.774-5.514-1.338-8.832-5.079-10.195-10.452-1.383-5.452-.453-10.533 3.278-14.912 3.923-4.606 10.844-5.91 16.016-3.021.864.48 1.633 1.14 2.628 1.848zm.288 12.177c.005-1.487-.18-2.617-.63-3.672-1.06-2.478-2.92-3.992-5.621-4.284-2.55-.275-4.72.572-6.257 2.664-1.812 2.464-2.024 5.2-.99 8.02 1.424 3.892 5.932 5.637 9.614 3.73 2.738-1.415 3.745-3.867 3.883-6.458zM50.273 20.823v-2.59h8.619c.223.701.328 26.44.102 28.831-2.844.113-5.705.016-8.674.055v-2.773c-.359.28-.562.421-.745.584-1.955 1.74-4.268 2.617-6.851 2.809-7.054.517-12.208-4.083-13.951-9.496-1.897-5.893-1.154-11.417 2.933-16.245 3.885-4.586 10.787-5.868 15.93-3.02.894.494 1.683 1.17 2.637 1.845zm-13.889 11.85c0 .827.363 2.117.741 3.101 1.003 2.595 2.934 4.142 5.72 4.42 2.72.271 4.926-.738 6.472-3.037 1.897-2.82 1.675-7.07-.483-9.697-2.633-3.21-7.743-3.26-10.446-.107-1.305 1.522-2.003 3.307-2.003 5.32zM185.036 40.097h10.293v6.943h-29.245c-.23-.712-.274-5.774-.037-6.96h10.149V7.506h-10.102c-.228-.83-.286-5.532-.115-6.895.707-.211 17.855-.255 19.057-.026v39.513zM204.704 34.874c.185 2.114 1.107 3.675 2.7 4.756 2.512 1.705 5.23 1.709 7.97.593 1.059-.43 1.779-1.286 2.289-2.319h7.815c-.298.848-.489 1.631-.836 2.338-1.558 3.199-4.066 5.41-7.388 6.599-3.938 1.411-7.932 1.322-11.817-.185-4.329-1.68-7.044-4.892-8.268-9.356-.92-3.356-.876-6.695.31-9.991a14.865 14.865 0 0113.685-9.812c3.694-.07 7.03.906 9.835 3.396 2.45 2.176 3.831 4.962 4.535 8.117.419 1.874.57 3.77.393 5.826-1.405.075-2.8.026-4.192.037-1.409.008-2.818.002-4.227.002H204.704zm12.784-5.477c0-.17.028-.304-.004-.423-.411-1.564-1.253-2.833-2.716-3.567-2.336-1.172-4.679-1.08-6.907.267-1.383.836-2.316 2.082-2.829 3.725 4.196-.002 8.304-.002 12.456-.002zM164.108 29.085h-8.723c-.078-.12-.173-.222-.217-.34-1.123-3.01-4.715-4.61-8.242-3.055-1.963.866-3.185 2.422-3.733 4.48-.748 2.822-.416 5.474 1.512 7.762 2.406 2.855 6.932 3.018 9.36.345.529-.584.887-1.323 1.385-2.078h8.715c-.038.324-.043.614-.109.892-.994 4.11-3.509 7.034-7.185 8.973-6.219 3.281-14.177 1.81-18.867-3.429-6.392-7.138-4.526-18.392 3.831-23.095 6.323-3.56 14.16-2.45 19.04 2.7 1.607 1.695 2.65 3.692 3.189 5.959.038.163.071.328.087.495.01.093-.018.191-.043.39zM113.303 25.171h-10.152v-6.94h19.024c.014.371.045.76.045 1.146.002 6.474.002 12.949.002 19.423v1.246h10.142c.256.753.316 5.67.101 7h-29.213c-.208-.743-.272-5.319-.087-6.931 1.101-.085 2.231-.028 3.356-.038 1.107-.01 2.214-.002 3.322-.002h3.396c.248-.733.31-13.545.064-14.904zM23.415 18.227v6.954c-1.626.028-3.223.01-4.817.012-1.643.004-3.286 0-4.928 0H8.75V46.92c-.826.234-7.578.276-8.75.077V18.227h23.415zM116.976 11.369c-3.243.006-5.774-2.495-5.768-5.696.006-3.142 2.521-5.647 5.697-5.673 3.24-.026 5.796 2.462 5.81 5.653.016 3.217-2.488 5.71-5.739 5.716z" fill="#000"/></svg>