<?xml version="1.0" encoding="UTF-8"?>
<svg width="1073px" height="258px" viewBox="0 0 1073 258" version="1.1" xmlns="http://www.w3.org/2000/svg" xmlns:xlink="http://www.w3.org/1999/xlink">
    <!-- Generator: Sketch 57.1 (83088) - https://sketch.com -->
    <title>Group</title>
    <desc>Created with Sketch.</desc>
    <defs>
        <linearGradient x1="40.3750588%" y1="-2.31610036%" x2="80.4195005%" y2="67.5657477%" id="linearGradient-1">
            <stop stop-color="#D841F0" offset="0%"></stop>
            <stop stop-color="#DC7C1E" offset="100%"></stop>
        </linearGradient>
        <linearGradient x1="40.3750588%" y1="-2.7879529%" x2="80.4195005%" y2="67.7241778%" id="linearGradient-2">
            <stop stop-color="#D841F0" offset="0%"></stop>
            <stop stop-color="#DC7C1E" offset="100%"></stop>
        </linearGradient>
        <path d="M1.31000906,207.235337 L30.1504472,207.235337 L30.1504472,212.893031 L6.96770267,212.893031 L6.96770267,224.208418 L26.7558311,224.208418 L26.7558311,229.866112 L6.96770267,229.866112 L6.96770267,241.153901 L30.1504472,241.153901 L30.1504472,246.811594 L1.31000906,246.811594 L1.31000906,207.235337 Z M79.1603148,246.811594 L73.7234092,246.811594 L73.7234092,222.856091 L58.5718297,222.856091 L58.5718297,246.811594 L53.1625226,246.811594 L53.1625226,217.419186 L58.5718297,217.419186 L58.5718297,222.607705 C58.6086279,221.89014 58.7742173,221.213984 59.0686028,220.579215 C59.3629883,219.944446 59.7539633,219.392481 60.2415393,218.923304 C60.7291153,218.454128 61.294879,218.086151 61.9388474,217.819364 C62.5828125,217.552577 63.2727715,217.419186 64.0087353,217.419186 L73.7234092,217.419186 C74.4777721,217.419186 75.1861267,217.561777 75.8484941,217.846963 C76.5108616,218.132149 77.0858247,218.518524 77.5734007,219.0061 C78.0609767,219.493676 78.4473519,220.068639 78.7325379,220.731007 C79.0177239,221.393374 79.1603148,222.101729 79.1603148,222.856091 L79.1603148,246.811594 Z M101.592822,217.419186 L108.768433,217.419186 L108.768433,208.366876 L114.205339,208.366876 L114.205339,217.419186 L123.864815,217.419186 L123.864815,222.856091 L114.205339,222.856091 L114.205339,241.374689 L123.864815,241.374689 L123.864815,246.811594 L114.205339,246.811594 C113.469375,246.811594 112.77022,246.669003 112.107852,246.383817 C111.445485,246.098631 110.865922,245.712256 110.369146,245.22468 C109.872371,244.737104 109.481396,244.162141 109.19621,243.499774 C108.911024,242.837406 108.768433,242.129052 108.768433,241.374689 L108.768433,222.856091 L101.592822,222.856091 L101.592822,217.419186 Z M172.874683,234.88904 L153.417737,234.88904 L153.417737,241.374689 L172.874683,241.374689 L172.874683,246.811594 L153.417737,246.811594 C152.681773,246.811594 151.982618,246.669003 151.32025,246.383817 C150.657883,246.098631 150.08292,245.712256 149.595344,245.22468 C149.107768,244.737104 148.721392,244.162141 148.436206,243.499774 C148.15102,242.837406 148.00843,242.129052 148.00843,241.374689 L148.00843,222.856091 C148.00843,222.101729 148.15102,221.393374 148.436206,220.731007 C148.721392,220.068639 149.107768,219.493676 149.595344,219.0061 C150.08292,218.518524 150.657883,218.132149 151.32025,217.846963 C151.982618,217.561777 152.681773,217.419186 153.417737,217.419186 L167.437777,217.419186 C168.19214,217.419186 168.900495,217.561777 169.562862,217.846963 C170.22523,218.132149 170.800193,218.518524 171.287769,219.0061 C171.775345,219.493676 172.16172,220.068639 172.446906,220.731007 C172.732092,221.393374 172.874683,222.101729 172.874683,222.856091 L172.874683,234.88904 Z M153.417737,222.856091 L153.417737,229.452134 L167.437777,229.452134 L167.437777,222.856091 L153.417737,222.856091 Z M202.427604,222.856091 L202.427604,246.811594 L197.018297,246.811594 L197.018297,217.419186 L202.427604,217.419186 L202.427604,222.607705 C202.464402,221.89014 202.629992,221.213984 202.924377,220.579215 C203.218763,219.944446 203.609738,219.392481 204.097314,218.923304 C204.58489,218.454128 205.150653,218.086151 205.794622,217.819364 C206.438587,217.552577 207.128546,217.419186 207.86451,217.419186 L213.632597,217.419186 C214.38696,217.419186 215.090715,217.561777 215.743883,217.846963 C216.397051,218.132149 216.972014,218.518524 217.46879,219.0061 C217.965565,219.493676 218.35654,220.068639 218.641726,220.731007 C218.926912,221.393374 219.069503,222.101729 219.069503,222.856091 L219.069503,227.823822 L213.632597,227.823822 L213.632597,222.856091 L202.427604,222.856091 Z M266.920233,241.374689 C266.920233,242.129052 266.777642,242.837406 266.492456,243.499774 C266.20727,244.162141 265.820895,244.737104 265.333319,245.22468 C264.845743,245.712256 264.27078,246.098631 263.608413,246.383817 C262.946045,246.669003 262.237691,246.811594 261.483328,246.811594 L246.331748,246.811594 L246.331748,258.678952 L240.922441,258.678952 L240.922441,217.419186 L246.331748,217.419186 L246.331748,222.386917 C246.386945,221.687751 246.570934,221.039193 246.883718,220.441222 C247.196503,219.843252 247.592078,219.318885 248.070454,218.868107 C248.548831,218.41733 249.105395,218.063152 249.740164,217.805565 C250.374932,217.547978 251.051089,217.419186 251.768654,217.419186 L261.483328,217.419186 C262.237691,217.419186 262.946045,217.561777 263.608413,217.846963 C264.27078,218.132149 264.845743,218.518524 265.333319,219.0061 C265.820895,219.493676 266.20727,220.068639 266.492456,220.731007 C266.777642,221.393374 266.920233,222.101729 266.920233,222.856091 L266.920233,241.374689 Z M261.483328,241.374689 L261.483328,222.856091 L246.331748,222.856091 L246.331748,241.374689 L261.483328,241.374689 Z M296.473154,222.856091 L296.473154,246.811594 L291.063847,246.811594 L291.063847,217.419186 L296.473154,217.419186 L296.473154,222.607705 C296.509953,221.89014 296.675542,221.213984 296.969928,220.579215 C297.264313,219.944446 297.655288,219.392481 298.142864,218.923304 C298.63044,218.454128 299.196204,218.086151 299.840172,217.819364 C300.484137,217.552577 301.174096,217.419186 301.91006,217.419186 L307.678148,217.419186 C308.432511,217.419186 309.136265,217.561777 309.789433,217.846963 C310.442601,218.132149 311.017564,218.518524 311.51434,219.0061 C312.011115,219.493676 312.40209,220.068639 312.687276,220.731007 C312.972462,221.393374 313.115053,222.101729 313.115053,222.856091 L313.115053,227.823822 L307.678148,227.823822 L307.678148,222.856091 L296.473154,222.856091 Z M340.680882,217.419186 L340.680882,246.811594 L335.243976,246.811594 L335.243976,217.419186 L340.680882,217.419186 Z M334.967991,206.103799 L340.956867,206.103799 L340.956867,211.761492 L334.967991,211.761492 L334.967991,206.103799 Z M382.84632,241.374689 L382.84632,234.557858 L369.957818,234.557858 C369.203455,234.557858 368.495101,234.415267 367.832733,234.130081 C367.170366,233.844895 366.595403,233.45852 366.107827,232.970944 C365.620251,232.483368 365.233875,231.908405 364.948689,231.246037 C364.663503,230.58367 364.520913,229.875315 364.520913,229.120952 L364.520913,222.856091 C364.520913,222.101729 364.663503,221.393374 364.948689,220.731007 C365.233875,220.068639 365.620251,219.493676 366.107827,219.0061 C366.595403,218.518524 367.170366,218.132149 367.832733,217.846963 C368.495101,217.561777 369.203455,217.419186 369.957818,217.419186 L387.151687,217.419186 L387.151687,222.856091 L369.957818,222.856091 L369.957818,229.120952 L382.84632,229.120952 C383.600683,229.120952 384.304438,229.263543 384.957606,229.548729 C385.610774,229.833915 386.185737,230.22029 386.682512,230.707866 C387.179288,231.195442 387.570263,231.770405 387.855449,232.432773 C388.140635,233.09514 388.283226,233.803495 388.283226,234.557858 L388.283226,241.374689 C388.283226,242.129052 388.140635,242.837406 387.855449,243.499774 C387.570263,244.162141 387.179288,244.737104 386.682512,245.22468 C386.185737,245.712256 385.610774,246.098631 384.957606,246.383817 C384.304438,246.669003 383.600683,246.811594 382.84632,246.811594 L364.520913,246.811594 L364.520913,241.374689 L382.84632,241.374689 Z M436.713525,234.88904 L417.256578,234.88904 L417.256578,241.374689 L436.713525,241.374689 L436.713525,246.811594 L417.256578,246.811594 C416.520615,246.811594 415.821459,246.669003 415.159092,246.383817 C414.496724,246.098631 413.921761,245.712256 413.434185,245.22468 C412.946609,244.737104 412.560234,244.162141 412.275048,243.499774 C411.989862,242.837406 411.847271,242.129052 411.847271,241.374689 L411.847271,222.856091 C411.847271,222.101729 411.989862,221.393374 412.275048,220.731007 C412.560234,220.068639 412.946609,219.493676 413.434185,219.0061 C413.921761,218.518524 414.496724,218.132149 415.159092,217.846963 C415.821459,217.561777 416.520615,217.419186 417.256578,217.419186 L431.276619,217.419186 C432.030982,217.419186 432.739337,217.561777 433.401704,217.846963 C434.064071,218.132149 434.639035,218.518524 435.126611,219.0061 C435.614187,219.493676 436.000562,220.068639 436.285748,220.731007 C436.570934,221.393374 436.713525,222.101729 436.713525,222.856091 L436.713525,234.88904 Z M417.256578,222.856091 L417.256578,229.452134 L431.276619,229.452134 L431.276619,222.856091 L417.256578,222.856091 Z M499.103589,207.235337 L499.103589,246.811594 L493.445896,246.811594 L493.445896,207.235337 L499.103589,207.235337 Z M524.351144,246.811594 L524.351144,207.235337 L546.01597,207.235337 C552.418856,207.235337 555.62025,210.445931 555.62025,216.867216 L555.62025,222.497311 C555.62025,228.918595 552.418856,232.129189 546.01597,232.129189 L530.008837,232.129189 L530.008837,246.811594 L524.351144,246.811594 Z M530.008837,226.471496 L545.712387,226.471496 C547.221113,226.471496 548.306643,226.140317 548.96901,225.47795 C549.631378,224.815582 549.962557,223.730052 549.962557,222.221326 L549.962557,217.143201 C549.962557,215.634475 549.631378,214.548945 548.96901,213.886577 C548.306643,213.22421 547.221113,212.893031 545.712387,212.893031 L530.008837,212.893031 L530.008837,226.471496 Z M578.604727,207.235337 L607.445165,207.235337 L607.445165,212.893031 L584.262421,212.893031 L584.262421,224.208418 L604.050549,224.208418 L604.050549,229.866112 L584.262421,229.866112 L584.262421,246.811594 L578.604727,246.811594 L578.604727,207.235337 Z M636.087336,229.866112 C635.314574,229.866112 634.583221,229.714322 633.893255,229.410737 C633.203289,229.107151 632.600727,228.702377 632.085553,228.196402 C631.570378,227.690427 631.165604,227.092466 630.871218,226.402499 C630.576833,225.712533 630.429642,224.98118 630.429642,224.208418 L630.429642,212.893031 C630.429642,212.120269 630.576833,211.388916 630.871218,210.69895 C631.165604,210.008984 631.570378,209.411022 632.085553,208.905047 C632.600727,208.399072 633.203289,207.994298 633.893255,207.690713 C634.583221,207.387128 635.314574,207.235337 636.087336,207.235337 L655.295896,207.235337 C656.068658,207.235337 656.800011,207.387128 657.489977,207.690713 C658.179943,207.994298 658.782504,208.399072 659.297679,208.905047 C659.812854,209.411022 660.217628,210.008984 660.512013,210.69895 C660.806399,211.388916 660.953589,212.120269 660.953589,212.893031 L660.953589,217.998755 L655.295896,217.998755 L655.295896,212.893031 L636.087336,212.893031 L636.087336,224.208418 L655.295896,224.208418 C656.068658,224.208418 656.800011,224.355609 657.489977,224.649994 C658.179943,224.94438 658.782504,225.349154 659.297679,225.864329 C659.812854,226.379503 660.217628,226.982065 660.512013,227.672031 C660.806399,228.361997 660.953589,229.09335 660.953589,229.866112 L660.953589,241.153901 C660.953589,241.926663 660.806399,242.658016 660.512013,243.347982 C660.217628,244.037948 659.812854,244.640509 659.297679,245.155684 C658.782504,245.670859 658.179943,246.075633 657.489977,246.370018 C656.800011,246.664404 656.068658,246.811594 655.295896,246.811594 L635.535366,246.811594 C634.762604,246.811594 634.031251,246.664404 633.341285,246.370018 C632.651318,246.075633 632.048757,245.670859 631.533582,245.155684 C631.018408,244.640509 630.613634,244.037948 630.319248,243.347982 C630.024863,242.658016 629.877672,241.926663 629.877672,241.153901 L629.877672,236.075776 L635.535366,236.075776 L635.535366,241.153901 L655.295896,241.153901 L655.295896,229.866112 L636.087336,229.866112 Z M718.265529,246.811594 L718.265529,207.235337 L739.930356,207.235337 C746.333241,207.235337 749.534635,210.445931 749.534635,216.867216 L749.534635,222.497311 C749.534635,228.918595 746.333241,232.129189 739.930356,232.129189 L723.923222,232.129189 L723.923222,246.811594 L718.265529,246.811594 Z M723.923222,226.471496 L739.626772,226.471496 C741.135498,226.471496 742.221028,226.140317 742.883396,225.47795 C743.545763,224.815582 743.876942,223.730052 743.876942,222.221326 L743.876942,217.143201 C743.876942,215.634475 743.545763,214.548945 742.883396,213.886577 C742.221028,213.22421 741.135498,212.893031 739.626772,212.893031 L723.923222,212.893031 L723.923222,226.471496 Z M777.376449,206.103799 L777.376449,246.811594 L771.967142,246.811594 L771.967142,206.103799 L777.376449,206.103799 Z M801.520063,233.978289 C801.520063,233.223926 801.662654,232.520171 801.94784,231.867004 C802.233026,231.213836 802.619401,230.638873 803.106977,230.142097 C803.594554,229.645321 804.169517,229.254346 804.831884,228.96916 C805.494252,228.683974 806.193407,228.541384 806.92937,228.541384 L820.949411,228.541384 L820.949411,222.856091 L803.203572,222.856091 L803.203572,217.419186 L820.949411,217.419186 C821.703774,217.419186 822.412129,217.561777 823.074496,217.846963 C823.736864,218.132149 824.311827,218.518524 824.799403,219.0061 C825.286979,219.493676 825.673354,220.068639 825.95854,220.731007 C826.243726,221.393374 826.386317,222.101729 826.386317,222.856091 L826.386317,246.811594 L820.949411,246.811594 L820.949411,241.843863 C820.894214,242.52463 820.710226,243.168588 820.397441,243.775759 C820.084656,244.382929 819.684482,244.911895 819.196906,245.362673 C818.70933,245.813451 818.152766,246.167628 817.527197,246.425215 C816.901627,246.682802 816.23927,246.811594 815.540104,246.811594 L806.92937,246.811594 C806.193407,246.811594 805.494252,246.669003 804.831884,246.383817 C804.169517,246.098631 803.594554,245.712256 803.106977,245.22468 C802.619401,244.737104 802.233026,244.162141 801.94784,243.499774 C801.662654,242.837406 801.520063,242.129052 801.520063,241.374689 L801.520063,233.978289 Z M806.92937,241.374689 L820.949411,241.374689 L820.949411,233.978289 L806.92937,233.978289 L806.92937,241.374689 Z M848.818824,217.419186 L855.994435,217.419186 L855.994435,208.366876 L861.431341,208.366876 L861.431341,217.419186 L871.090817,217.419186 L871.090817,222.856091 L861.431341,222.856091 L861.431341,241.374689 L871.090817,241.374689 L871.090817,246.811594 L861.431341,246.811594 C860.695377,246.811594 859.996222,246.669003 859.333854,246.383817 C858.671487,246.098631 858.091924,245.712256 857.595148,245.22468 C857.098373,244.737104 856.707398,244.162141 856.422212,243.499774 C856.137026,242.837406 855.994435,242.129052 855.994435,241.374689 L855.994435,222.856091 L848.818824,222.856091 L848.818824,217.419186 Z M906.135841,211.540704 L906.135841,217.419186 L915.795318,217.419186 L915.795318,222.856091 L906.135841,222.856091 L906.135841,246.811594 L900.698936,246.811594 L900.698936,222.856091 L893.523324,222.856091 L893.523324,217.419186 L900.698936,217.419186 L900.698936,211.540704 C900.698936,210.786341 900.841527,210.082586 901.126713,209.429419 C901.411899,208.776251 901.802873,208.201288 902.299649,207.704512 C902.796425,207.207736 903.375987,206.816762 904.038355,206.531576 C904.700722,206.24639 905.399877,206.103799 906.135841,206.103799 L915.795318,206.103799 L915.795318,211.540704 L906.135841,211.540704 Z M963.673647,241.374689 C963.673647,242.129052 963.531056,242.837406 963.24587,243.499774 C962.960684,244.162141 962.574309,244.737104 962.086733,245.22468 C961.599157,245.712256 961.028793,246.098631 960.375626,246.383817 C959.722458,246.669003 959.018703,246.811594 958.26434,246.811594 L943.664731,246.811594 C942.928767,246.811594 942.229612,246.669003 941.567244,246.383817 C940.904877,246.098631 940.329914,245.712256 939.842338,245.22468 C939.354761,244.737104 938.968386,244.162141 938.6832,243.499774 C938.398014,242.837406 938.255423,242.129052 938.255423,241.374689 L938.255423,222.856091 C938.255423,222.101729 938.398014,221.393374 938.6832,220.731007 C938.968386,220.068639 939.354761,219.493676 939.842338,219.0061 C940.329914,218.518524 940.904877,218.132149 941.567244,217.846963 C942.229612,217.561777 942.928767,217.419186 943.664731,217.419186 L958.26434,217.419186 C959.018703,217.419186 959.722458,217.561777 960.375626,217.846963 C961.028793,218.132149 961.599157,218.518524 962.086733,219.0061 C962.574309,219.493676 962.960684,220.068639 963.24587,220.731007 C963.531056,221.393374 963.673647,222.101729 963.673647,222.856091 L963.673647,241.374689 Z M943.664731,222.856091 L943.664731,241.374689 L958.26434,241.374689 L958.26434,222.856091 L943.664731,222.856091 Z M993.226568,222.856091 L993.226568,246.811594 L987.817261,246.811594 L987.817261,217.419186 L993.226568,217.419186 L993.226568,222.607705 C993.263366,221.89014 993.428956,221.213984 993.723341,220.579215 C994.017727,219.944446 994.408702,219.392481 994.896278,218.923304 C995.383854,218.454128 995.949617,218.086151 996.593586,217.819364 C997.237551,217.552577 997.92751,217.419186 998.663474,217.419186 L1004.43156,217.419186 C1005.18592,217.419186 1005.88968,217.561777 1006.54285,217.846963 C1007.19601,218.132149 1007.77098,218.518524 1008.26775,219.0061 C1008.76453,219.493676 1009.1555,220.068639 1009.44069,220.731007 C1009.72588,221.393374 1009.86847,222.101729 1009.86847,222.856091 L1009.86847,227.823822 L1004.43156,227.823822 L1004.43156,222.856091 L993.226568,222.856091 Z M1055.01454,222.856091 L1055.01454,246.811594 L1049.57764,246.811594 L1049.57764,222.856091 L1037.13071,222.856091 L1037.13071,246.811594 L1031.72141,246.811594 L1031.72141,217.419186 L1037.13071,217.419186 L1037.13071,222.607705 C1037.16751,221.89014 1037.3331,221.213984 1037.62749,220.579215 C1037.92187,219.944446 1038.31285,219.392481 1038.80042,218.923304 C1039.288,218.454128 1039.85376,218.086151 1040.49773,217.819364 C1041.14169,217.552577 1041.83165,217.419186 1042.56762,217.419186 L1049.57764,217.419186 C1050.2952,217.419186 1050.97596,217.552577 1051.61993,217.819364 C1052.2639,218.086151 1052.83426,218.454128 1053.33103,218.923304 C1053.82781,219.392481 1054.22798,219.944446 1054.53157,220.579215 C1054.83515,221.213984 1054.99614,221.89014 1055.01454,222.607705 C1055.05134,221.89014 1055.21233,221.213984 1055.49752,220.579215 C1055.7827,219.944446 1056.16908,219.392481 1056.65665,218.923304 C1057.14423,218.454128 1057.70999,218.086151 1058.35396,217.819364 C1058.99793,217.552577 1059.68789,217.419186 1060.42385,217.419186 L1067.43387,217.419186 C1068.18823,217.419186 1068.89659,217.561777 1069.55896,217.846963 C1070.22132,218.132149 1070.79629,218.518524 1071.28386,219.0061 C1071.77144,219.493676 1072.15781,220.068639 1072.443,220.731007 C1072.72819,221.393374 1072.87078,222.101729 1072.87078,222.856091 L1072.87078,246.811594 L1067.43387,246.811594 L1067.43387,222.856091 L1055.01454,222.856091 Z" id="path-3"></path>
    </defs>
    <g id="Web_banners" stroke="none" stroke-width="1" fill="none" fill-rule="evenodd">
        <g id="Artboard-Copy-26" transform="translate(-213.000000, -246.000000)" fill-rule="nonzero">
            <g id="Group" transform="translate(213.000000, 245.000000)">
                <g id="Asset-2">
                    <path d="M22.5585914,23.0822532 L0,23.0822532 L0,1.05247376 L22.5585914,1.05247376 L22.5585914,23.0822532 Z M44.1975281,148.495027 L44.1975281,1.05247376 L109.493019,1.05247376 L109.493019,23.0822532 L65.4577833,23.0822532 L65.4577833,148.495027 L44.1975281,148.495027 Z" id="Shape" fill="#000000"></path>
                    <path d="M157.477361,23.0822532 L136.487593,1.59374598 L225.315428,1.59374598 L225.315428,23.2446348 L157.477361,23.0822532 Z M157.477361,84.8414136 L136.487593,64.1648147 L224.233481,64.1648147 L224.233481,84.8414136 L157.477361,84.8414136 Z M136.487593,148.007882 L136.487593,126.356993 L225.315428,126.356993 L225.315428,148.007882 L136.487593,148.007882 Z" id="Shape" fill="#000000"></path>
                    <polygon id="Path" fill="#000000" points="253.121461 33.9618248 253.121461 1.59374598 318.038271 100.267672 383.550152 1.05247376 383.550152 148.007882 362.452189 148.007882 362.452189 70.0105547 318.200563 134.963221"></polygon>
                    <path d="M467.563323,78.2378925 C471.586907,78.3236838 475.578921,77.5100467 479.248349,75.8562947 C482.451976,74.3513157 485.293562,72.1727944 487.57934,69.4692825 C489.700289,66.8381718 491.297898,63.8249243 492.285808,60.5924181 C493.341609,57.3788646 493.871381,54.0156993 493.854631,50.6330092 C493.87569,47.1259953 493.346303,43.637418 492.285808,40.2947098 C491.268712,37.0301048 489.59324,34.008904 487.36295,31.4178454 C485.043207,28.7959688 482.182316,26.7091351 478.977862,25.3014693 C475.257185,23.7679309 471.262139,23.0126897 467.238739,23.0822532 L435.4836,23.0822532 L414.277442,1.05247376 L467.563323,1.05247376 C474.784587,0.903814793 481.950245,2.34512917 488.553092,5.27439709 C494.289367,7.92013166 499.383531,11.7797993 503.483958,16.5869865 C507.472058,21.2465879 510.488531,26.6571544 512.355922,32.5003898 C514.293777,38.3490984 515.280093,44.4712875 515.277185,50.6330092 C515.279185,56.6354902 514.2922,62.5972455 512.355922,68.2784836 C510.425383,73.9796962 507.412941,79.2543826 503.483958,83.8129964 C499.294337,88.5290165 494.173729,92.3255197 488.444897,94.9632041 C481.824373,97.8968733 474.64015,99.3382073 467.401031,99.1851274 L435.4836,99.1851274 L435.4836,147.899627 L414.277442,147.899627 L414.277442,78.2378925 L467.563323,78.2378925 Z" id="Path" fill="#000000"></path>
                    <path d="M719.494643,73.4746969 L752.385827,73.4746969 C756.346789,73.5704593 760.280416,72.7943862 763.90856,71.2013536 C767.000898,69.8020613 769.793213,67.8169522 772.131356,65.3556136 C774.301381,63.0287061 775.976218,60.2848767 777.054214,57.2906575 C778.201814,54.4070698 778.860036,51.3519632 779.001719,48.2514114 C778.910261,45.072324 778.307466,41.9287458 777.216506,38.9415292 C776.189097,35.9233178 774.508107,33.1694078 772.293648,30.8765731 C769.941154,28.5414173 767.145304,26.7010257 764.070852,25.4638509 C760.414765,23.9787348 756.49293,23.2602558 752.548119,23.3528893 L723.119165,23.3528893 L701.480228,1.70200043 L752.385827,1.16072821 C759.665006,0.89185668 766.911723,2.26061487 773.591984,5.16614264 C779.195585,7.73867833 784.219664,11.4213555 788.360559,15.9915871 C792.266456,20.4241502 795.279053,25.5704493 797.232523,31.1472093 C799.223877,36.6677559 800.248714,42.4905832 800.261974,48.3596659 C800.256514,53.4511622 799.453336,58.5103279 797.881691,63.3529064 C796.359027,68.1627664 793.976161,72.6560326 790.849036,76.6140758 C787.53755,80.6705973 783.524724,84.098967 779.001719,86.7358664 C773.908498,89.7160014 768.287395,91.682636 762.447932,92.5274791 L808.322478,148.007882 L781.273807,148.007882 L719.494643,73.4746969 Z" id="Path" fill="#000000"></path>
                    <path d="M889.576685,1.59374598 L956.116415,148.007882 L933.341434,148.007882 L889.576685,45.8698137 L845.325059,148.007882 L822.766468,148.007882 L889.576685,1.59374598 Z M899.63879,104.760231 L878.973606,104.760231 L878.973606,124.895558 L899.63879,124.895558 L899.63879,104.760231 Z" id="Shape" fill="#000000"></path>
                    <path d="M1001.99096,79.5369458 L980.784803,79.5369458 L980.784803,1.59374598 L1001.99096,1.59374598 L1001.99096,79.5369458 Z M980.784803,148.007882 L980.784803,126.356993 L1070.37,126.356993 L1070.37,148.007882 L980.784803,148.007882 Z" id="Shape" fill="#000000"></path>
                    <g id="Group-11" transform="translate(536.379812, 12.632969)">
                        <g id="Group-15" transform="translate(-8.715683, -8.720497)">
                            <path d="M22.051522,62.6448487 C21.9262145,63.8889257 21.9262145,65.1424552 22.051522,66.3865321 C22.0234872,102.937538 51.5705912,132.614058 88.1012597,132.725569 C101.012315,132.660378 113.636079,128.906243 124.486731,121.905025 C106.072924,114.862054 88.2741017,106.30443 71.2729792,96.3199999 C53.9173047,86.5500794 37.4475791,75.2822191 22.051522,62.6448487 Z" id="Path" fill="url(#linearGradient-1)"></path>
                            <path d="M76.6802645,86.763538 C124.688873,114.623911 169.160004,128.124309 175.426391,117.101512 C178.509049,111.23617 171.636238,101.072949 156.071342,87.1174811 C164.409679,103.752804 167.694478,113.966588 142.578396,103.752804 C150.01064,92.7540438 154.052131,79.8141269 154.201533,66.538222 C154.431642,35.8853919 133.54905,9.10429801 103.777377,1.87124631 C74.005703,-5.36180539 43.1735941,8.85516093 29.3286163,36.200248 C9.97356694,19.1604192 24.729897,17.4918307 37.6164181,17.896337 C18.0592273,11.4747991 4.16199858,10.41297 0.826663704,16.2277484 C-5.79347068,27.5033621 28.0652319,58.9031652 76.6802645,86.763538 Z" id="Path" fill="url(#linearGradient-2)"></path>
                        </g>
                    </g>
                </g>
                <g id="EnterpriseIPFSPlatform">
                    <use fill="#000000" xlink:href="#path-3"></use>
                    <use fill="#131313" xlink:href="#path-3"></use>
                </g>
            </g>
        </g>
    </g>
</svg>