<svg width="570" height="138" xmlns="http://www.w3.org/2000/svg"><defs><linearGradient x1="40.375%" y1="-2.316%" x2="80.42%" y2="67.566%" id="a"><stop stop-color="#D841F0" offset="0%"/><stop stop-color="#DC7C1E" offset="100%"/></linearGradient><linearGradient x1="40.375%" y1="-2.788%" x2="80.42%" y2="67.724%" id="b"><stop stop-color="#D841F0" offset="0%"/><stop stop-color="#DC7C1E" offset="100%"/></linearGradient></defs><g fill="none" fill-rule="evenodd"><g fill-rule="nonzero"><path d="M11.973 12.251H0V.56h11.973V12.25zM23.46 78.817V.559h34.657V12.25H34.743v66.566H23.459zM83.584 12.251L72.444.846h47.146v11.492l-36.006-.087zm0 32.78l-11.14-10.974h46.572V45.03H83.584zm-11.14 33.527V67.066h47.146v11.492H72.443zM134.35 18.026V.846l34.455 52.373L203.577.559v77.999h-11.199V37.159l-23.487 34.475zM248.168 41.526a14.35 14.35 0 006.202-1.264 13.065 13.065 0 004.422-3.39 14.051 14.051 0 002.498-4.711c.56-1.706.842-3.491.833-5.287a17.792 17.792 0 00-.833-5.487 13.275 13.275 0 00-2.613-4.711 12.835 12.835 0 00-4.45-3.247 15.641 15.641 0 00-6.231-1.178H231.14L219.886.56h28.282a26.145 26.145 0 0111.14 2.24 23.173 23.173 0 017.926 6.005 24.423 24.423 0 014.709 8.446 30.555 30.555 0 011.55 9.624 29.002 29.002 0 01-1.55 9.366 24.825 24.825 0 01-4.71 8.245 24.235 24.235 0 01-7.981 5.919 26.203 26.203 0 01-11.17 2.24h-16.94v25.857h-11.256V41.526h28.282zM381.886 38.998h17.457a14.35 14.35 0 006.116-1.207 13.955 13.955 0 004.365-3.102 12.47 12.47 0 002.612-4.28c.61-1.531.959-3.153 1.034-4.799a15.722 15.722 0 00-.947-4.941 11.493 11.493 0 00-2.613-4.28 13.179 13.179 0 00-4.365-2.874 15.297 15.297 0 00-6.116-1.12h-15.62L372.324.903l27.02-.287a25.83 25.83 0 0111.255 2.126 24.206 24.206 0 017.839 5.746 24.337 24.337 0 014.708 8.044c1.057 2.93 1.601 6.02 1.608 9.136a25.87 25.87 0 01-1.263 7.958 22.125 22.125 0 01-3.733 7.038 23.204 23.204 0 01-6.288 5.373 24.283 24.283 0 01-8.786 3.074l24.349 29.447h-14.357l-32.79-39.56zM472.16.846l35.317 77.712H495.39l-23.23-54.212-23.486 54.212h-11.974L472.16.846zm5.34 54.758h-10.968V66.29h10.969V55.604zM531.826 42.216H520.57V.846h11.256v41.37zM520.57 78.558V67.066h47.55v11.492h-47.55z" fill="#000"/><path d="M11.704 33.25a9.908 9.908 0 000 1.986c-.015 19.4 15.668 35.151 35.057 35.21a35.955 35.955 0 0019.313-5.743 189.35 189.35 0 01-28.244-13.58A181.531 181.531 0 0111.704 33.25z" fill="url(#a)" transform="translate(280.068 2.077)"/><path d="M40.7 46.051C66.18 60.84 89.785 68.004 93.11 62.154c1.637-3.113-2.01-8.508-10.272-15.915 4.426 8.83 6.17 14.251-7.162 8.83a36.003 36.003 0 006.17-19.753C81.967 19.046 70.883 4.832 55.081.993 39.28-2.846 22.915 4.7 15.567 19.214c-10.273-9.044-2.441-9.93 4.399-9.715C9.586 6.09 2.209 5.527.439 8.613c-3.514 5.985 14.457 22.651 40.26 37.438z" fill="url(#b)" transform="translate(280.068 2.077)"/></g><text fill="#131313" font-family="Aldrich-Regular, Aldrich" font-size="30" letter-spacing="8.01" transform="translate(-2)"><tspan x="0" y="131">Enterprise IPFS Platform</tspan></text></g></svg>