<svg data-name="Layer 1" xmlns="http://www.w3.org/2000/svg" viewBox="0 0 298.63 129.75"><path d="M46 26l-8 65.26H26.73l8-65.29H16.67L18 15.52h46.6L63.32 26zM138.39 10.11l6.85 91.2h-11.76l-3.72-53.1-32.27 58.93-17.86-58.93L63 101.31H50.38l28.82-89.2 21.09 68.1zM171.42 69.66l-10.14 19.59h-13.44L193.92 0l28.76 89.25h-12.89l-6-19.59zM176.76 59h23.53l-9-29.63zM286 22.29l-1.52 12.26a31.87 31.87 0 00-23.5-10q-12 0-19.43 8.53t-7.45 22.13q0 12.75 7.16 19.91t20.11 7.12a29.63 29.63 0 0019.13-6.68l-1.62 13.3a56.24 56.24 0 01-19.47 3.87q-16.49 0-26.54-10.45t-10.11-27.57q0-17.55 10.7-29.13t27-11.58q12.78 0 25.54 8.29zM3.7 115.22H0v-1.76h9.43v1.76h-3.7v14.37h-2zM16.89 113.3c3.58 0 5.87 3.08 5.87 8.06 0 5.57-2.24 8.39-6.06 8.39-3.58 0-5.86-3.07-5.86-8.06 0-5.57 2.24-8.39 6.05-8.39zm-.19 14.79c2.13 0 3.93-1.76 3.93-6.73 0-3.25-1-6.39-3.74-6.39-2.13 0-3.93 1.75-3.93 6.72.04 3.31 1.04 6.4 3.74 6.4zM26.57 113.46h4.14a4.52 4.52 0 013.39 1.11 4.11 4.11 0 011.2 3.08 3.67 3.67 0 01-3.18 3.85 2.06 2.06 0 011.75 1.57l2.27 6.47h-2.2l-1.85-5.45a2.27 2.27 0 00-2.56-1.85h-.92v7.3h-2zm2 7.16h1.57a2.71 2.71 0 003-2.84c0-1.8-1.18-2.65-3-2.65h-1.53zM44.87 113.3c3.58 0 5.87 3.08 5.87 8.06 0 5.57-2.24 8.39-6.05 8.39-3.58 0-5.87-3.07-5.87-8.06 0-5.57 2.24-8.39 6.05-8.39zm-.18 14.79c2.12 0 3.92-1.76 3.92-6.73 0-3.25-1-6.39-3.74-6.39-2.12 0-3.93 1.75-3.93 6.72 0 3.31 1.06 6.4 3.75 6.4zM54.56 113.46h2.51l6.08 13.31h.05v-13.31h1.94v16.13h-2.52l-6.08-13.21v13.21h-1.98zM72 115.22h-3.74v-1.76h9.42v1.76H74v14.37h-2zM85.15 113.3c3.58 0 5.87 3.08 5.87 8.06 0 5.57-2.25 8.39-6.06 8.39-3.58 0-5.87-3.07-5.87-8.06 0-5.57 2.25-8.39 6.06-8.39zM85 128.09c2.13 0 3.93-1.76 3.93-6.73 0-3.25-1-6.39-3.74-6.39-2.13 0-3.93 1.75-3.93 6.72-.04 3.31.98 6.4 3.74 6.4zM101.3 113.46h3.14l4 12.83 4.14-12.83h3v16.13h-1.94v-13.91l-4.58 13.91h-1.47l-4.39-13.91h-.05v13.91h-1.85zM120.2 113.46h7.51v1.76h-5.47v5.13h5.22v1.75h-5.22v5.73H128v1.76h-7.8zM131.59 113.46h3.51a7 7 0 014.3 1.16c1.43 1 3 3 3 6.65 0 4.67-2.22 8.32-8.27 8.32h-2.52zm2 14.37h1.22c3.56 0 5.41-2.42 5.41-6.56 0-3.37-1.44-6-5.41-6h-1.22zM146 113.46h2v16.13h-2zM158.56 113.46l5.27 16.13h-2.13l-1.29-4.21h-6.15l-1.26 4.21h-2l5.41-16.13zm1.31 10.17l-2.47-8-2.54 8zM177.94 113.46l5.27 16.13h-2.12l-1.3-4.21h-6.14l-1.3 4.21h-2l5.41-16.13zm1.32 10.17l-2.47-8-2.54 8zM186.1 113.46h4.14a4.52 4.52 0 013.39 1.11 4.11 4.11 0 011.2 3.08 3.67 3.67 0 01-3.18 3.85 2.06 2.06 0 011.75 1.57l2.27 6.47h-2.2l-1.85-5.45a2.27 2.27 0 00-2.56-1.85h-.92v7.3h-2zm2 7.16h1.57a2.71 2.71 0 003-2.84c0-1.8-1.18-2.65-3-2.65h-1.61zM200.5 115.22h-3.7v-1.76h9.43v1.76h-3.7v14.37h-2zM216 115.8a5.33 5.33 0 00-2.75-.74 2.36 2.36 0 00-2.51 2.4c0 1 .41 1.69 2.72 3 2.5 1.43 3.33 2.84 3.33 4.69a4.32 4.32 0 01-4.69 4.57 8.06 8.06 0 01-3.37-.69V127a6.69 6.69 0 003.07 1 2.63 2.63 0 002.86-2.55c0-1.24-.32-2-2.49-3.28-2.91-1.75-3.56-2.75-3.56-4.83 0-2.65 2-4 4.48-4a8.17 8.17 0 012.91.53zM236.52 129.27a10.15 10.15 0 01-2.94.48c-5.1 0-7.25-3.88-7.25-8.25 0-5 2.94-8.2 7.14-8.2a7.34 7.34 0 013.05.58v2a5.53 5.53 0 00-3-.81c-2.63 0-5 2.1-5 6 0 4.16 1.66 6.91 5.17 6.91a5.75 5.75 0 002.89-.77zM240.33 113.46h7.51v1.76h-5.47v5.13h5.22v1.75h-5.22v5.73h5.77v1.76h-7.81zM252 113.46h2.52l6.07 13.31h.05v-13.31h1.94v16.13H260l-6.08-13.21v13.21H252zM269.36 115.22h-3.7v-1.76h9.42v1.76h-3.69v14.37h-2zM278.21 113.46h4.13a4.54 4.54 0 013.4 1.11 4.15 4.15 0 011.2 3.08 3.68 3.68 0 01-3.19 3.85 2.08 2.08 0 011.76 1.57l2.26 6.47h-2.19l-1.85-5.45a2.27 2.27 0 00-2.57-1.85h-.92v7.3h-2zm2 7.16h1.57a2.71 2.71 0 003-2.84c0-1.8-1.17-2.65-2.95-2.65h-1.62zM291.12 113.46h7.51v1.76h-5.47v5.13h5.22v1.75h-5.22v5.73h5.77v1.76h-7.81z"/></svg>