<svg xmlns="http://www.w3.org/2000/svg" viewBox="0 0 530 79"><path d="M5.24 49.21V6.72h12.61v40.62c0 10.27 4.2 14.47 12.61 14.47h.93c8.4 0 12.61-4.2 12.61-14.47V6.72h12.6v42.49c0 14.94-7.94 23.81-25.68 23.81S5.24 64.15 5.24 49.21m73.87-25.22v48.09H66.5V6.72h16.34l25.68 47.9V6.72h12.61v65.36h-16.34zm148.25 0v48.09h-12.61V6.72h16.34l25.68 47.9V6.72h12.61v65.36h-16.34zM348.5 6.72h12.6V33.8h28.49V6.72h12.6v65.36h-12.6V45H361.1v27.08h-12.6zm64.81 0h49.49v11.2h-36.89v15.04h31.28v11.2h-31.28v16.72h37.82v11.2h-50.42zm79.37 54.16c12.61 0 21.48-5.14 21.48-21.48s-8.87-21.48-21.48-21.48h-8.87v42.96h8.87zM471.2 6.72h22.41c19.61 0 33.15 11.21 33.15 32.68 0 21.48-13.07 32.68-32.68 32.68H471.2V6.72zm-279.23 32.2v32.87h12.6V6.46zM132.31 6.2v65.58h12.6v-26.3h19.67l4.44-11.12h-24.11V17.68h30.77l4.43-11.13V6.2zm182.13 10.86c.1 0 .21-.01.31-.02l.93-.03c6.72-.23 11.79 3.05 12.49 9.84l12.6-.44c-.4-11.48-8.29-19.82-22.03-20.57l-4.3 11.22zm7.44 17.02-9.87-1.62c-1.22-.2-2.28-.45-3.2-.75l-4.51 11.77c1.35.43 2.82.79 4.4 1.06l11.75 2.02c5.83 1.01 7.49 3.19 7.62 6.93.15 4.2-3.36 8.06-10.36 8.3l-.93.03c-9.7.34-14.55-4.53-15.32-10.96l-6.07 15.81c4.49 4.32 11.35 6.7 20.84 6.37 16.14-.56 24.79-9.74 24.4-20.94-.36-10.62-7.47-16.17-18.75-18.02M293.13 7.46v-.52h-12.6v32.35zm-.25 64.94h.09v-.22z" style="fill:#fff"/></svg>