<svg data-name="Layer 1" xmlns="http://www.w3.org/2000/svg" viewBox="0 0 166.97 169.91"><g data-name="CI-all"><g data-name="mkr-logo-typo-bicolor"><g data-name="logo-maker"><g data-name="Path-3-Copy-4-+-Path-3-Copy-5-Copy"><path data-name="Shape" d="M75.47 112.84V54.68a3.88 3.88 0 0 0-1.55-3.11L6.39.79A3.9 3.9 0 0 0 .15 3.91v108.93a3.9 3.9 0 0 0 7.8 0V3.91L1.71 7l67.52 50.8-1.56-3.12v58.16a3.9 3.9 0 0 0 7.8 0z" fill="#1abc9c"/><path data-name="Shape" d="M96.25 112.84V54.68l-1.56 3.12L162.22 7 156 3.91v108.93a3.9 3.9 0 1 0 7.8 0V3.91a3.9 3.9 0 0 0-6.27-3.12L90 51.57a3.91 3.91 0 0 0-1.55 3.11v58.16a3.9 3.9 0 0 0 7.8 0z" fill="#546979"/></g><path data-name="Maker" d="M2.72 143.53L15 163.75l.09.11.09.09.09.09a.36.36 0 0 1 .11.1h.05l.14.07h.11a.35.35 0 0 0 .14 0h.11a.34.34 0 0 0 .14 0 .3.3 0 0 0 .13 0h.37l.14-.07h.07a.52.52 0 0 1 .11-.1l.1-.09.09-.09.09-.11 12.26-20.22v25a1.37 1.37 0 0 0 .39 1 1.34 1.34 0 0 0 1 .39 1.27 1.27 0 0 0 .95-.39 1.32 1.32 0 0 0 .42-1v-29.88a1.24 1.24 0 0 0-1-1.3 1.26 1.26 0 0 0-1.53.62l-13.6 22.45L2.53 138a1.25 1.25 0 0 0-1.53-.65 1.24 1.24 0 0 0-1 1.3v29.89a1.37 1.37 0 0 0 .39 1 1.37 1.37 0 0 0 1 .39 1.37 1.37 0 0 0 1-.39 1.37 1.37 0 0 0 .39-1zm47.09 16L57 142.16l7.21 17.37zm-5.21 10.38a1.25 1.25 0 0 0 1.26-.85l2.83-6.79h16.66l2.83 6.79a1.25 1.25 0 0 0 1.26.85 1.2 1.2 0 0 0 .52-.12 1.23 1.23 0 0 0 .73-.73 1.28 1.28 0 0 0 0-1.05l-3.17-7.63-9.25-22.28a2.41 2.41 0 0 0-.11-.25l-.09-.09-.09-.11s-.06 0-.12-.09l-.09-.07a1.16 1.16 0 0 0-.5-.21h-.53a1.16 1.16 0 0 0-.47.21l-.1.07-.11.09a.39.39 0 0 0-.09.11l-.09.09a2.72 2.72 0 0 0-.12.25l-9.24 22.28-3.17 7.62a1.36 1.36 0 0 0 .73 1.78 1.17 1.17 0 0 0 .52.12zm38.55-.64a1.26 1.26 0 0 0 .42-1v-8.67l4.06-4.28 13.49 14.18a1.34 1.34 0 0 0 1 .41 1.31 1.31 0 0 0 .94-.37 1.38 1.38 0 0 0 .43-1 1.28 1.28 0 0 0-.39-1l-13.6-14.18 13.12-13.77a1.29 1.29 0 0 0 .37-1 1.26 1.26 0 0 0-.41-.94 1.36 1.36 0 0 0-1-.38 1.28 1.28 0 0 0-.94.43l-17.09 18v-17.18a1.29 1.29 0 0 0-.42-1 1.27 1.27 0 0 0-1-.39 1.33 1.33 0 0 0-1.35 1.35v29.79a1.37 1.37 0 0 0 1.35 1.37 1.25 1.25 0 0 0 1-.41zm50.29.64a1.37 1.37 0 0 0 0-2.74h-16.75v-12.26h12.53a1.37 1.37 0 0 0 0-2.74h-12.53v-12.26h16.75a1.3 1.3 0 0 0 1-.39 1.34 1.34 0 0 0 .41-1 1.31 1.31 0 0 0-.41-1 1.25 1.25 0 0 0-1-.41l-18.12-.05a1.21 1.21 0 0 0-1 .41 1.25 1.25 0 0 0-.41 1v30a1.25 1.25 0 0 0 .41 1 1.28 1.28 0 0 0 1 .41zm28.87-19.59a6.87 6.87 0 0 1-4.72 1.83h-9.13V140h9a7 7 0 0 1 4.84 1.8 5.61 5.61 0 0 1 0 8.57zm-15.22-13.06a1.37 1.37 0 0 0-1 .39 1.3 1.3 0 0 0-.39 1v29.72a1.34 1.34 0 0 0 .39 1 1.37 1.37 0 0 0 1 .39 1.37 1.37 0 0 0 1.37-1.35v-13.55h7.62l7.06 14.29a1.23 1.23 0 0 0 1.21.76 1.31 1.31 0 0 0 .59-.14 1.35 1.35 0 0 0 .68-.77 1.28 1.28 0 0 0-.06-1l-6.51-13.25a9.32 9.32 0 0 0 5.64-3 8.31 8.31 0 0 0-.5-11.92 9.66 9.66 0 0 0-6.76-2.58z" fill="#546979"/></g></g></g></svg>