<svg class="icon" xmlns="http://www.w3.org/2000/svg" viewBox="0 0 290.262 290.262"><path d="M278.743 33.612H11.519C5.157 33.612 0 38.77 0 45.131v200c0 6.361 5.157 11.519 11.519 11.519h267.225c6.361 0 11.519-5.157 11.519-11.519v-200c-.001-6.361-5.159-11.519-11.52-11.519zm-174.68 156.519l9.989-34.973H76.771l-9.993 34.973H43.896l25.709-90h22.888L81.914 137.16h37.279l10.579-37.029h22.89l-25.715 90h-22.884zm140.267-45c-7.604 26.613-32.658 45-61.585 45h-37.796l16.986-59.461h22.882l-11.768 41.199h16.327c14.014 0 27.128-10.797 31.644-26.607 4.555-15.945-2.865-26.871-17.393-26.871h-38.188l5.217-18.26h38.7c28.285 0 42.609 18.26 34.974 45z"/></svg>