<svg class="icon" xmlns="http://www.w3.org/2000/svg" viewBox="0 0 512 512"><path d="M255.9 512l221.8-128V128L255.9 256v256z" fill-opacity=".5"/><path d="M256 512V256L34.3 128v256L256 512z" fill-opacity=".1"/><path d="M34.3 128L256 256l221.7-128L256 0 34.3 128z" fill-opacity=".3"/><path d="M256 0L34.3 128v256L256 512l221.7-128V128L256 0zm-15.4 476.8c-2.6 1.1-5.1 2.6-7.4 4.3L72.5 388.3c1.9-16.7-7.4-32.8-22.8-39.5V163.2c2.6-1.1 5.1-2.6 7.4-4.3l160.7 92.8c-1.9 16.7 7.4 32.8 22.8 39.5v185.6zM233.1 225L72.4 132.2c.3-2.9.3-5.7 0-8.6l160.7-92.8c13.6 10 32 10 45.6 0l160.7 92.8c-.3 2.9-.3 5.7 0 8.6L278.7 225c-13.5-10-32-10-45.6 0zm229.3 122.8c-15.4 6.7-24.7 22.8-22.8 39.5l-160.8 92.8c-2.3-1.7-4.8-3.1-7.4-4.3l-.2-184.6c15.4-6.7 24.7-22.8 22.8-39.5l160.9-93.8c2.3 1.7 4.8 3.1 7.4 4.3v185.6z"/></svg>