<svg width="578" height="434" xmlns="http://www.w3.org/2000/svg"><g stroke="#000" fill="none" fill-rule="evenodd"><path d="M512.24.999v21.606h-21.594v43.19h-21.583v21.604H447.47v21.605h-21.584v43.19h-21.594v21.605h-21.584v21.605h-21.592v43.191h-21.585V260.2h-21.593v21.604h-21.584v43.191h-21.593V346.6h-21.584v21.604h-21.593v43.191H210V433h64.761v-21.605h21.593v-43.19h21.584V346.6h21.593v-21.605h21.585v-43.19h21.592V260.2h21.584v-21.605h21.594v-43.191h21.584v-21.605h21.593v-21.605h21.583v-43.19h21.594V87.399h21.584V65.795h21.594v-43.19H577V.999zM303.24.999v21.606h-21.594v43.19h-21.583v21.604H238.47v21.605h-21.584v43.19h-21.594v21.605h-21.584v21.605h-21.592v43.191h-21.585V260.2h-21.593v21.604H87.354v43.191H65.761V346.6H44.177v21.604H22.584v43.191H1V433h64.761v-21.605h21.593v-43.19h21.584V346.6h21.593v-21.605h21.585v-43.19h21.592V260.2h21.584v-21.605h21.594v-43.191h21.584v-21.605h21.593v-21.605h21.583v-43.19h21.594V87.399h21.584V65.795h21.594v-43.19H368V.999z"/></g></svg>