<?xml version="1.0" encoding="utf-8"?>
<!-- Generator: Adobe Illustrator 23.0.4, SVG Export Plug-In . SVG Version: 6.00 Build 0)  -->
<svg version="1.1"
	 id="svg2" xmlns:cc="http://creativecommons.org/ns#" xmlns:dc="http://purl.org/dc/elements/1.1/" xmlns:inkscape="http://www.inkscape.org/namespaces/inkscape" xmlns:ns1="http://sozi.baierouge.fr" xmlns:rdf="http://www.w3.org/1999/02/22-rdf-syntax-ns#" xmlns:sodipodi="http://sodipodi.sourceforge.net/DTD/sodipodi-0.dtd" xmlns:svg="http://www.w3.org/2000/svg"
	 xmlns="http://www.w3.org/2000/svg" xmlns:xlink="http://www.w3.org/1999/xlink" x="0px" y="0px" viewBox="0 0 635.7 482.1"
	 style="enable-background:new 0 0 635.7 482.1;" xml:space="preserve">
<style type="text/css">
	.st0{fill:#FF3F00;stroke:#000000;}
	.st1{fill:#ED3B00;}
	.st2{fill:#D93500;stroke:#000000;}
	.st3{fill:#FF3F00;stroke:#000000;stroke-linecap:round;stroke-linejoin:round;}
</style>
<path id="path7959-0-8-1-4" class="st0" d="M41.7,223.2l30.7,17.7l30.7-17.7l-30.7-17.7L41.7,223.2z"/>
<path id="path6529-26-46-8-1-1" class="st0" d="M409.9,81.4L348.5,46l-30.7,17.7l61.4,35.4L409.9,81.4z"/>
<path id="path8046-5-8" class="st1" d="M409.9,81.4l-76.7-8.9l46,26.6L409.9,81.4z"/>
<path id="path7959-6-6-7-3-8" class="st0" d="M225.8,63.7l30.7,17.7l30.7-17.7L256.5,46L225.8,63.7z"/>
<path id="path6042-5-4-4-4" class="st0" d="M133.7,240.9v17.7l30.7-17.7v-17.7L133.7,240.9z"/>
<path id="path7959-6-6-7-3-9" class="st0" d="M440.6,170l30.7,17.7L502,170l-30.7-17.7L440.6,170z"/>
<path id="path6044-8-75-1-0-90-6-9-7" class="st2" d="M502,240.9v-17.7l61.4,35.4v17.7L502,240.9z"/>
<path id="path6044-8-75-1-0-90-6-9-8" class="st2" d="M471.3,240.9v-17.7l61.4,35.4v17.7L471.3,240.9z"/>
<path id="path7959-81-9" class="st0" d="M563.3,258.6l30.7,17.7l30.7-17.7L594,240.9L563.3,258.6z"/>
<path id="path7959-8-0" class="st0" d="M11,240.9l30.7,17.7l30.7-17.7l-30.7-17.7L11,240.9z"/>
<path id="path7959-64" class="st0" d="M41.7,240.9l30.7,17.7l30.7-17.7l-30.7-17.7L41.7,240.9z"/>
<path id="path2986-6-9-5-4" class="st2" d="M271.8,214.3V232l30.7,17.7V232L271.8,214.3z"/>
<path id="path2988-5-8-3-0" class="st3" d="M302.5,249.8l61.4-35.4v-17.7L302.5,232V249.8z"/>
<path id="path2990-0-80-8-9" class="st3" d="M271.8,214.3l30.7,17.7l61.4-35.4l-30.7-17.7L271.8,214.3z"/>
<path id="path2986-7-2-4-8-8-28-8" class="st3" d="M379.2,311.7v17.7l-30.7,17.7v-17.7L379.2,311.7z"/>
<path id="path2988-6-3-27-18-3-70-8" class="st2" d="M348.5,347.2l-61.4-35.4V294l61.4,35.4V347.2z"/>
<path id="path2990-1-2-7-2-7-14-2" class="st3" d="M379.2,311.7l-30.7,17.7L287.2,294l30.7-17.7L379.2,311.7z"/>
<path id="path7959-83-1" class="st0" d="M348.5,382.6l30.7,17.7l30.7-17.7l-30.7-17.7L348.5,382.6z"/>
<path id="path6042-8-3-7-0-7" class="st2" d="M379.2,364.9v-17.7l30.7,17.7v17.7L379.2,364.9z"/>
<path id="path6042-8-3-7-0-2-1" class="st2" d="M348.5,400.3v-17.7l30.7,17.7V418L348.5,400.3z"/>
<path id="path6044-8-75-1-0-8-3-2" class="st2" d="M379.2,99.1V81.4l61.4,35.4v17.7L379.2,99.1z"/>
<path id="path6044-8-75-1-0-46-0-1" class="st2" d="M348.5,99.1V81.4l61.4,35.4v17.7L348.5,99.1z"/>
<path id="path6044-8-75-1-0-55-1-5" class="st2" d="M317.9,99.1V81.4l61.4,35.4v17.7L317.9,99.1z"/>
<path id="path6044-8-75-1-0-15-5-7" class="st2" d="M379.2,134.6v-17.7l61.4,35.4v17.7L379.2,134.6z"/>
<path id="path6044-8-75-1-0-40-3-1" class="st2" d="M348.5,134.6v-17.7l61.4,35.4v17.7L348.5,134.6z"/>
<path id="path6044-8-75-1-0-54-2-8" class="st2" d="M409.9,170v-17.7l61.4,35.4v17.7L409.9,170z"/>
<path id="path6044-8-75-1-0-72-4-9" class="st2" d="M317.9,134.6v-17.7l61.4,35.4v17.7L317.9,134.6z"/>
<path id="path6044-8-75-1-0-14-6-2" class="st2" d="M379.2,170v-17.7l61.4,35.4v17.7L379.2,170z"/>
<path id="path6044-8-75-1-0-9-6-7" class="st2" d="M348.5,170v-17.7l61.4,35.4v17.7L348.5,170z"/>
<path id="path6044-8-75-1-0-90-6-9" class="st2" d="M409.9,205.4v-17.7l61.4,35.4v17.7L409.9,205.4z"/>
<path id="path6042-54-8-0-9-4" class="st2" d="M317.9,81.4V63.7l30.7,17.7v17.7L317.9,81.4z"/>
<path id="path6042-54-8-35-0-3" class="st2" d="M317.9,116.8V99.1l30.7,17.7v17.7L317.9,116.8z"/>
<path id="path6042-54-8-07-4-1" class="st2" d="M317.9,152.3v-17.7l30.7,17.7V170L317.9,152.3z"/>
<path id="path6042-54-8-36-1-4" class="st2" d="M532.7,240.9v-17.7l30.7,17.7v17.7L532.7,240.9z"/>
<path id="path6044-3-4-9-1" class="st0" d="M72.4,240.9v17.7l61.4-35.4v-17.7L72.4,240.9z"/>
<path id="path6044-3-45-6-7" class="st0" d="M195.1,99.1v17.7l61.4-35.4V63.7L195.1,99.1z"/>
<path id="path6044-3-98-5-2" class="st0" d="M103.1,205.4v17.7l61.4-35.4V170L103.1,205.4z"/>
<path id="path6044-3-38-9-7" class="st0" d="M164.4,134.6v17.7l61.4-35.4V99.2L164.4,134.6z"/>
<path id="path6044-3-6-4-7" class="st0" d="M225.8,99.1v17.7l61.4-35.4V63.7L225.8,99.1z"/>
<path id="path6044-3-986-6-9" class="st0" d="M133.7,170v17.7l61.4-35.4v-17.7L133.7,170z"/>
<path id="path6044-3-62-3-3" class="st0" d="M195.1,134.6v17.7l61.4-35.4V99.2L195.1,134.6z"/>
<path id="path6044-3-382-4-1" class="st0" d="M256.5,99.1v17.7l61.4-35.4V63.7L256.5,99.1z"/>
<path id="path6044-3-627-9-9" class="st0" d="M164.4,170v17.7l61.4-35.4v-17.7L164.4,170z"/>
<path id="path6044-3-5-0-8" class="st0" d="M225.8,134.6v17.7l61.4-35.4V99.2L225.8,134.6z"/>
<path id="path6044-3-7-5-6" class="st0" d="M256.5,134.6v17.7l61.4-35.4V99.2L256.5,134.6z"/>
<path id="path6044-3-82-3-5" class="st0" d="M195.1,170v17.7l61.4-35.4v-17.7L195.1,170z"/>
<path id="path6044-3-78-9-0" class="st0" d="M133.7,205.4v17.7l61.4-35.4V170L133.7,205.4z"/>
<path id="path6044-3-0-1-2" class="st0" d="M164.4,205.4v17.7l61.4-35.4V170L164.4,205.4z"/>
<path id="path6044-3-20-2-8" class="st0" d="M103.1,240.9v17.7l61.4-35.4v-17.7L103.1,240.9z"/>
<path id="path6044-3-89-8-6" class="st0" d="M225.8,170v17.7l61.4-35.4v-17.7L225.8,170z"/>
<path id="path6044-3-28-8-0" class="st0" d="M195.1,205.4v17.7l61.4-35.4V170L195.1,205.4z"/>
<path id="path6044-3-205-1-2" class="st0" d="M256.5,170v17.7l61.4-35.4v-17.7L256.5,170z"/>
<path id="path6042-78-2-5" class="st0" d="M164.4,223.1v17.7l30.7-17.7v-17.7L164.4,223.1z"/>
<path id="path6042-95-0-0" class="st0" d="M287.2,99.1v17.7l30.7-17.7V81.4L287.2,99.1z"/>
<path id="path6042-89-2-0" class="st0" d="M287.2,134.6v17.7l30.7-17.7v-17.7L287.2,134.6z"/>
<path id="path6042-5-4-9" class="st0" d="M317.9,453.5v17.7l30.7-17.7v-17.7L317.9,453.5z"/>
<path id="path6044-8-14-79-4" class="st0" d="M348.5,435.7v17.7l61.4-35.4v-17.7L348.5,435.7z"/>
<path id="path6044-8-75-5-6" class="st0" d="M379.2,400.3V418l61.4-35.4v-17.7L379.2,400.3z"/>
<path id="path6044-8-0-2-4-8" class="st0" d="M409.9,364.9v17.7l61.4-35.4v-17.7L409.9,364.9z"/>
<path id="path6044-8-14-8-1-4" class="st0" d="M409.9,400.3V418l61.4-35.4v-17.7L409.9,400.3z"/>
<path id="path6044-8-75-2-2-9" class="st0" d="M440.6,364.9v17.7l61.4-35.4v-17.7L440.6,364.9z"/>
<path id="path6044-8-0-0-2-8" class="st0" d="M471.3,329.4v17.7l61.4-35.4V294L471.3,329.4z"/>
<path id="path6044-8-14-5-7-2" class="st0" d="M471.3,364.9v17.7l61.4-35.4v-17.7L471.3,364.9z"/>
<path id="path6044-8-75-1-8-9" class="st0" d="M502,329.4v17.7l61.4-35.4V294L502,329.4z"/>
<path id="path6044-8-0-8-44-8" class="st0" d="M532.7,294v17.7l61.4-35.4v-17.7L532.7,294z"/>
<path id="path6044-8-14-7-6-4" class="st0" d="M532.7,329.4v17.7l61.4-35.4V294L532.7,329.4z"/>
<path id="path6044-8-75-26-9-0" class="st0" d="M563.3,294v17.7l61.4-35.4v-17.7L563.3,294z"/>
<path id="path6042-8-2-1" class="st0" d="M471.3,187.7v17.7l30.7-17.7V170L471.3,187.7z"/>
<path id="path6042-0-6-5" class="st0" d="M471.3,152.3V170l30.7-17.7v-17.7L471.3,152.3z"/>
<path id="path6042-54-7-2" class="st0" d="M594,294v17.7l30.7-17.7v-17.7L594,294z"/>
<path id="path6042-37-3-9" class="st2" d="M11,276.3v-17.7l30.7,17.7V294L11,276.3z"/>
<path id="path6044-35-2-7" class="st2" d="M41.7,294v-17.7l61.4,35.4v17.7L41.7,294z"/>
<path id="path6044-8-8-1-3" class="st2" d="M11,258.6v-17.7l61.4,35.4v17.7L11,258.6z"/>
<path id="path6044-8-1-5-6-7" class="st2" d="M72.4,294v-17.7l61.4,35.4v17.7L72.4,294z"/>
<path id="path6044-8-98-36-6-5" class="st2" d="M41.7,258.6v-17.7l61.4,35.4v17.7L41.7,258.6z"/>
<path id="path6044-8-5-8-6-1" class="st2" d="M72.4,258.6v-17.7l61.4,35.4v17.7L72.4,258.6z"/>
<path id="path6044-5-9-0-2" class="st2" d="M103.1,329.4v-17.7l61.4,35.4v17.7L103.1,329.4z"/>
<path id="path6044-8-1-0-4-5-0" class="st2" d="M133.7,329.4v-17.7l61.4,35.4v17.7L133.7,329.4z"/>
<path id="path6044-8-98-9-1-4-0" class="st2" d="M103.1,294v-17.7l61.4,35.4v17.7L103.1,294z"/>
<path id="path6044-8-5-4-6-3-4" class="st2" d="M133.7,294v-17.7l61.4,35.4v17.7L133.7,294z"/>
<path id="path6044-50-6-4-6" class="st2" d="M164.4,364.9v-17.7l61.4,35.4v17.7L164.4,364.9z"/>
<path id="path6044-8-1-4-6-7-0" class="st2" d="M195.1,364.9v-17.7l61.4,35.4v17.7L195.1,364.9z"/>
<path id="path6044-8-98-4-7-8-7" class="st2" d="M164.4,329.4v-17.7l61.4,35.4v17.7L164.4,329.4z"/>
<path id="path6044-59-1-7-7" class="st2" d="M225.8,400.3v-17.7l61.4,35.4v17.7L225.8,400.3z"/>
<path id="path6044-3-3-8-3" class="st2" d="M11,294v-17.7l61.4,35.4v17.7L11,294z"/>
<path id="path6044-81-4-5-3" class="st2" d="M72.4,329.4v-17.7l61.4,35.4v17.7L72.4,329.4z"/>
<path id="path6044-0-1-8-5" class="st2" d="M133.7,364.9v-17.7l61.4,35.4v17.7L133.7,364.9z"/>
<path id="path6044-33-5-5-9" class="st2" d="M195.1,400.3v-17.7l61.4,35.4v17.7L195.1,400.3z"/>
<path id="path6044-84-2-8-9" class="st2" d="M256.5,435.7V418l61.4,35.4v17.7L256.5,435.7z"/>
<path id="path6529-2-9-8" class="st0" d="M379.2,347.2l61.4-35.4l30.7,17.6l-61.4,35.5L379.2,347.2z"/>
<path id="path6529-7-2-2" class="st0" d="M440.6,311.7l61.4-35.4l30.7,17.7l-61.4,35.4L440.6,311.7z"/>
<path id="path6529-26-46-1-7-0" class="st0" d="M594,240.9l-61.4-35.4L502,223.2l61.4,35.4L594,240.9z"/>
<path id="path6529-71-4-6" class="st0" d="M502,276.3l61.4-35.4l30.7,17.7L532.7,294L502,276.3z"/>
<path id="path6529-26-46-3-6" class="st0" d="M164.4,258.6l-61.4-35.4l-30.7,17.7l61.4,35.4L164.4,258.6z"/>
<path id="path6529-3-4-3" class="st0" d="M164.4,81.4L225.8,46l30.7,17.7l-61.4,35.4L164.4,81.4z"/>
<path id="path6529-5-0-0" class="st0" d="M256.5,46l61.4-35.4l30.7,17.7l-61.4,35.4L256.5,46z"/>
<path id="path6529-26-46-2-7-5" class="st0" d="M471.3,99.1l-61.4-35.4l-30.7,17.7l61.4,35.4L471.3,99.1z"/>
<path id="path6042-5-4-1-7" class="st0" d="M287.2,418v17.7l30.7-17.7v-17.7L287.2,418z"/>
<path id="path6042-8-3-7-3-83" class="st2" d="M103.1,170v-17.7l30.7,17.7v17.7L103.1,170z"/>
<path id="path6042-8-3-7-7-5" class="st2" d="M164.4,99.1V81.4l30.7,17.7v17.7L164.4,99.1z"/>
<path id="path6042-8-3-7-39-1" class="st2" d="M133.7,134.6v-17.7l30.7,17.7v17.7L133.7,134.6z"/>
<path id="path6042-5-4-4-9-2" class="st0" d="M225.8,347.2v17.7l30.7-17.7v-17.7L225.8,347.2z"/>
<path id="path6042-5-4-4-7-0" class="st0" d="M256.5,382.6v17.7l30.7-17.7v-17.7L256.5,382.6z"/>
<path id="path6529-26-46-3-2-1" class="st0" d="M225.8,294l-61.4-35.4l-30.7,17.7l61.4,35.4L225.8,294z"/>
<path id="path7959-6-6" class="st0" d="M225.8,364.9l30.7,17.7l30.7-17.7l-30.7-17.7L225.8,364.9z"/>
<path id="path7959-7-1" class="st0" d="M287.2,435.7l30.7,17.7l30.7-17.7L317.8,418L287.2,435.7z"/>
<path id="path7959-62-4" class="st0" d="M317.9,418l30.7,17.7l30.7-17.7l-30.7-17.7L317.9,418z"/>
<path id="path7959-0-8" class="st0" d="M133.7,116.9l30.7,17.7l30.7-17.7l-30.7-17.7L133.7,116.9z"/>
<path id="path6042-8-3-7-3-8-9" class="st2" d="M72.4,205.4v-17.7l30.7,17.7v17.7L72.4,205.4z"/>
<path id="path2986-6-9-5-1-0" class="st2" d="M221,258.6l8.9,15.3l35.4,0l-8.9-15.3L221,258.6z"/>
<path id="path2988-5-8-3-6-8" class="st3" d="M265.3,273.9l35.4-61.4l-8.9-15.3l-35.4,61.4L265.3,273.9z"/>
<path id="path2990-0-80-8-8-7" class="st3" d="M221,258.6l35.4,0l35.4-61.4l-35.4,0L221,258.6z"/>
<path id="path7959-6-6-7" class="st0" d="M256.5,400.3l30.7,17.7l30.7-17.7l-30.7-17.7L256.5,400.3z"/>
<path id="path7959-6-6-8" class="st0" d="M195.1,329.4l30.7,17.7l30.7-17.7l-30.7-17.7L195.1,329.4z"/>
<path id="path6042-5-4-4-9-2-3" class="st0" d="M195.1,311.7v17.7l30.7-17.7V294L195.1,311.7z"/>
<path id="path6044-8-75-1-0-90-6-9-3" class="st2" d="M440.6,205.4v-17.7l61.4,35.4v17.7L440.6,205.4z"/>
<path id="path7959-6-6-7-7" class="st0" d="M471.3,205.4l30.7,17.7l30.7-17.7L502,187.7L471.3,205.4z"/>
<path id="path7959-6-6-7-3" class="st0" d="M440.6,134.6l30.7,17.7l30.7-17.7l-30.7-17.8L440.6,134.6z"/>
<path id="path6042-0-6-5-4" class="st0" d="M440.6,116.8v17.7l30.7-17.7V99.1L440.6,116.8z"/>
<path id="path7959-0-8-1" class="st0" d="M103.1,152.3l30.7,17.7l30.7-17.7l-30.7-17.7L103.1,152.3z"/>
<path id="path7959-0-8-9" class="st0" d="M72.4,187.7l30.7,17.7l30.7-17.7L103.1,170L72.4,187.7z"/>
<g>
	<path id="path8046-1-0-9" class="st1" d="M103,223.2l-46-8.9l15.3-8.9L103,223.2z"/>
	<path id="path8046-2-4" class="st1" d="M471.3,152.3L440.6,170v-17.7L471.3,152.3z"/>
	<path id="path8046-8-6" class="st1" d="M409.9,382.6l-46-8.9l15.3-8.9L409.9,382.6z"/>
	<path id="path8046-1" class="st1" d="M195.1,116.9l-46-8.9l15.3-8.9L195.1,116.9z"/>
	<path id="path8046-4-3" class="st1" d="M379.2,418l-46-8.9l15.3-8.9L379.2,418z"/>
	<path id="path8046-1-0" class="st1" d="M164.4,152.3l-46-8.9l15.3-8.9L164.4,152.3z"/>
	<path id="path8046-1-6" class="st1" d="M133.7,187.7l-46-8.9l15.3-8.9L133.7,187.7z"/>
</g>
<path id="path6044-3-62-3-3-3" class="st0" d="M287.2,63.7v17.7L348.5,46V28.3L287.2,63.7z"/>
<path id="path6044-8-75-1-0-89-8-6" class="st2" d="M409.9,134.6v-17.7l61.4,35.4V170L409.9,134.6z"/>
</svg>
