<?xml version="1.0"?>
<svg xmlns:rdf="http://www.w3.org/1999/02/22-rdf-syntax-ns#" xmlns="http://www.w3.org/2000/svg" xmlns:cc="http://web.resource.org/cc/" xmlns:xlink="http://www.w3.org/1999/xlink" xmlns:dc="http://purl.org/dc/elements/1.1/" xmlns:svg="http://www.w3.org/2000/svg" id="Layer_1" xml:space="preserve" overflow="visible" viewBox="0 0 175.097 278.911" version="1.1" enable-background="new 0 0 175.097 278.911">
<g clip-rule="evenodd" fill-rule="evenodd">
	<path d="m140.46 4.831c-0.802 1.279-4.426-0.266-5.28 0.96-0.081 2.479 0.298 5.417-0.479 7.2l-0.88-0.24-0.561 0.72c-0.76 0.04-1.831-0.231-1.92 0.48l-0.479-0.24-0.48 0.24c-0.428 0.212-0.858 0.421-0.96 0.96h-1.92c-0.153-1.113 0.077-1.843 0.479-2.4-2.197-0.202-2.628-2.171-4.319-2.88l0.24-0.72-0.721-0.24c-0.336-2.096 0.816-2.704 0.48-4.8l0.72-0.56-0.24-0.88c1.664-0.256 4.553 0.713 4.8-0.96l0.48 0.24 0.479 0.24c3.2 0.641 6.395 1.286 10.08 1.44l-0.239 0.88 0.72 0.56z"/>
	<path d="m146.14 90.03l0.561-0.72c1.06 0.06 0.203 2.036 0.479 2.88l-0.88-0.24-0.56 0.72c-2.407 0.719-1.492-2.806-0.48-2.88l0.88 0.24z"/>
	<path d="m173.98 261.87l0.561-0.72c2.56 3.174-4.436 4.545-7.2 2.88-0.153-1.127-0.759-1.802-0.479-3.359l0.72 0.239 0.72-0.239c1.15-0.19-0.267 2.186 1.44 1.439 0.467-0.013 0.372-0.588 0.479-0.96l0.72 0.24 0.24-0.72c0.415 0.294 1.055 2.691 1.92 0.96l0.88 0.24z"/>
	<path d="m86.463 6.991l-0.72-0.24c-4.147 1.683-8.635-4.464-3.36-4.8l-0.24 0.88 0.72 0.56c-0.993 2.016 5.801 0.583 8.16 0.48 9.714-0.422 20.966-0.176 30.721-0.96l-0.24 0.88 0.72 0.56c-0.04 0.76 0.231 1.831-0.479 1.92l-0.721-0.24-0.239 0.72c-0.389-0.091-0.479-0.481-0.96-0.48-6.582 1.162-13.469 1.13-18.721 1.44-0.245 3.114-0.719 6-1.439 8.64l-0.48-0.24-0.479 0.24c-0.918 0.224-2.066-1.479-1.92 0.48l-0.721-0.24-0.72 0.24h-0.479l-0.721-0.24-0.72 0.24c0.078-0.558-0.105-0.854-0.479-0.96l-0.24-0.72-0.721 0.24c-1.661-0.898-2.941-2.178-3.84-3.84l-0.239-0.72-0.721 0.24c-0.513-1.876 2.831-4.193 0.48-4.8-0.092 0.389-0.481 0.479-0.48 0.96l-0.718-0.24z"/>
	<path d="m113.58 91.23v-2.4l0.88 0.24 0.56-0.72c6.137-0.34 12.928 1.104 17.761 0.48l0.239 0.72 0.721-0.24c0.333 0.375 2.678 1.068 2.88 0l0.72 0.24 0.72 0.24-0.72 1.36 0.24 1.52-0.72-1.36-0.721 1.36c-1.593-0.153-2.952-0.073-3.359 0.96l-0.24-0.72-0.72-0.24c-6.599-0.546-10.678-0.717-16.801-1.44l-0.72-0.24-0.72 0.24z"/>
	<path d="m118.62 49.71l-0.72-0.24c-0.186-2.174-1.103-4.442 0.96-5.28l0.72 0.24 0.72-0.24c0.926 1.788 0.887 6.166-1.439 6.24l-0.24-0.72z"/>
	<path d="m111.42 88.11l0.72-0.24c0.372 1.924 1.408 5.805-1.439 5.76l-0.721-0.24-0.72 0.24c0.015-2.386-0.469-5.269 1.44-5.76l0.72 0.24z"/>
	<path d="m102.78 134.19l0.72-0.24c0.667 1.766 1.066 5.753-1.44 5.76l-0.479-0.24-0.48 0.24c-1.498-1.552-1.125-5.152 0.96-5.76l0.72 0.24z"/>
	<path d="m92.463 184.83h0.96c2.358 0.515 0.477 2.223-0.479 3.359l-0.24-0.72-0.721 0.24c0.349-1.469-0.828-1.412-0.479-2.88h0.959z"/>
	<path d="m86.944 217.23l0.72-0.24c-0.157 2.884 0.69 6.771-1.44 7.681l-0.48-0.24-0.48-0.24c-1.507 0.228-1.961-0.599-2.4-1.439 1.862-1.499 2.476-4.244 3.84-6.24l0.24 0.72z"/>
	<path d="m113.34 46.351l0.72 0.24c-0.142 1.618-0.241 3.279-0.96 4.32l-0.239-0.72-0.721 0.24h-7.68l0.24-0.72-0.721-0.24v-0.96c-0.906 0.213-2.893-0.653-2.399 0.96l-0.72 0.24-0.721-0.24v-0.96c-1.094-0.134-1.804 0.116-1.92 0.96l-0.72 0.24 0.24 0.72h-2.4l0.24-0.72-0.72-0.24c-2.729-0.799-8.792-0.799-11.521 0l-0.72 0.24 0.24 0.72h-1.92l-0.24-0.72-0.72 0.24c-0.013-0.467-0.587-0.373-0.96-0.48l0.24-1.2-1.2 0.24c-0.408 0.088-0.453-0.187-0.48-0.48l0.72-0.56-0.24-0.88c11.451-0.519 21.627-0.315 32.64-0.96l0.72-0.24 0.24-0.72c0.753 0.207 0.41 1.51 1.92 0.96l-0.24 0.72z"/>
	<path d="m139.74 51.15l-0.24 0.72c-1.959 0.494-2.561-2.242-0.48-1.92l0.561 0.72 0.88-0.24v0.96l-0.72-0.24z"/>
	<path d="m140.46 90.03l0.479-0.24c0.553 0.567 0.544 1.696 0.48 2.88l-0.72-0.24-0.721 0.24-0.119-1.44 0.119-1.44 0.48 0.24z"/>
	<path d="m77.583 46.11c0.408-0.088 0.453 0.188 0.48 0.48l-0.72 0.56 0.24 0.88h-0.96l0.16-1.12 0.8-0.8z"/>
	<path d="m64.624 83.07c0.63 0.169 0.755 0.845 1.44 0.96l0.72 0.24 0.72-0.24c0.072 1.194 1.625 0.141 1.92 0l0.56 0.72 0.88-0.24c5.548 1.114 10.197 0.2 15.36 1.44l-0.72 0.56 1.704 0.751c-8.184 0.142-15.8 0.124-23.417 0.183 0.078 0.558-0.233 1.761-0.607 1.867l-0.56-0.72-0.88 0.24c-0.284-2.524 0.973-3.507 1.44-5.28l0.88 0.24 0.56-0.721z"/>
	<g stroke="#000" stroke-linecap="round" fill="none">
		<path stroke-width=".9466" d="m95.343 154.35c0.529-2.075 0.669-4.396 1.44-6.479"/>
		<path stroke-width=".9164" d="m93.423 165.39c0.342-2.461 0.545-5.064 1.44-7.439"/>
		<path stroke-width=".9165" d="m81.184 225.87c4.053-19.237 7.798-38.29 11.28-57.6"/>
		<path stroke-width="1.2505" d="m72.543 269.07c2.773-13.18 5.256-26.973 7.92-40.08"/>
		<path stroke-width="1.5759" d="m139.86 49.351c4.363-0.347 9.334-0.215 13.423 1.025 0.163 1.255 0.081 2.774-0.665 3.827-3.877 0.818-7.968-0.954-11.918-0.172"/>
		<path stroke-width="1.6532" d="m140.7 54.03c2.044 11.594 3.194 24.072 5.439 36"/>
		<path stroke-width="1.2846" d="m1.144 267.75c-0.086-0.028-0.173-0.057-0.259-0.085-0.199-0.073-0.368-0.17-0.535-0.268-1.263-4.549 1.2-9.115 2.586-13.198 11.162-32.888 21.721-61.396 32.28-92.958 5.106-15.263 9.664-30.672 15.248-45.771"/>
		<path stroke-width="1.5582" d="m50.463 115.47c7.035-21.638 13.979-43.483 22.386-64.538"/>
		<path stroke-width="1.5156" d="m72.849 50.932c3.758-14.861 9.313-29.163 13.614-43.941"/>
		<path stroke-width="1.2799" d="m82.144 2.831c15.786-1.021 31.669-2.304 47.28-2.32"/>
		<path stroke-width="1.5164" d="m129.42 0.511c3.66-1.146 7.871-0.152 11.368 0.904 0.151 0.61 0.195 1.441 0.061 2.116-0.422 0.394-0.748 0.519-1.108 0.74"/>
		<path stroke-width="1.4751" d="m121.5 3.791c0.822-0.62 1.897-0.8 2.88-0.48"/>
		<path stroke-width="1.0182" d="m129.42 0.511v1.2"/>
		<path stroke-width="1.1711" d="m114.46 89.07c1.755-11.674 3.775-23.239 6.56-34.56"/>
		<path stroke-width=".9895" d="m121.02 54.51c-0.451-0.831-0.251-1.812 0.48-2.4"/>
		<path stroke-width="1.0859" d="m121.5 52.11c-0.202-1.557 0.096-3.404 0.96-4.8"/>
		<path stroke-width="1.199" d="m122.46 47.311c1.568-10.681 3.297-21.921 6-32.4"/>
		<path stroke-width=".8314" d="m109.5 84.75c0.602 0.276 1.32 0.421 2.16 0.48"/>
		<path stroke-width="1.2629" d="m111.66 85.23c2.642-11.753 4.455-23.713 6.96-35.52"/>
		<path stroke-width="1.2201" d="m119.58 44.431c0.145-1.299 0.757-2.519 0.72-3.84"/>
		<path stroke-width="1.105" d="m111.66 85.23c0.077 0.975-0.073 1.927-0.24 2.88"/>
		<path stroke-width="1.1606" d="m83.295 231.34c1.447-2.054 1.778-4.559 2.448-6.912"/>
		<path stroke-width="1.0898" d="m86.944 217.23c2.045-9.945 3.977-19.862 5.76-29.76"/>
		<path stroke-width="1.0019" d="m92.463 184.83c-1.126-1.113-0.149-3.012 1.36-2.96"/>
		<path stroke-width="1.0961" d="m93.824 181.87c2.475-14.239 5.141-28.012 7.76-42.4"/>
		<path stroke-width="1.241" d="m102.78 134.19c2.136-13.602 5.334-27.097 7.199-40.8"/>
		<path stroke-width=".982" d="m97.503 143.79c2.458-13.857 5.877-30.467 8.754-44.949 0.917-4.613 1.017-10.267 3.246-14.091"/>
		<path stroke-width="1.098" d="m109.5 84.75c3.496-25.288 9.22-50.479 14.4-75.84"/>
		<path stroke-width=".9414" d="m114.06 42.75c-0.034 1.218 0.252 2.64-0.72 3.6"/>
		<path stroke-width="1.1036" d="m96.423 133.35c-0.042 1.353-0.072 2.728-0.96 3.84"/>
		<path stroke-width=".9271" d="m95.463 137.19c-0.13 2.184-0.149 4.234-0.84 6.12"/>
		<path stroke-width="1.3205" d="m39.664 176.55c14.925 1.39 29.99 1.704 44.88 3.24"/>
		<path stroke-width="1.039" d="m87.423 179.79c1.037-2.781 6.648-33.501 7.2-36.48"/>
		<path stroke-width="1.2265" d="m76.576 232.4c-1.302 12.844-5.099 25.645-7.072 38.592l-1.276 6.635 9.49 0.639 4.186-20.713c6.868-30.514 11.199-61.434 18.079-91.129"/>
		<path stroke-width="1.7414" d="m106.33 254.6c0.377 0.23 0.886 0.422 1.204 0.517 0.428-0.069 1.226-0.14 1.803-0.361 1.056-7.435-0.826-15.269-0.023-22.833"/>
		<path stroke-width="1.0679" d="m109.31 231.92c-1.546-4.763-0.995-10.142-0.768-15.168"/>
		<path stroke-width="1.0704" d="m108.54 216.75c-2.192-24.25-1.655-49.654-3.96-73.561"/>
		<path stroke-width=".96" d="m104.25 143.01c-0.355 0.903-0.638 2.273-0.69 2.573-0.12 0.684-2.861 15.422-3.593 20.592"/>
		<path stroke-width="1.0929" d="m104.58 143.19c1.773-14.997 5.292-29.75 8.16-44.16"/>
		<path stroke-width="1.0733" d="m112.74 99.03c0.041-2.534 0.116-5.577 1.56-7.56"/>
		<path stroke-width="1.44" d="m114.3 91.47v-0.48"/>
		<path stroke-width="1.4924" d="m72.849 50.932c0.609 0.146 1.038 0.222 1.494 0.338"/>
		<path stroke-width="1.1823" d="m74.343 51.271c1.328-1.143 0.93-3.294 2.44-4.36"/>
		<path stroke-width="1.6528" d="m76.784 46.911c-0.269-0.97 0.51-1.797 0.64-2.72"/>
		<path stroke-width="1.1143" d="m77.423 44.19c3.219-11.247 6.644-22.136 10.48-33.36"/>
		<path stroke-width="1.1077" d="m100.14 43.11c3.585 0.335 7.254-0.033 10.801 0.04"/>
		<path stroke-width="1.1934" d="m110.94 43.15c0.964-0.514 2.071-0.376 3.119-0.4"/>
		<path stroke-width="1.2041" d="m114.06 42.75c2.76-12.005 5.06-24.616 6.96-36.72"/>
		<path stroke-width="1.1934" d="m77.423 44.19c1.109 0.003 2.251 0.11 3.28-0.4"/>
		<path stroke-width="1.1166" d="m80.704 43.791c0.119-1.884 1.014-3.496 1.28-5.28"/>
		<path stroke-width="1.483" d="m80.704 43.791c1.014 0.226 2.093 0.209 3.12 0.08"/>
		<path stroke-width="1.172" d="m83.823 43.871c2.538-9.457 5.693-19.544 8.88-28.72"/>
		<path stroke-width="1.4179" d="m173.98 261.87c-9.429-56.757-18.255-113.48-27.68-169.92"/>
		<path stroke-width="1.1184" d="m140.7 54.03c-0.614-0.862-0.613-1.923-0.96-2.88"/>
		<path stroke-width="1.3035" d="m139.86 49.351c-2.597-12.083-3.423-24.633-6.04-36.6"/>
		<path stroke-width="1.3974" d="m134.86 53.311c0.876 5.621 2.31 11.372 2.079 17.12"/>
		<path stroke-width="1.3136" d="m136.94 70.43c1.919 4.053 2.047 8.946 1.921 13.44"/>
		<path stroke-width="1.0998" d="m138.86 83.871c1.602 1.584 1.142 4.109 1.6 6.16"/>
		<path stroke-width="1.4922" d="m161.34 223.47c3.074 12.259 4.608 24.869 6.24 37.439"/>
		<path stroke-width="1.0161" d="m170.94 261.39c-13.473-82.479-27.317-165.22-40.079-247.68"/>
		<path stroke-width="1.3125" d="m83.823 43.871c3.708-0.244 7.438-0.348 11.16-0.52"/>
		<path stroke-width="1.2196" d="m94.983 43.351c-0.053-8.909-1.222-17.839-0.84-26.76"/>
		<path stroke-width="1.0182" d="m97.263 43.23c0.956-0.064 1.945 0.134 2.88-0.12"/>
		<path stroke-width="1.3282" d="m100.14 43.11c0.504-9.025-0.785-17.968-0.96-27"/>
		<path stroke-width="1.18" d="m122.46 47.311c3.82 0.289 7.891 0.833 11.52 0.96"/>
		<path stroke-width="1.053" d="m133.98 48.271c-1.84-11.228-2.368-22.751-5.52-33.36"/>
		<path stroke-width="1.2185" d="m94.983 43.351c0.653 0.525 1.67 0.429 2.28-0.12"/>
		<path stroke-width="1.0968" d="m97.263 43.23c-0.329-8.873-0.779-17.786-1.2-26.64"/>
		<path stroke-width="1.1474" d="m110.94 43.15c0.162 0.626 0.2 1.457 0.479 2.24"/>
		<path stroke-width="1.5179" d="m77.343 47.15c0.32 0.107 0.64 0.213 0.96 0.32"/>
		<path stroke-width="1.2579" d="m66.784 84.271c4.186-11.92 7.746-24.273 12.479-36"/>
		<path stroke-width="1.1023" d="m74.343 51.271c-2.629 11.066-7.698 21.506-10.28 32.52"/>
		<path stroke-width="1.3817" d="m123.42 52.59c3.817-0.482 7.573 0.77 11.44 0.72"/>
		<path stroke-width="1.0613" d="m134.86 53.311c0.017-1.717-0.332-3.412-0.881-5.04"/>
		<path stroke-width="1.0567" d="m100.86 49.71c1.212 0.438 2.619 0.346 3.84 0"/>
		<path stroke-width="1.0193" d="m82.624 49.71c4.247 0.39 8.717 0.403 12.96 0"/>
		<path stroke-width=".967" d="m80.343 54.391c-0.318-1.524-0.615-3.271 0.36-4.68"/>
		<path stroke-width="1.4924" d="m139.86 49.351c-0.075 0.396-0.165 0.868-0.28 1.32"/>
		<path stroke-width="1.0234" d="m100.86 49.71c-1.062 0.331-2.303 0.38-3.36 0"/>
		<path stroke-width="1.0276" d="m97.983 54.51c1.056-0.491 2.183-0.214 3.12 0.36"/>
		<path stroke-width="1.2006" d="m101.1 54.871c3.407-0.635 7.041-0.196 10.561 0"/>
		<path stroke-width="1.0056" d="m111.66 54.871c0.102-0.062 0.203-0.125 0.305-0.187 0.237-1.524 0.642-2.952 0.896-4.494"/>
		<path stroke-width="1.0407" d="m52.704 116.27c0.083-0.053 0.166-0.105 0.249-0.158 2.738-8.953 5.28-17.769 9.271-26.322"/>
		<path stroke-width="1.7307" d="m62.224 89.791c0.056-0.207 0.256-0.766 0.4-1.2"/>
		<path stroke-width="1.0661" d="m121.02 54.51c0.809 0.304 1.905 0.474 2.502-0.308 0.161-0.364 0.079-1.014-0.102-1.612"/>
		<path stroke-width="1.2496" d="m123.42 52.59c-0.64-0.178-1.28-0.248-1.92-0.48"/>
		<path stroke-width="1.2494" d="m97.263 86.791c-0.989-10.662-0.735-21.569-1.68-32.28"/>
		<path stroke-width="1.417" d="m95.583 54.51c-5.001-0.284-10.291 0.362-15.24-0.12"/>
		<path stroke-width="1.2391" d="m80.343 54.391c-3.618 9.857-7.022 20.35-10.36 30.36"/>
		<path stroke-width="1.0668" d="m99.183 86.791c-0.231-10.775-0.864-21.436-1.2-32.28"/>
		<path stroke-width="1.0263" d="m97.983 54.51c-0.8-0.28-1.6-0.246-2.399 0"/>
			<line x2="102.54" y1="86.911" x1="102.54" y2="86.911" stroke-width="1.3576"/>
		<path stroke-width=".9464" d="m102.54 86.911c0.125-5.028-1.374-10.482-0.12-15.24"/>
		<path stroke-width="1.1973" d="m102.42 71.67c-1.062-4.033-1.281-8.725-0.792-12.648"/>
		<path stroke-width="1.4905" d="m101.1 54.871c-0.17 1.426 0.513 2.744 0.528 4.152"/>
		<path stroke-width="1.1166" d="m107.94 72.871c2.04-5.473 2.815-12.006 3.72-18"/>
		<path stroke-width="1.1204" d="m106.5 80.07c1.371-1.984 1.417-4.772 1.44-7.2"/>
		<path stroke-width="1.0771" d="m107.94 72.871c-3.126-4.054-3.066-9.954-6.312-13.848"/>
		<path stroke-width="1.4471" d="m136.94 70.43c-0.034 0.012-0.069 0.024-0.104 0.037-2.033 5.999-2.257 12.819-3.816 19.083"/>
		<path stroke-width="1.1426" d="m105.42 87.03c0.102-0.062 0.203-0.124 0.305-0.186 0.37-2.211 1.092-4.456 0.775-6.774"/>
		<path stroke-width=".9705" d="m106.5 80.07c-2.074-2.346-1.854-6.177-4.08-8.4"/>
		<path stroke-width="2.8999" d="m137.34 91.15c0.834 0.121 1.681 0.064 2.521 0.08"/>
		<path stroke-width="1.3502" d="m138.86 83.871c-0.035 0.012-0.07 0.024-0.104 0.036-1.366 1.467-0.641 3.863-1.416 5.644"/>
		<path stroke-width="1.4514" d="m62.224 89.791c0.668 0.61 1.614 0.608 2.378 1.025"/>
		<path stroke-width="1.9733" d="m64.602 90.816c0.96-0.078 1.983-0.188 2.902 0.174"/>
		<path stroke-width="1.924" d="m67.503 90.99c9.778-0.433 19.863-0.22 29.76-0.18"/>
		<path stroke-width="1.953" d="m97.263 90.811c0.794-0.084 1.606-0.098 2.4 0"/>
		<path stroke-width="1.9524" d="m99.664 90.811c1.033-0.155 2.095 0.066 3.12-0.18"/>
		<path stroke-width="2.1466" d="m102.78 90.63c0.08-0.04 0.16-0.08 0.239-0.12"/>
		<path stroke-width="1.2195" d="m103.02 90.51c-0.416-1.158-0.561-2.368-0.479-3.6"/>
		<path stroke-width="1.0182" d="m102.54 86.911c-1.115-0.07-2.266 0.143-3.36-0.12"/>
		<path stroke-width="1.0263" d="m99.183 86.791c-0.559 0.14-1.417 0.123-1.92 0"/>
		<path stroke-width="1.2564" d="m97.263 86.791c-3.913 0.348-7.854-0.128-11.76-0.28"/>
		<path stroke-width="2.008" d="m103.02 90.51c0.47 0.17 1.024 0.217 1.393 0.288"/>
		<path stroke-width="1.0226" d="m104.42 90.798c0.654-1.132 1.174-2.403 1.008-3.768"/>
		<path stroke-width="1.0182" d="m105.42 87.03c-0.937-0.231-1.925-0.065-2.88-0.12"/>
		<path stroke-width="1.0227" d="m52.704 116.27c-1.484 5.107-3.919 10.32-4.64 15.52"/>
		<path stroke-width="1.2316" d="m48.063 131.79c1.043 0.482 2.187 0.101 3.24-0.12"/>
		<path stroke-width="1.26" d="m51.303 131.67c3.654-13.565 8.879-27.35 13.298-40.854"/>
		<path stroke-width="1.1233" d="m114.3 91.47c4.866 9.946 7.301 21.396 12.36 30.84"/>
		<path stroke-width="1.3141" d="m126.66 122.31c3.106-8.974 3.351-19.751 5.88-29.4"/>
		<path stroke-width="1.1426" d="m51.303 131.67c0.867 0.538 2.067 0.451 3 0.12"/>
		<path stroke-width="1.1717" d="m54.303 131.79c4.201-13.482 9.19-26.938 13.2-40.8"/>
		<path stroke-width="1.355" d="m54.303 131.79c12.746 1.097 26.627 0.138 38.88 1.92"/>
		<path stroke-width="1.3653" d="m93.183 133.71c1.024-0.386 2.155-0.646 3.24-0.36"/>
		<path stroke-width="1.2669" d="m96.423 133.35c1.615-4.735 1.939-10.126 2.76-15.24"/>
		<path stroke-width="1.1063" d="m99.183 118.11c1.574-2.248 1.34-5.232 1.681-7.92"/>
		<path stroke-width="1.3534" d="m97.263 90.811c1.102 8.974-0.097 18.623 1.92 27.3"/>
		<path stroke-width="1.159" d="m100.86 110.19c0.157-0.09 0.314-0.18 0.472-0.271 0.842-4.869 2.119-9.369 2.168-14.37"/>
		<path stroke-width=".904" d="m99.664 90.811c0.203 6.469 0.113 13.081 1.2 19.38"/>
		<path stroke-width="1.1287" d="m103.5 95.55c1.194-1.197 1.249-3.221 0.912-4.752"/>
		<path stroke-width=".952" d="m102.78 90.63c0.258 1.62-0.1 3.463 0.72 4.92"/>
		<path stroke-width="1.0657" d="m128.14 140.51c12.344 26.943 21.121 55.897 33.2 82.96"/>
		<path stroke-width="1.1598" d="m161.34 223.47c0.3-6.327-1.363-12.503-2.948-18.583"/>
		<path stroke-width="1.0745" d="m158.4 204.89c-10.411-24.733-20.101-49.055-28.731-74.857"/>
		<path stroke-width="1.0911" d="m129.66 130.03c-1.881-1.993-2.575-4.974-3-7.72"/>
		<path stroke-width="1.3891" d="m129.66 130.03c3.156-12.655 5.06-25.759 7.2-38.72"/>
		<path stroke-width="1.1203" d="m158.4 204.89c-4.634-36.988-11.741-74.723-17.691-112.46"/>
		<path stroke-width="1.1937" d="m108.54 216.75c6.491-26.617 10.322-56.03 17.04-83.04"/>
		<path stroke-width="1.0839" d="m125.58 133.71c-3.293-12.053-7.898-23.605-12.84-34.68"/>
		<path stroke-width="1.151" d="m33.184 176.43c0.905 0.322 1.978 0.362 2.88 0"/>
		<path stroke-width="1.2325" d="m36.063 176.43c4.337-13.77 9.075-27.333 13.68-41.04"/>
		<path stroke-width="1.1424" d="m1.144 267.75c5.056-14.568 9.632-28.931 15-43.08"/>
		<path stroke-width="1.5554" d="m16.144 224.67c0.386-0.954 0.738-1.907 1.08-2.88"/>
		<path stroke-width=".9551" d="m17.224 221.79c4.472-13.89 8.504-28.954 14.76-42.24"/>
		<path stroke-width="1.5854" d="m31.983 179.55c0.054-1.107 0.618-2.201 1.2-3.12"/>
		<path stroke-width=".9176" d="m33.184 176.43c3.929-14.25 8.568-28.841 14.16-42"/>
		<path stroke-width="1.133" d="m47.343 134.43c0.646 0.683 1.755 0.249 2.4 0.96"/>
		<path stroke-width="1.9498" d="m49.744 135.39c1.039 0.037 2.094-0.1 3.12 0.12"/>
		<path stroke-width="1.749" d="m52.863 135.51c13.577 0.163 27.408 1.587 40.8 1.2"/>
		<path stroke-width="1.6628" d="m48.063 131.79c-0.546 0.738-0.621 1.744-0.72 2.64"/>
		<path stroke-width="1.6489" d="m93.664 136.71c0.383 0.188 1.165 0.329 1.8 0.48"/>
		<path stroke-width="1.2496" d="m93.183 133.71c0.157 1.001 0.363 1.993 0.48 3"/>
		<path stroke-width="1.3019" d="m109.31 231.92c0.095-0.046 0.189-0.091 0.283-0.136 6.548-29.937 12.046-61.126 18.549-91.272"/>
		<path stroke-width="1.6278" d="m128.14 140.51c-0.649-2.312-0.945-4.948-2.56-6.8"/>
		<path stroke-width="1.0226" d="m36.063 176.43c1.141 0.355 2.43 0.311 3.6 0.12"/>
		<path stroke-width="1.0504" d="m39.664 176.55c3.966-13.823 9.215-27.121 13.2-41.04"/>
		<path stroke-width="1.0748" d="m100.38 166.35c0.112 0.16 0.225 0.32 0.336 0.48 1.942 16.045 0.466 34.348 2.688 53.942 1.178 10.393-1.448 27.574 2.354 33.64 0.081 0.129 0.464 0.068 0.566 0.184"/>
		<path stroke-width=".9876" d="m106.33 254.6c-1.09-32.512-2.133-67.312-4.34-99.692"/>
		<path stroke-width="1.1085" d="m31.983 179.55c0.777 0.813 2.1 0.12 2.88 0.96"/>
		<path stroke-width="1.8925" d="m34.863 180.51c0.97 0.02 1.976-0.132 2.88 0.32"/>
		<path stroke-width="1.7921" d="m37.744 180.83c15.673 0.771 31.339 2.4 47.04 2.979"/>
		<path stroke-width=".9895" d="m84.783 183.81c0.12-1.366-1.01-2.649-0.24-4.02"/>
		<path stroke-width="1.0733" d="m86.463 184.11c0.788-1.334 0.688-2.852 0.96-4.319"/>
		<path stroke-width="1.121" d="m87.423 179.79c-0.905-0.323-1.978-0.362-2.88 0"/>
		<path stroke-width=".9699" d="m17.224 221.79c1.147-0.071 2.268 0.799 3.36 0.12"/>
		<path stroke-width="1.2629" d="m20.583 221.91c4.273-14.036 8.999-27.927 14.28-41.4"/>
		<path stroke-width="1.2635" d="m20.583 221.91c1.046 0.521 2.328 0.435 3.48 0.6"/>
		<path stroke-width="1.0141" d="m24.063 222.51c3.445-14.273 9.896-27.484 13.68-41.68"/>
		<path stroke-width="1.4838" d="m75.423 228.27c0.81-0.01 1.616-0.016 2.28 0.12"/>
		<path stroke-width="1.0269" d="m77.704 228.39c3.602-14.81 6.583-29.393 8.76-44.28"/>
		<path stroke-width="1.6159" d="m86.463 184.11c-0.903 0.009-1.477-0.234-1.68-0.3"/>
		<path stroke-width="1.1487" d="m92.463 184.83c0.893-0.603 1.503-1.071 1.835-1.634-0.013-0.352-0.191-0.876-0.475-1.326"/>
		<path stroke-width="1.2143" d="m16.144 224.67c0.577 1.05 2.078 0.729 2.48 1.92"/>
		<path stroke-width="1.8141" d="m22.264 226.59c17.65 1.973 35.306 3.592 52.92 5.7"/>
		<path stroke-width="1.0182" d="m75.184 232.29c0.102-1.335-0.239-2.74 0.24-4.021"/>
		<path stroke-width="1.2579" d="m75.423 228.27c-16.975-2.283-34.271-3.887-51.36-5.76"/>
		<path stroke-width="1.6398" d="m1.144 267.75c2.156 0.632 4.758 0.513 6.99 0.031 5.114-13.361 9.519-27.417 14.13-41.191"/>
		<path stroke-width="1.6512" d="m22.264 226.59c-1.173-0.593-2.424 0.083-3.64 0"/>
		<path stroke-width="1.4266" d="m18.624 226.59c-0.358 0.733-0.615 1.277-0.8 2.16"/>
		<path stroke-width="1.9557" d="m75.184 232.29c0.469 0.046 1.024 0.06 1.392 0.107"/>
		<path stroke-width="1.0263" d="m76.576 232.4c1.227-0.979 1.003-2.636 1.128-4.008"/>
		<path stroke-width="1.0855" d="m83.295 231.34c-1.322 0.49-1.11 2.416-0.417 3.322 0.324 0.165 0.809 0.106 1.197 0 0.166-0.777 1.145-1.274 0.964-2.135-0.31-0.31-1.21-0.63-1.744-1.18"/>
	</g>
</g>
<metadata><rdf:RDF><cc:Work><dc:format>image/svg+xml</dc:format><dc:type rdf:resource="http://purl.org/dc/dcmitype/StillImage"/><cc:license rdf:resource="http://creativecommons.org/licenses/publicdomain/"/><dc:publisher><cc:Agent rdf:about="http://openclipart.org/"><dc:title>Openclipart</dc:title></cc:Agent></dc:publisher><dc:title>ladder</dc:title><dc:date>2006-10-07T20:56:19</dc:date><dc:description>a step ladder or painter's ladder</dc:description><dc:source>http://openclipart.org/detail/426/ladder-by-johnny_automatic-426</dc:source><dc:creator><cc:Agent><dc:title>johnny_automatic</dc:title></cc:Agent></dc:creator><dc:subject><rdf:Bag><rdf:li>black &amp; white</rdf:li><rdf:li>clip art</rdf:li><rdf:li>clipart</rdf:li><rdf:li>contour</rdf:li><rdf:li>equipment</rdf:li><rdf:li>ladder</rdf:li><rdf:li>line art</rdf:li><rdf:li>outline</rdf:li><rdf:li>step</rdf:li><rdf:li>tools</rdf:li><rdf:li>vintage</rdf:li></rdf:Bag></dc:subject></cc:Work><cc:License rdf:about="http://creativecommons.org/licenses/publicdomain/"><cc:permits rdf:resource="http://creativecommons.org/ns#Reproduction"/><cc:permits rdf:resource="http://creativecommons.org/ns#Distribution"/><cc:permits rdf:resource="http://creativecommons.org/ns#DerivativeWorks"/></cc:License></rdf:RDF></metadata></svg>
