<svg xmlns="http://www.w3.org/2000/svg" overflow="visible" viewBox="0 0 175.097 278.911"><g clip-rule="evenodd" fill-rule="evenodd"><path d="M140.46 4.831c-.802 1.279-4.426-.266-5.28.96-.081 2.479.298 5.417-.479 7.2l-.88-.24-.561.72c-.76.04-1.831-.231-1.92.48l-.479-.24-.48.24c-.428.212-.858.421-.96.96h-1.92c-.153-1.113.077-1.843.479-2.4-2.197-.202-2.628-2.171-4.319-2.88l.24-.72-.721-.24c-.336-2.096.816-2.704.48-4.8l.72-.56-.24-.88c1.664-.256 4.553.713 4.8-.96l.48.24.479.24c3.2.641 6.395 1.286 10.08 1.44l-.239.88.72.56zm5.68 85.199l.561-.72c1.06.06.203 2.036.479 2.88l-.88-.24-.56.72c-2.407.719-1.492-2.806-.48-2.88l.88.24zm27.84 171.84l.561-.72c2.56 3.174-4.436 4.545-7.2 2.88-.153-1.127-.759-1.802-.479-3.359l.72.239.72-.239c1.15-.19-.267 2.186 1.44 1.439.467-.013.372-.588.479-.96l.72.24.24-.72c.415.294 1.055 2.691 1.92.96l.88.24zM86.463 6.991l-.72-.24c-4.147 1.683-8.635-4.464-3.36-4.8l-.24.88.72.56c-.993 2.016 5.801.583 8.16.48 9.714-.422 20.966-.176 30.721-.96l-.24.88.72.56c-.04.76.231 1.831-.479 1.92l-.721-.24-.239.72c-.389-.091-.479-.481-.96-.48-6.582 1.162-13.469 1.13-18.721 1.44-.245 3.114-.719 6-1.439 8.64l-.48-.24-.479.24c-.918.224-2.066-1.479-1.92.48l-.721-.24-.72.24h-.479l-.721-.24-.72.24c.078-.558-.105-.854-.479-.96l-.24-.72-.721.24a9.313 9.313 0 01-3.84-3.84l-.239-.72-.721.24c-.513-1.876 2.831-4.193.48-4.8-.092.389-.481.479-.48.96l-.718-.24zM113.58 91.23v-2.4l.88.24.56-.72c6.137-.34 12.928 1.104 17.761.48l.239.72.721-.24c.333.375 2.678 1.068 2.88 0l.72.24.72.24-.72 1.36.24 1.52-.72-1.36-.721 1.36c-1.593-.153-2.952-.073-3.359.96l-.24-.72-.72-.24c-6.599-.546-10.678-.717-16.801-1.44l-.72-.24-.72.24zm5.04-41.52l-.72-.24c-.186-2.174-1.103-4.442.96-5.28l.72.24.72-.24c.926 1.788.887 6.166-1.439 6.24l-.24-.72zm-7.2 38.4l.72-.24c.372 1.924 1.408 5.805-1.439 5.76l-.721-.24-.72.24c.015-2.386-.469-5.269 1.44-5.76l.72.24zm-8.64 46.08l.72-.24c.667 1.766 1.066 5.753-1.44 5.76l-.479-.24-.48.24c-1.498-1.552-1.125-5.152.96-5.76l.72.24zm-10.317 50.64h.96c2.358.515.477 2.223-.479 3.359l-.24-.72-.721.24c.349-1.469-.828-1.412-.479-2.88h.959zm-5.519 32.4l.72-.24c-.157 2.884.69 6.771-1.44 7.681l-.48-.24-.48-.24c-1.507.228-1.961-.599-2.4-1.439 1.862-1.499 2.476-4.244 3.84-6.24l.24.72zM113.34 46.351l.72.24c-.142 1.618-.241 3.279-.96 4.32l-.239-.72-.721.24h-7.68l.24-.72-.721-.24v-.96c-.906.213-2.893-.653-2.399.96l-.72.24-.721-.24v-.96c-1.094-.134-1.804.116-1.92.96l-.72.24.24.72h-2.4l.24-.72-.72-.24c-2.729-.799-8.792-.799-11.521 0l-.72.24.24.72h-1.92l-.24-.72-.72.24c-.013-.467-.587-.373-.96-.48l.24-1.2-1.2.24c-.408.088-.453-.187-.48-.48l.72-.56-.24-.88c11.451-.519 21.627-.315 32.64-.96l.72-.24.24-.72c.753.207.41 1.51 1.92.96l-.24.72zm26.4 4.799l-.24.72c-1.959.494-2.561-2.242-.48-1.92l.561.72.88-.24v.96l-.72-.24zm.72 38.88l.479-.24c.553.567.544 1.696.48 2.88l-.72-.24-.721.24-.119-1.44.119-1.44.48.24z"/><path d="M77.583 46.11c.408-.088.453.188.48.48l-.72.56.24.88h-.96l.16-1.12.8-.8zM64.624 83.07c.63.169.755.845 1.44.96l.72.24.72-.24c.072 1.194 1.625.141 1.92 0l.56.72.88-.24c5.548 1.114 10.197.2 15.36 1.44l-.72.56 1.704.751c-8.184.142-15.8.124-23.417.183.078.558-.233 1.761-.607 1.867l-.56-.72-.88.24c-.284-2.524.973-3.507 1.44-5.28l.88.24.56-.721z"/><g stroke="#000" stroke-linecap="round" fill="none"><path stroke-width=".947" d="M95.343 154.35c.529-2.075.669-4.396 1.44-6.479"/><path stroke-width=".916" d="M93.423 165.39c.342-2.461.545-5.064 1.44-7.439M81.184 225.87a1999.345 1999.345 0 0011.28-57.6"/><path stroke-width="1.25" d="M72.543 269.07c2.773-13.18 5.256-26.973 7.92-40.08"/><path stroke-width="1.576" d="M139.86 49.351c4.363-.347 9.334-.215 13.423 1.025.163 1.255.081 2.774-.665 3.827-3.877.818-7.968-.954-11.918-.172"/><path stroke-width="1.653" d="M140.7 54.03c2.044 11.594 3.194 24.072 5.439 36"/><path stroke-width="1.285" d="M1.144 267.75l-.259-.085a3.259 3.259 0 01-.535-.268c-1.263-4.549 1.2-9.115 2.586-13.198 11.162-32.888 21.721-61.396 32.28-92.958 5.106-15.263 9.664-30.672 15.248-45.771"/><path stroke-width="1.558" d="M50.463 115.47c7.035-21.638 13.979-43.483 22.386-64.538"/><path stroke-width="1.516" d="M72.849 50.932c3.758-14.861 9.313-29.163 13.614-43.941"/><path stroke-width="1.28" d="M82.144 2.831C97.93 1.81 113.813.527 129.424.511"/><path stroke-width="1.516" d="M129.42.511c3.66-1.146 7.871-.152 11.368.904.151.61.195 1.441.061 2.116-.422.394-.748.519-1.108.74"/><path stroke-width="1.475" d="M121.5 3.791c.822-.62 1.897-.8 2.88-.48"/><path stroke-width="1.018" d="M129.42.511v1.2"/><path stroke-width="1.171" d="M114.46 89.07c1.755-11.674 3.775-23.239 6.56-34.56"/><path stroke-width=".99" d="M121.02 54.51a1.881 1.881 0 01.48-2.4"/><path stroke-width="1.086" d="M121.5 52.11c-.202-1.557.096-3.404.96-4.8"/><path stroke-width="1.199" d="M122.46 47.311c1.568-10.681 3.297-21.921 6-32.4"/><path stroke-width=".831" d="M109.5 84.75c.602.276 1.32.421 2.16.48"/><path stroke-width="1.263" d="M111.66 85.23c2.642-11.753 4.455-23.713 6.96-35.52"/><path stroke-width="1.22" d="M119.58 44.431c.145-1.299.757-2.519.72-3.84"/><path stroke-width="1.105" d="M111.66 85.23c.077.975-.073 1.927-.24 2.88"/><path stroke-width="1.161" d="M83.295 231.34c1.447-2.054 1.778-4.559 2.448-6.912"/><path stroke-width="1.09" d="M86.944 217.23a1233.564 1233.564 0 005.76-29.76"/><path stroke-width="1.002" d="M92.463 184.83c-1.126-1.113-.149-3.012 1.36-2.96"/><path stroke-width="1.096" d="M93.824 181.87c2.475-14.239 5.141-28.012 7.76-42.4"/><path stroke-width="1.241" d="M102.78 134.19c2.136-13.602 5.334-27.097 7.199-40.8"/><path stroke-width=".982" d="M97.503 143.79c2.458-13.857 5.877-30.467 8.754-44.949.917-4.613 1.017-10.267 3.246-14.091"/><path stroke-width="1.098" d="M109.5 84.75c3.496-25.288 9.22-50.479 14.4-75.84"/><path stroke-width=".941" d="M114.06 42.75c-.034 1.218.252 2.64-.72 3.6"/><path stroke-width="1.104" d="M96.423 133.35c-.042 1.353-.072 2.728-.96 3.84"/><path stroke-width=".927" d="M95.463 137.19c-.13 2.184-.149 4.234-.84 6.12"/><path stroke-width="1.321" d="M39.664 176.55c14.925 1.39 29.99 1.704 44.88 3.24"/><path stroke-width="1.039" d="M87.423 179.79c1.037-2.781 6.648-33.501 7.2-36.48"/><path stroke-width="1.226" d="M76.576 232.4c-1.302 12.844-5.099 25.645-7.072 38.592l-1.276 6.635 9.49.639 4.186-20.713c6.868-30.514 11.199-61.434 18.079-91.129"/><path stroke-width="1.741" d="M106.33 254.6c.377.23.886.422 1.204.517.428-.069 1.226-.14 1.803-.361 1.056-7.435-.826-15.269-.023-22.833"/><path stroke-width="1.068" d="M109.31 231.92c-1.546-4.763-.995-10.142-.768-15.168"/><path stroke-width="1.07" d="M108.54 216.75c-2.192-24.25-1.655-49.654-3.96-73.561"/><path stroke-width=".96" d="M104.25 143.01c-.355.903-.638 2.273-.69 2.573-.12.684-2.861 15.422-3.593 20.592"/><path stroke-width="1.093" d="M104.58 143.19c1.773-14.997 5.292-29.75 8.16-44.16"/><path stroke-width="1.073" d="M112.74 99.03c.041-2.534.116-5.577 1.56-7.56"/><path stroke-width="1.44" d="M114.3 91.47v-.48"/><path stroke-width="1.492" d="M72.849 50.932c.609.146 1.038.222 1.494.338"/><path stroke-width="1.182" d="M74.343 51.271c1.328-1.143.93-3.294 2.44-4.36"/><path stroke-width="1.653" d="M76.784 46.911c-.269-.97.51-1.797.64-2.72"/><path stroke-width="1.114" d="M77.423 44.19a684.49 684.49 0 0110.48-33.36"/><path stroke-width="1.108" d="M100.14 43.11c3.585.335 7.254-.033 10.801.04"/><path stroke-width="1.193" d="M110.94 43.15c.964-.514 2.071-.376 3.119-.4"/><path stroke-width="1.204" d="M114.06 42.75c2.76-12.005 5.06-24.616 6.96-36.72"/><path stroke-width="1.193" d="M77.423 44.19c1.109.003 2.251.11 3.28-.4"/><path stroke-width="1.117" d="M80.704 43.791c.119-1.884 1.014-3.496 1.28-5.28"/><path stroke-width="1.483" d="M80.704 43.791c1.014.226 2.093.209 3.12.08"/><path stroke-width="1.172" d="M83.823 43.871c2.538-9.457 5.693-19.544 8.88-28.72"/><path stroke-width="1.418" d="M173.98 261.87c-9.429-56.757-18.255-113.48-27.68-169.92"/><path stroke-width="1.118" d="M140.7 54.03c-.614-.862-.613-1.923-.96-2.88"/><path stroke-width="1.304" d="M139.86 49.351c-2.597-12.083-3.423-24.633-6.04-36.6"/><path stroke-width="1.397" d="M134.86 53.311c.876 5.621 2.31 11.372 2.079 17.12"/><path stroke-width="1.314" d="M136.94 70.43c1.919 4.053 2.047 8.946 1.921 13.44"/><path stroke-width="1.1" d="M138.86 83.871c1.602 1.584 1.142 4.109 1.6 6.16"/><path stroke-width="1.492" d="M161.34 223.47c3.074 12.259 4.608 24.869 6.24 37.439"/><path stroke-width="1.016" d="M170.94 261.39c-13.473-82.479-27.317-165.22-40.079-247.68"/><path stroke-width="1.313" d="M83.823 43.871c3.708-.244 7.438-.348 11.16-.52"/><path stroke-width="1.22" d="M94.983 43.351c-.053-8.909-1.222-17.839-.84-26.76"/><path stroke-width="1.018" d="M97.263 43.23c.956-.064 1.945.134 2.88-.12"/><path stroke-width="1.328" d="M100.14 43.11c.504-9.025-.785-17.968-.96-27"/><path stroke-width="1.18" d="M122.46 47.311c3.82.289 7.891.833 11.52.96"/><path stroke-width="1.053" d="M133.98 48.271c-1.84-11.228-2.368-22.751-5.52-33.36"/><path stroke-width="1.218" d="M94.983 43.351c.653.525 1.67.429 2.28-.12"/><path stroke-width="1.097" d="M97.263 43.23c-.329-8.873-.779-17.786-1.2-26.64"/><path stroke-width="1.147" d="M110.94 43.15c.162.626.2 1.457.479 2.24"/><path stroke-width="1.518" d="M77.343 47.15l.96.32"/><path stroke-width="1.258" d="M66.784 84.271c4.186-11.92 7.746-24.273 12.479-36"/><path stroke-width="1.102" d="M74.343 51.271c-2.629 11.066-7.698 21.506-10.28 32.52"/><path stroke-width="1.382" d="M123.42 52.59c3.817-.482 7.573.77 11.44.72"/><path stroke-width="1.061" d="M134.86 53.311c.017-1.717-.332-3.412-.881-5.04"/><path stroke-width="1.057" d="M100.86 49.71c1.212.438 2.619.346 3.84 0"/><path stroke-width="1.019" d="M82.624 49.71c4.247.39 8.717.403 12.96 0"/><path stroke-width=".967" d="M80.343 54.391c-.318-1.524-.615-3.271.36-4.68"/><path stroke-width="1.492" d="M139.86 49.351c-.075.396-.165.868-.28 1.32"/><path stroke-width="1.023" d="M100.86 49.71c-1.062.331-2.303.38-3.36 0"/><path stroke-width="1.028" d="M97.983 54.51c1.056-.491 2.183-.214 3.12.36"/><path stroke-width="1.201" d="M101.1 54.871c3.407-.635 7.041-.196 10.561 0"/><path stroke-width="1.006" d="M111.66 54.871l.305-.187c.237-1.524.642-2.952.896-4.494"/><path stroke-width="1.041" d="M52.704 116.27l.249-.158c2.738-8.953 5.28-17.769 9.271-26.322"/><path stroke-width="1.731" d="M62.224 89.791c.056-.207.256-.766.4-1.2"/><path stroke-width="1.066" d="M121.02 54.51c.809.304 1.905.474 2.502-.308.161-.364.079-1.014-.102-1.612"/><path stroke-width="1.25" d="M123.42 52.59c-.64-.178-1.28-.248-1.92-.48"/><path stroke-width="1.249" d="M97.263 86.791c-.989-10.662-.735-21.569-1.68-32.28"/><path stroke-width="1.417" d="M95.583 54.51c-5.001-.284-10.291.362-15.24-.12"/><path stroke-width="1.239" d="M80.343 54.391c-3.618 9.857-7.022 20.35-10.36 30.36"/><path stroke-width="1.067" d="M99.183 86.791c-.231-10.775-.864-21.436-1.2-32.28"/><path stroke-width="1.026" d="M97.983 54.51c-.8-.28-1.6-.246-2.399 0"/><path stroke-width="1.358" d="M102.54 86.911h0"/><path stroke-width=".946" d="M102.54 86.911c.125-5.028-1.374-10.482-.12-15.24"/><path stroke-width="1.197" d="M102.42 71.67c-1.062-4.033-1.281-8.725-.792-12.648"/><path stroke-width="1.49" d="M101.1 54.871c-.17 1.426.513 2.744.528 4.152"/><path stroke-width="1.117" d="M107.94 72.871c2.04-5.473 2.815-12.006 3.72-18"/><path stroke-width="1.12" d="M106.5 80.07c1.371-1.984 1.417-4.772 1.44-7.2"/><path stroke-width="1.077" d="M107.94 72.871c-3.126-4.054-3.066-9.954-6.312-13.848"/><path stroke-width="1.447" d="M136.94 70.43l-.104.037c-2.033 5.999-2.257 12.819-3.816 19.083"/><path stroke-width="1.143" d="M105.42 87.03l.305-.186c.37-2.211 1.092-4.456.775-6.774"/><path stroke-width=".971" d="M106.5 80.07c-2.074-2.346-1.854-6.177-4.08-8.4"/><path stroke-width="2.9" d="M137.34 91.15c.834.121 1.681.064 2.521.08"/><path stroke-width="1.35" d="M138.86 83.871l-.104.036c-1.366 1.467-.641 3.863-1.416 5.644"/><path stroke-width="1.451" d="M62.224 89.791c.668.61 1.614.608 2.378 1.025"/><path stroke-width="1.973" d="M64.602 90.816c.96-.078 1.983-.188 2.902.174"/><path stroke-width="1.924" d="M67.503 90.99c9.778-.433 19.863-.22 29.76-.18"/><path stroke-width="1.953" d="M97.263 90.811a10.584 10.584 0 012.4 0"/><path stroke-width="1.952" d="M99.664 90.811c1.033-.155 2.095.066 3.12-.18"/><path stroke-width="2.147" d="M102.78 90.63l.239-.12"/><path stroke-width="1.22" d="M103.02 90.51c-.416-1.158-.561-2.368-.479-3.6"/><path stroke-width="1.018" d="M102.54 86.911c-1.115-.07-2.266.143-3.36-.12"/><path stroke-width="1.026" d="M99.183 86.791c-.559.14-1.417.123-1.92 0"/><path stroke-width="1.256" d="M97.263 86.791c-3.913.348-7.854-.128-11.76-.28"/><path stroke-width="2.008" d="M103.02 90.51c.47.17 1.024.217 1.393.288"/><path stroke-width="1.023" d="M104.42 90.798c.654-1.132 1.174-2.403 1.008-3.768"/><path stroke-width="1.018" d="M105.42 87.03c-.937-.231-1.925-.065-2.88-.12"/><path stroke-width="1.023" d="M52.704 116.27c-1.484 5.107-3.919 10.32-4.64 15.52"/><path stroke-width="1.232" d="M48.063 131.79c1.043.482 2.187.101 3.24-.12"/><path stroke-width="1.26" d="M51.303 131.67c3.654-13.565 8.879-27.35 13.298-40.854"/><path stroke-width="1.123" d="M114.3 91.47c4.866 9.946 7.301 21.396 12.36 30.84"/><path stroke-width="1.314" d="M126.66 122.31c3.106-8.974 3.351-19.751 5.88-29.4"/><path stroke-width="1.143" d="M51.303 131.67c.867.538 2.067.451 3 .12"/><path stroke-width="1.172" d="M54.303 131.79c4.201-13.482 9.19-26.938 13.2-40.8"/><path stroke-width="1.355" d="M54.303 131.79c12.746 1.097 26.627.138 38.88 1.92"/><path stroke-width="1.365" d="M93.183 133.71c1.024-.386 2.155-.646 3.24-.36"/><path stroke-width="1.267" d="M96.423 133.35c1.615-4.735 1.939-10.126 2.76-15.24"/><path stroke-width="1.106" d="M99.183 118.11c1.574-2.248 1.34-5.232 1.681-7.92"/><path stroke-width="1.353" d="M97.263 90.811c1.102 8.974-.097 18.623 1.92 27.3"/><path stroke-width="1.159" d="M100.86 110.19l.472-.271c.842-4.869 2.119-9.369 2.168-14.37"/><path stroke-width=".904" d="M99.664 90.811c.203 6.469.113 13.081 1.2 19.38"/><path stroke-width="1.129" d="M103.5 95.55c1.194-1.197 1.249-3.221.912-4.752"/><path stroke-width=".952" d="M102.78 90.63c.258 1.62-.1 3.463.72 4.92"/><path stroke-width="1.066" d="M128.14 140.51c12.344 26.943 21.121 55.897 33.2 82.96"/><path stroke-width="1.16" d="M161.34 223.47c.3-6.327-1.363-12.503-2.948-18.583"/><path stroke-width="1.075" d="M158.4 204.89c-10.411-24.733-20.101-49.055-28.731-74.857"/><path stroke-width="1.091" d="M129.66 130.03c-1.881-1.993-2.575-4.974-3-7.72"/><path stroke-width="1.389" d="M129.66 130.03c3.156-12.655 5.06-25.759 7.2-38.72"/><path stroke-width="1.12" d="M158.4 204.89c-4.634-36.988-11.741-74.723-17.691-112.46"/><path stroke-width="1.194" d="M108.54 216.75c6.491-26.617 10.322-56.03 17.04-83.04"/><path stroke-width="1.084" d="M125.58 133.71c-3.293-12.053-7.898-23.605-12.84-34.68"/><path stroke-width="1.151" d="M33.184 176.43c.905.322 1.978.362 2.88 0"/><path stroke-width="1.232" d="M36.063 176.43c4.337-13.77 9.075-27.333 13.68-41.04"/><path stroke-width="1.142" d="M1.144 267.75c5.056-14.568 9.632-28.931 15-43.08"/><path stroke-width="1.555" d="M16.144 224.67c.386-.954.738-1.907 1.08-2.88"/><path stroke-width=".955" d="M17.224 221.79c4.472-13.89 8.504-28.954 14.76-42.24"/><path stroke-width="1.585" d="M31.983 179.55c.054-1.107.618-2.201 1.2-3.12"/><path stroke-width=".918" d="M33.184 176.43c3.929-14.25 8.568-28.841 14.16-42"/><path stroke-width="1.133" d="M47.343 134.43c.646.683 1.755.249 2.4.96"/><path stroke-width="1.95" d="M49.744 135.39c1.039.037 2.094-.1 3.12.12"/><path stroke-width="1.749" d="M52.863 135.51c13.577.163 27.408 1.587 40.8 1.2"/><path stroke-width="1.663" d="M48.063 131.79c-.546.738-.621 1.744-.72 2.64"/><path stroke-width="1.649" d="M93.664 136.71c.383.188 1.165.329 1.8.48"/><path stroke-width="1.25" d="M93.183 133.71c.157 1.001.363 1.993.48 3"/><path stroke-width="1.302" d="M109.31 231.92l.283-.136c6.548-29.937 12.046-61.126 18.549-91.272"/><path stroke-width="1.628" d="M128.14 140.51c-.649-2.312-.945-4.948-2.56-6.8"/><path stroke-width="1.023" d="M36.063 176.43c1.141.355 2.43.311 3.6.12"/><path stroke-width="1.05" d="M39.664 176.55c3.966-13.823 9.215-27.121 13.2-41.04"/><path stroke-width="1.075" d="M100.38 166.35l.336.48c1.942 16.045.466 34.348 2.688 53.942 1.178 10.393-1.448 27.574 2.354 33.64.081.129.464.068.566.184"/><path stroke-width=".988" d="M106.33 254.6c-1.09-32.512-2.133-67.312-4.34-99.692"/><path stroke-width="1.109" d="M31.983 179.55c.777.813 2.1.12 2.88.96"/><path stroke-width="1.893" d="M34.863 180.51c.97.02 1.976-.132 2.88.32"/><path stroke-width="1.792" d="M37.744 180.83c15.673.771 31.339 2.4 47.04 2.979"/><path stroke-width=".99" d="M84.783 183.81c.12-1.366-1.01-2.649-.24-4.02"/><path stroke-width="1.073" d="M86.463 184.11c.788-1.334.688-2.852.96-4.319"/><path stroke-width="1.121" d="M87.423 179.79c-.905-.323-1.978-.362-2.88 0"/><path stroke-width=".97" d="M17.224 221.79c1.147-.071 2.268.799 3.36.12"/><path stroke-width="1.263" d="M20.583 221.91c4.273-14.036 8.999-27.927 14.28-41.4"/><path stroke-width="1.264" d="M20.583 221.91c1.046.521 2.328.435 3.48.6"/><path stroke-width="1.014" d="M24.063 222.51c3.445-14.273 9.896-27.484 13.68-41.68"/><path stroke-width="1.484" d="M75.423 228.27c.81-.01 1.616-.016 2.28.12"/><path stroke-width="1.027" d="M77.704 228.39c3.602-14.81 6.583-29.393 8.76-44.28"/><path stroke-width="1.616" d="M86.463 184.11c-.903.009-1.477-.234-1.68-.3"/><path stroke-width="1.149" d="M92.463 184.83c.893-.603 1.503-1.071 1.835-1.634-.013-.352-.191-.876-.475-1.326"/><path stroke-width="1.214" d="M16.144 224.67c.577 1.05 2.078.729 2.48 1.92"/><path stroke-width="1.814" d="M22.264 226.59c17.65 1.973 35.306 3.592 52.92 5.7"/><path stroke-width="1.018" d="M75.184 232.29c.102-1.335-.239-2.74.24-4.021"/><path stroke-width="1.258" d="M75.423 228.27c-16.975-2.283-34.271-3.887-51.36-5.76"/><path stroke-width="1.64" d="M1.144 267.75c2.156.632 4.758.513 6.99.031 5.114-13.361 9.519-27.417 14.13-41.191"/><path stroke-width="1.651" d="M22.264 226.59c-1.173-.593-2.424.083-3.64 0"/><path stroke-width="1.427" d="M18.624 226.59c-.358.733-.615 1.277-.8 2.16"/><path stroke-width="1.956" d="M75.184 232.29c.469.046 1.024.06 1.392.107"/><path stroke-width="1.026" d="M76.576 232.4c1.227-.979 1.003-2.636 1.128-4.008"/><path stroke-width="1.085" d="M83.295 231.34c-1.322.49-1.11 2.416-.417 3.322.324.165.809.106 1.197 0 .166-.777 1.145-1.274.964-2.135-.31-.31-1.21-.63-1.744-1.18"/></g></g></svg>