<?xml version="1.0" encoding="utf-8"?>
<!-- Generator: Adobe Illustrator 23.0.6, SVG Export Plug-In . SVG Version: 6.00 Build 0)  -->
<svg version="1.1" id="Layer_1" xmlns="http://www.w3.org/2000/svg" xmlns:xlink="http://www.w3.org/1999/xlink" x="0px" y="0px"
	 viewBox="0 0 95.5 280.4" style="enable-background:new 0 0 95.5 280.4;" xml:space="preserve">
<style type="text/css">
	.st0{fill:#F1B803;}
</style>
<g>
	<path class="st0" d="M90.2,280.4c3.3,0,5.3-2,5.3-5.2V5.2c0-3.2-2-5.2-5.3-5.2H5.3C2,0,0,2,0,5.2v270c0,3.2,2,5.2,5.3,5.2
		L90.2,280.4L90.2,280.4z"/>
	<path d="M0,275.2c0,0.8,0.1,1.4,0.3,2l2.8,2.8c0.6,0.2,1.4,0.3,2.2,0.3h41.9L0,233.2L0,275.2L0,275.2z M0,199.2l81.2,81.2h9
		c3.3,0,5.3-2,5.3-5.2V251L0,155.5L0,199.2L0,199.2z M0,121.5L95.5,217v-43.8L0,77.7V121.5z M95.5,95.6L1.4,1.4C0.5,2.3,0,3.6,0,5.2
		v38.6l95.5,95.5L95.5,95.6L95.5,95.6z M95.5,17.8L77.7,0H33.9l61.6,61.6L95.5,17.8L95.5,17.8z"/>
</g>
</svg>
