<svg xmlns="http://www.w3.org/2000/svg" viewBox="-0.376 -0.896 512 455"><path d="M469.51 453.38c22.752-.072 41.184-18.504 41.184-41.256 0-7.272-1.872-14.328-5.472-20.592l-214.2-370.94c-7.34-12.742-21.02-20.59-35.71-20.59-14.616 0-28.224 7.848-35.64 20.592l-214.2 370.87c-3.598 6.27-5.47 13.4-5.47 20.67 0 22.752 18.432 41.256 41.184 41.256h428.33z" fill="#ED171F"/><path fill="#FEB82F" d="M255.24 53.856L52.128 405.72H458.35z"/><path d="M186.77 321.19l196.06 36.144c9.144-7.344 14.472-18.288 14.472-29.952 0-7.416-2.16-14.616-6.192-20.808l-182.38-74.232-66.312 37.944c-2.88 1.656-4.68 4.68-4.824 7.992l-3.456 127.51h21.528l-2.808-127.44 33.91 42.85z"/><path d="M200.74 317.3c-11.448-25.848-4.464-56.16 17.208-74.376l20.304 8.28c-13.464 10.8-21.312 27.144-21.312 44.496a57 57 0 006.12 25.704l-22.32-4.1z" fill="#FEB82F"/><path d="M200.3 248.83l-39.816 22.824 26.496 33.408c-4.392-19.8.576-40.464 13.392-56.232h-.07zM287.71 271.37c-11.808 8.28-18.792 21.816-18.792 36.216 0 8.352 2.304 16.56 6.696 23.544l-24.768-4.536c-11.232-22.176-4.824-49.32 15.264-64.008l21.6 8.79zM338.47 292.03c-8.784 7.2-13.896 17.928-13.896 29.304 0 6.984 1.944 13.824 5.616 19.872l-26.064-4.824c-10.656-18.072-5.976-41.4 10.872-54l23.47 9.65zM378.43 350.06a34.693 34.693 0 017.632-38.736l-19.728-7.992c-9.216 4.968-15.048 14.616-15.048 25.128 0 6.48 2.16 12.672 6.192 17.784l20.96 3.82z" fill="#FEB82F"/></svg>