<svg xmlns="http://www.w3.org/2000/svg" xmlns:xlink="http://www.w3.org/1999/xlink" version="1.1" x="0px" y="0px" viewBox="0 0 100 125" enable-background="new 0 0 100 100" xml:space="preserve"><g><path d="M84.113,30.304c0-1.203-0.975-2.177-2.177-2.177c-1.203,0-2.177,0.975-2.177,2.177v0.061c0,1.203,0.975,2.177,2.177,2.177   c1.202,0,2.177-0.975,2.177-2.177V30.304z"/><path d="M81.936,40.399c-1.203,0-2.177,0.975-2.177,2.177v0.061c0,1.203,0.975,2.177,2.177,2.177c1.202,0,2.177-0.975,2.177-2.177   v-0.061C84.113,41.373,83.138,40.399,81.936,40.399z"/><path d="M55.778,17.339h0.058c1.202,0,2.177-0.975,2.177-2.177s-0.975-2.177-2.177-2.177h-0.058c-1.203,0-2.177,0.975-2.177,2.177   S54.575,17.339,55.778,17.339z"/><path d="M67.39,17.339h0.058c1.202,0,2.177-0.975,2.177-2.177s-0.975-2.177-2.177-2.177H67.39c-1.203,0-2.177,0.975-2.177,2.177   S66.188,17.339,67.39,17.339z"/><path d="M20.02,60.916c1.202,0,2.177-0.975,2.177-2.177v-0.058c0-1.203-0.975-2.177-2.177-2.177c-1.203,0-2.177,0.975-2.177,2.177   v0.058C17.842,59.941,18.817,60.916,20.02,60.916z"/><path d="M17.842,70.351c0,1.203,0.975,2.177,2.177,2.177c1.202,0,2.177-0.975,2.177-2.177v-0.058c0-1.203-0.975-2.177-2.177-2.177   c-1.203,0-2.177,0.975-2.177,2.177V70.351z"/><path d="M45.385,82.661h-0.056c-1.203,0-2.177,0.975-2.177,2.177c0,1.203,0.975,2.177,2.177,2.177h0.056   c1.202,0,2.177-0.975,2.177-2.177C47.562,83.636,46.587,82.661,45.385,82.661z"/><path d="M34.168,82.661h-0.056c-1.203,0-2.177,0.975-2.177,2.177c0,1.203,0.975,2.177,2.177,2.177h0.056   c1.202,0,2.177-0.975,2.177-2.177C36.346,83.636,35.371,82.661,34.168,82.661z"/><path d="M45.645,29.889V12.047C45.644,8.154,42.491,5.001,38.598,5H12.047C8.154,5.001,5.001,8.154,5,12.047v17.842   c0.001,3.892,3.154,7.046,7.047,7.047h11.824v8.71h-5.323c-0.802,0-1.452,0.65-1.452,1.452c0,0.802,0.65,1.452,1.452,1.452h13.548   c0.802,0,1.452-0.65,1.452-1.452c0-0.802-0.65-1.452-1.452-1.452h-5.323v-8.71h11.824C42.491,36.935,45.644,33.781,45.645,29.889z    M42.742,29.889c-0.001,1.149-0.462,2.175-1.214,2.93c-0.755,0.752-1.781,1.213-2.93,1.214H12.047   c-1.149-0.001-2.176-0.462-2.93-1.214c-0.752-0.754-1.213-1.781-1.214-2.93V12.047c0.001-1.149,0.462-2.176,1.214-2.93   c0.755-0.752,1.781-1.213,2.93-1.214h26.551c1.149,0.001,2.175,0.462,2.93,1.214c0.752,0.754,1.213,1.781,1.214,2.93V29.889z"/><path d="M81.936,19.516c2.406-0.001,4.354-1.949,4.355-4.355c-0.001-2.406-1.949-4.354-4.355-4.355   c-2.406,0.001-4.354,1.949-4.355,4.355C77.582,17.567,79.53,19.515,81.936,19.516z M81.936,13.71   c0.801,0.001,1.45,0.65,1.452,1.452c-0.002,0.801-0.651,1.45-1.452,1.452c-0.801-0.001-1.45-0.65-1.452-1.452   C80.485,14.36,81.134,13.711,81.936,13.71z"/><path d="M20.02,80.484c-2.406,0.001-4.354,1.949-4.355,4.355c0.001,2.406,1.949,4.354,4.355,4.355   c2.406-0.001,4.354-1.949,4.355-4.355C24.374,82.433,22.425,80.485,20.02,80.484z M20.02,86.29c-0.801-0.001-1.45-0.65-1.452-1.452   c0.002-0.801,0.651-1.45,1.452-1.452c0.801,0.001,1.45,0.65,1.452,1.452C21.47,85.64,20.821,86.289,20.02,86.29z"/><path d="M73.24,51.452c-12.023,0.003-21.786,9.764-21.789,21.76c0,1.624,0.193,3.197,0.535,4.719   c0.008,0.189,0.053,0.373,0.131,0.543c0.221,0.874,0.479,1.735,0.811,2.566l0.013,0.069c1.247,3.201,3.244,6.029,5.752,8.304   l0.093,0.081c0.726,0.651,1.488,1.264,2.293,1.818l0.014,0.01C64.551,93.637,68.742,95,73.24,95   C85.236,94.997,94.997,85.234,95,73.211C94.997,61.216,85.236,51.455,73.24,51.452z M86.564,59.887   c1.363,1.364,2.507,2.939,3.404,4.661l-0.037,0.173c-0.17,0.74-0.65,2.092-1.154,3.25c-0.252,0.581-0.512,1.124-0.732,1.527   c-0.11,0.2-0.21,0.366-0.282,0.472l-0.078,0.106l-0.008,0.007l-5.435,5.03c-0.409,0.357-0.862,0.506-1.325,0.509   c-0.444,0.001-0.885-0.15-1.225-0.416c-0.34-0.269-0.589-0.631-0.695-1.149l-0.001-0.004l-1.626-8.013l-0.002,0   c-0.268-1.446-1.202-2.59-2.358-3.279l-0.055-0.031l-3.426-1.858l-0.043-0.022c-0.318-0.162-0.531-0.376-0.691-0.655   c-0.157-0.278-0.249-0.627-0.249-1.008c0.004-0.461,0.131-0.863,0.427-1.229l-0.001-0.001c0.726-0.869,1.06-1.935,1.058-2.958   c0-0.195-0.017-0.389-0.04-0.581c0.415-0.027,0.828-0.063,1.25-0.063C78.437,54.355,83.143,56.469,86.564,59.887z M55.669,80.106   l-0.028-0.096c-0.266-0.662-0.477-1.345-0.662-2.039l0.923-2.031c0.406-0.836,1.153-1.258,1.941-1.264   c0.583,0.009,1.084,0.206,1.607,0.756l0.004-0.004c0.984,1.122,2.368,1.689,3.731,1.687h1.742c0.571,0,1.094,0.236,1.487,0.63   c0.392,0.395,0.625,0.924,0.624,1.48l-0.013,0.23l-0.004,0.039l-0.171,2.109c-0.178,1.535-1.041,2.947-2.378,3.822l-4.4,1.292   C58.172,84.847,56.649,82.603,55.669,80.106z M86.564,86.561c-3.421,3.422-8.127,5.535-13.323,5.536   c-3.881,0-7.48-1.167-10.463-3.147l2.734-0.803c0.116-0.034,0.246-0.092,0.35-0.155c2.183-1.339,3.594-3.591,3.877-6.066   l0.005-0.048l0.174-2.148l-0.002,0c0.017-0.167,0.028-0.334,0.028-0.504c-0.001-1.371-0.569-2.623-1.469-3.527   c-0.898-0.905-2.157-1.486-3.546-1.486h-1.742c-0.593-0.002-1.162-0.238-1.569-0.712l-0.038-0.043   c-0.986-1.077-2.344-1.692-3.735-1.683c-1.294-0.004-2.545,0.519-3.489,1.436c0.001-5.196,2.114-9.901,5.536-13.322   c2.489-2.485,5.664-4.267,9.212-5.063l0.024,0.174c-0.002,0.418-0.128,0.794-0.388,1.105l-0.013,0.016   c-0.749,0.911-1.086,2.018-1.083,3.067c0,0.839,0.199,1.68,0.622,2.433c0.413,0.739,1.058,1.382,1.88,1.802l-0.001,0.002   l3.379,1.833c0.57,0.35,0.904,0.816,0.993,1.324l0.007,0.036l1.626,8.013l-0.001-0.004c0.237,1.199,0.896,2.203,1.759,2.871   c0.864,0.671,1.922,1.027,3.008,1.028c1.131,0.003,2.304-0.401,3.249-1.237l0.026-0.023l5.458-5.052l-0.003-0.003   c0.267-0.246,0.42-0.464,0.587-0.712c0.293-0.452,0.577-0.999,0.867-1.616c0.157-0.335,0.309-0.698,0.461-1.058   c0.338,1.41,0.537,2.874,0.537,4.386C92.096,78.424,89.982,83.137,86.564,86.561z"/></g><text x="0" y="115" fill="#000000" font-size="5px" font-weight="bold" font-family="'Helvetica Neue', Helvetica, Arial-Unicode, Arial, Sans-serif">Created by Viktor Ostrovsky</text><text x="0" y="120" fill="#000000" font-size="5px" font-weight="bold" font-family="'Helvetica Neue', Helvetica, Arial-Unicode, Arial, Sans-serif">from the Noun Project</text></svg>