<svg xmlns="http://www.w3.org/2000/svg" xmlns:xlink="http://www.w3.org/1999/xlink" version="1.1" x="0px" y="0px" viewBox="0 0 100 125" style="enable-background:new 0 0 100 100;" xml:space="preserve"><g><g><path d="M13.6,58.6C8.9,58.6,5,54.7,5,50s3.9-8.6,8.6-8.6c4.7,0,8.6,3.9,8.6,8.6S18.3,58.6,13.6,58.6z M13.6,45.2    c-2.6,0-4.8,2.1-4.8,4.8c0,2.6,2.1,4.8,4.8,4.8s4.8-2.1,4.8-4.8C18.4,47.4,16.2,45.2,13.6,45.2z"/></g><g><path d="M86.4,58.6c-4.7,0-8.6-3.9-8.6-8.6s3.9-8.6,8.6-8.6S95,45.3,95,50S91.1,58.6,86.4,58.6z M86.4,45.2    c-2.6,0-4.8,2.1-4.8,4.8c0,2.6,2.1,4.8,4.8,4.8s4.8-2.1,4.8-4.8C91.2,47.4,89,45.2,86.4,45.2z"/></g><g><path d="M50,22.2c-4.7,0-8.6-3.9-8.6-8.6C41.4,8.9,45.3,5,50,5s8.6,3.9,8.6,8.6C58.6,18.3,54.7,22.2,50,22.2z M50,8.8    c-2.6,0-4.8,2.1-4.8,4.8c0,2.6,2.1,4.8,4.8,4.8c2.6,0,4.8-2.1,4.8-4.8C54.8,11,52.6,8.8,50,8.8z"/></g><g><path d="M50,58.6c-4.7,0-8.6-3.9-8.6-8.6s3.9-8.6,8.6-8.6s8.6,3.9,8.6,8.6S54.7,58.6,50,58.6z M50,45.2c-2.6,0-4.8,2.1-4.8,4.8    c0,2.6,2.1,4.8,4.8,4.8c2.6,0,4.8-2.1,4.8-4.8C54.8,47.4,52.6,45.2,50,45.2z"/></g><g><path d="M50,95c-4.7,0-8.6-3.9-8.6-8.6c0-4.7,3.9-8.6,8.6-8.6s8.6,3.9,8.6,8.6C58.6,91.1,54.7,95,50,95z M50,81.6    c-2.6,0-4.8,2.1-4.8,4.8c0,2.6,2.1,4.8,4.8,4.8c2.6,0,4.8-2.1,4.8-4.8C54.8,83.8,52.6,81.6,50,81.6z"/></g><g><path d="M37.5,78.3c-0.5,0-1-0.2-1.4-0.6l-14-14c-0.7-0.7-0.7-2,0-2.7s2-0.7,2.7,0l14,14c0.7,0.7,0.7,2,0,2.7    C38.5,78.2,38,78.3,37.5,78.3z"/></g><g><path d="M62.5,78.3c-0.5,0-1-0.2-1.4-0.6c-0.7-0.7-0.7-2,0-2.7l13.8-13.8c0.7-0.7,2-0.7,2.7,0c0.7,0.7,0.7,2,0,2.7L63.8,77.8    C63.5,78.2,63,78.3,62.5,78.3z"/></g><g><path d="M76.4,39.4c-0.5,0-1-0.2-1.4-0.6l-14-14c-0.7-0.7-0.7-2,0-2.7c0.7-0.7,2-0.7,2.7,0l14,14c0.7,0.7,0.7,2,0,2.7    C77.4,39.2,76.9,39.4,76.4,39.4z"/></g><g><path d="M23.6,39.4c-0.5,0-1-0.2-1.4-0.6c-0.7-0.7-0.7-2,0-2.7l14-14c0.7-0.7,2-0.7,2.7,0c0.7,0.7,0.7,2,0,2.7l-14,14    C24.5,39.2,24.1,39.4,23.6,39.4z"/></g><g><path d="M36.7,51.9h-9.8c-1.1,0-1.9-0.9-1.9-1.9s0.9-1.9,1.9-1.9h9.8c1.1,0,1.9,0.9,1.9,1.9S37.7,51.9,36.7,51.9z"/></g><g><path d="M73.1,51.9h-9.8c-1.1,0-1.9-0.9-1.9-1.9s0.9-1.9,1.9-1.9h9.8c1.1,0,1.9,0.9,1.9,1.9S74.2,51.9,73.1,51.9z"/></g><g><path d="M50,75c-1.1,0-1.9-0.9-1.9-1.9v-9.8c0-1.1,0.9-1.9,1.9-1.9s1.9,0.9,1.9,1.9v9.8C51.9,74.2,51,75,50,75z"/></g><g><path d="M50,38.6c-1.1,0-1.9-0.9-1.9-1.9v-9.8c0-1.1,0.9-1.9,1.9-1.9s1.9,0.9,1.9,1.9v9.8C51.9,37.7,51,38.6,50,38.6z"/></g></g><text x="0" y="115" fill="#000000" font-size="5px" font-weight="bold" font-family="'Helvetica Neue', Helvetica, Arial-Unicode, Arial, Sans-serif">Created by Deivid Sáenz</text><text x="0" y="120" fill="#000000" font-size="5px" font-weight="bold" font-family="'Helvetica Neue', Helvetica, Arial-Unicode, Arial, Sans-serif">from the Noun Project</text></svg>