<svg id="08886e34-de69-478d-85b5-9940de7f9603" data-name="Layer 1" xmlns="http://www.w3.org/2000/svg" viewBox="0 0 144.67 143.09"><path d="M85.16,14.46C93.79,8.35,102.92,7.21,112,12.9c10.25,6.43,13.23,16.29,10.7,28.19A27.45,27.45,0,0,1,137,50.35c7,8.78,8.79,18.67,4.76,29.21S129.94,96.12,119,97.67a33.89,33.89,0,0,1-4.5.29Q71.73,98,29,98c-13.62,0-24.78-9.31-27.74-23C-2.25,59,8.8,42.71,24.56,40.57c1-.13,2-.28,3-.43C25.71,22.63,31.8,9.28,48.12,2.91,62.81-2.82,75.25,2.22,85.16,14.46Z" style="fill:#fff"/><path d="M67.45,98.76H64.32V97.19h3.13Zm-3.91,0H60.4V97.19h3.14Zm-3.92,0H56.49V97.19h3.13Zm8.61,0V97.19h3.14v1.57Zm3.92,0V97.19h3.13v1.57Zm-16.44,0H52.57V97.19h3.14Zm-3.92,0H48.66V97.19h3.13Zm28.19,0V97.19h3.13v1.57Zm-3.92,0V97.19H79.2v1.57Zm-28.19,0H44.74V97.19h3.14Zm36,0V97.19H87v1.56Zm3.92,0V97.19h3.13v1.56ZM44,98.75H40.83V97.19H44Zm-3.92,0H36.91V97.18h3.14Zm51.68,0V97.18h3.13v1.57Zm3.92,0V97.18h3.13v1.57Zm-59.51,0H33V97.18h3.13Zm63.42,0V97.18h3.14v1.57Zm3.92,0V97.18h3.13v1.56Zm-71.26,0H29.08V97.18h3.14Zm75.17,0V97.18h3.14v1.57Zm3.92,0V97.17h3.13v1.57Zm-83,0a28.18,28.18,0,0,1-3.2-.24l.2-1.56a27.89,27.89,0,0,0,3,.24Zm87,0,0-1.56c1.1,0,2.1-.08,3-.19l.18,1.55A31.38,31.38,0,0,1,115.23,98.73Zm4-.3L119,96.88c1-.15,2-.34,3-.57l.36,1.52C121.36,98.07,120.3,98.27,119.23,98.43Zm-94.95-.06a29.69,29.69,0,0,1-3.14-.68l.42-1.51a26.1,26.1,0,0,0,3,.65Zm98.87-.74-.4-1.51a29.9,29.9,0,0,0,2.91-.92l.55,1.46A29.51,29.51,0,0,1,123.15,97.63ZM20.37,97.47a28.89,28.89,0,0,1-3-1.12L18,94.91A25.59,25.59,0,0,0,20.82,96ZM127,96.37l-.6-1.45a27.79,27.79,0,0,0,2.75-1.31l.75,1.37A28.65,28.65,0,0,1,127,96.37ZM16.61,96a27.64,27.64,0,0,1-2.83-1.54l.82-1.33a26.59,26.59,0,0,0,2.68,1.45Zm114-1.44-.79-1.35a23.4,23.4,0,0,0,2.5-1.7l1,1.24A26,26,0,0,1,130.56,94.58ZM13.1,94.05a26.54,26.54,0,0,1-2.58-1.92l1-1.2A26.53,26.53,0,0,0,14,92.74Zm120.76-1.78-1-1.21A24.07,24.07,0,0,0,135.09,89l1.13,1.08A25.82,25.82,0,0,1,133.86,92.27Zm-124-.66a30.52,30.52,0,0,1-2.29-2.26l1.16-1a27.11,27.11,0,0,0,2.16,2.13Zm126.86-2.14-1.17-1a26,26,0,0,0,1.89-2.38l1.28.9A29.11,29.11,0,0,1,136.77,89.47ZM7.09,88.74a30.15,30.15,0,0,1-1.95-2.55l1.29-.88c.57.83,1.2,1.65,1.85,2.42Zm132.13-2.46-1.3-.86c.54-.83,1.06-1.71,1.54-2.63l1.39.73A29.89,29.89,0,0,1,139.22,86.28ZM4.7,85.52a28.3,28.3,0,0,1-1.59-2.79L4.51,82A26.27,26.27,0,0,0,6,84.67ZM141.21,82.8l-1.4-.69c.44-.9.85-1.84,1.22-2.8l1.46.56C142.1,80.87,141.67,81.86,141.21,82.8ZM2.76,82a30.84,30.84,0,0,1-1.22-3L3,78.51c.34,1,.72,1.91,1.15,2.83Zm140-2.88-1.48-.53c.35-1,.65-2,.9-2.92l1.52.39C143.45,77.07,143.13,78.1,142.77,79.12ZM1.29,78.27c-.32-1-.6-2-.83-3.09L2,74.84c.22,1,.48,2,.79,3Zm142.61-3-1.53-.36a28.13,28.13,0,0,0,.53-3l1.56.19C144.33,73.16,144.14,74.22,143.9,75.28ZM.3,74.39A28.71,28.71,0,0,1-.12,71.2l1.56-.12a28,28,0,0,0,.39,3Zm144.24-3.08L143,71.17c.08-.83.12-1.66.12-2.48,0-.19,0-.38,0-.56l1.57,0c0,.2,0,.41,0,.61C144.67,69.56,144.62,70.44,144.54,71.31ZM-.17,70.39c0-.46,0-.92,0-1.38s0-1.22.06-1.84l1.56.1c0,.58,0,1.17,0,1.74s0,.87,0,1.31Zm143.24-3a27.9,27.9,0,0,0-.34-3l1.54-.26a24.67,24.67,0,0,1,.36,3.2ZM1.47,66.51l-1.56-.14a31.25,31.25,0,0,1,.47-3.18l1.53.31A28.36,28.36,0,0,0,1.47,66.51Zm141.12-2.9a27,27,0,0,0-.77-2.94l1.49-.49a29.27,29.27,0,0,1,.82,3.12ZM2.07,62.75.55,62.4c.24-1,.54-2.08.88-3.09l1.48.51C2.58,60.78,2.3,61.77,2.07,62.75Zm139.5-2.81a27.06,27.06,0,0,0-1.18-2.81l1.41-.68a30.64,30.64,0,0,1,1.25,3ZM3.17,59.1l-1.46-.55A30.4,30.4,0,0,1,3,55.61l1.4.7C3.94,57.22,3.53,58.16,3.17,59.1Zm136.88-2.65a28.18,28.18,0,0,0-1.53-2.64l1.32-.85c.59.91,1.13,1.84,1.61,2.77ZM4.75,55.63l-1.39-.74C3.87,54,4.43,53,5,52.14L6.32,53A27.76,27.76,0,0,0,4.75,55.63ZM138.1,53.17c-.52-.78-1.09-1.56-1.7-2.33l-.11-.14,1.21-1,.12.15c.64.8,1.24,1.61,1.78,2.42ZM6.76,52.4l-1.27-.92a28.54,28.54,0,0,1,2-2.5l1.16,1A27.52,27.52,0,0,0,6.76,52.4Zm129-2.28a24.18,24.18,0,0,0-2.11-2.18l1.06-1.16A27.32,27.32,0,0,1,137,49.1ZM9.18,49.46,8,48.38a28.5,28.5,0,0,1,2.33-2.21l1,1.19A27.33,27.33,0,0,0,9.18,49.46Zm123.94-2a24.23,24.23,0,0,0-2.41-1.83l.87-1.31a29.23,29.23,0,0,1,2.56,2ZM12,46.87l-1-1.22a29.73,29.73,0,0,1,2.62-1.87l.83,1.32A28.49,28.49,0,0,0,12,46.87Zm118.1-1.69a27.45,27.45,0,0,0-2.67-1.46l.68-1.41a28.47,28.47,0,0,1,2.82,1.55Zm-115-.47-.8-1.35a25.79,25.79,0,0,1,2.86-1.48l.64,1.43A25.57,25.57,0,0,0,15.09,44.71Zm111.62-1.32c-.91-.4-1.87-.78-2.85-1.11l.5-1.48c1,.35,2,.74,3,1.17ZM18.48,43l-.59-1.45a27.39,27.39,0,0,1,3.05-1L21.36,42A26.38,26.38,0,0,0,18.48,43Zm104.66-1-.68-.21-.7-.2.15-.71c.17-.79.31-1.57.43-2.33l1.55.24c-.09.55-.19,1.13-.3,1.71h0l0,.12a5.41,5.41,0,0,1-.12.58h0Zm-101-.21-.37-1.52a25,25,0,0,1,2.74-.52l.42-.06.21,1.55-.42.06A24.47,24.47,0,0,0,22.09,41.84Zm3.78-.66-.22-1.55,1.08-.16c0-.18,0-.36-.05-.55l1.56-.13c0,.42.07.84.12,1.27l.08.75Zm.74-3c-.07-1.07-.12-2.14-.13-3.17l1.56,0c0,1,.06,2,.14,3.08ZM124,38.05l-1.55-.21c.13-1,.23-2.06.27-3.05l1.56.07C124.24,35.89,124.14,37,124,38.05ZM28,34.16H26.47c0-1.08,0-2.15.11-3.18l1.56.11C28.08,32.09,28,33.12,28,34.16Zm96.27-.1-1.57,0c0-.18,0-.36,0-.54,0-.85,0-1.69-.12-2.5l1.56-.15c.08.86.12,1.75.12,2.65ZM28.2,30.32l-1.56-.13c.1-1.08.23-2.14.4-3.17l1.55.25C28.42,28.27,28.29,29.29,28.2,30.32Zm94.35-.09a23.76,23.76,0,0,0-.54-3l1.51-.38a25,25,0,0,1,.59,3.17Zm-.74-3.71a21.26,21.26,0,0,0-1-2.83l1.43-.64a22,22,0,0,1,1.11,3Zm-93.09,0-1.54-.29c.2-1.06.44-2.11.73-3.11l1.51.42C29.14,24.5,28.91,25.51,28.72,26.52ZM120.45,23a21.86,21.86,0,0,0-1.53-2.6l1.29-.89a23.69,23.69,0,0,1,1.64,2.79Zm-90.82-.2-1.5-.46c.32-1,.69-2.05,1.1-3l1.44.61A29.58,29.58,0,0,0,29.63,22.81Zm88.85-3a22.39,22.39,0,0,0-2-2.3l1.12-1.09a23,23,0,0,1,2.1,2.45ZM31,19.24l-1.43-.65A30.77,30.77,0,0,1,31,15.74l1.35.8A27.52,27.52,0,0,0,31,19.24ZM116,17a24.67,24.67,0,0,0-2.31-2l.94-1.25a27.9,27.9,0,0,1,2.46,2.09Zm-83.2-1.08-1.32-.84a29.62,29.62,0,0,1,1.86-2.62l1.22,1A27.08,27.08,0,0,0,32.77,15.89ZM85,15.51,84.57,15l.58-.54-.44-.62c.89-.62,1.79-1.21,2.69-1.73l.79,1.35c-.86.5-1.73,1.06-2.57,1.66Zm.11-1.07Zm27.89.11c-.47-.33-1-.67-1.48-1-.36-.23-.72-.44-1.08-.65l.76-1.36c.39.22.77.44,1.16.69s1.06.68,1.55,1Zm-29-.21c-.67-.81-1.36-1.59-2-2.31L83.15,11c.7.75,1.41,1.55,2.1,2.38Zm4.8-1.28-.75-1.37A30.61,30.61,0,0,1,91,10.29l.6,1.45A28.54,28.54,0,0,0,88.85,13.06ZM35,12.82l-1.2-1A28.49,28.49,0,0,1,36,9.47L37.1,10.6A28.93,28.93,0,0,0,35,12.82Zm74.79-.27a25,25,0,0,0-2.76-1.25l.54-1.47a25.72,25.72,0,0,1,3,1.33ZM81.47,11.47q-1.09-1.12-2.22-2.13l1-1.17c.77.69,1.54,1.44,2.3,2.21Zm10.83,0L91.74,10a26.72,26.72,0,0,1,3.09-1l.36,1.52A25.23,25.23,0,0,0,92.3,11.45Zm14-.4a20.58,20.58,0,0,0-2.92-.76l.28-1.54a22.29,22.29,0,0,1,3.14.81Zm-10.4-.66-.31-1.53a20.86,20.86,0,0,1,3.22-.41L98.92,10A20.38,20.38,0,0,0,95.93,10.39Zm6.74-.21a19.18,19.18,0,0,0-2.73-.2h-.27l0-1.57h.29a22.26,22.26,0,0,1,3,.2Zm-65-.09-1-1.17c.78-.7,1.62-1.38,2.49-2L40,8.16A30.15,30.15,0,0,0,37.66,10.09Zm41-1.26c-.79-.67-1.59-1.31-2.41-1.9l.92-1.27c.85.62,1.69,1.29,2.51,2Zm-38-1.11-.9-1.29c.86-.59,1.77-1.17,2.71-1.7l.78,1.36C42.34,6.6,41.47,7.15,40.65,7.72Zm35-1.23c-.85-.59-1.72-1.14-2.59-1.63l.77-1.36c.91.51,1.82,1.08,2.71,1.7ZM43.91,5.72l-.75-1.38c.91-.49,1.88-1,2.87-1.4l.63,1.43C45.71,4.79,44.78,5.24,43.91,5.72ZM72.39,4.5a27.47,27.47,0,0,0-2.76-1.28l.58-1.46c1,.4,2,.85,2.91,1.35Zm-25-.44-.61-1.44,1.07-.43c.65-.26,1.29-.49,1.92-.7L50.24,3c-.61.2-1.22.42-1.84.66ZM68.92,3A25,25,0,0,0,66,2.06L66.38.54a26.58,26.58,0,0,1,3.08.94Zm-18-.2-.46-1.5c1-.32,2.07-.59,3.1-.81L53.93,2C53,2.18,52,2.44,51,2.75Zm14.3-.86a27.65,27.65,0,0,0-3-.45l.15-1.56a28,28,0,0,1,3.18.48ZM54.68,1.83,54.39.29c1.07-.2,2.14-.34,3.19-.43l.12,1.56A29.14,29.14,0,0,0,54.68,1.83Zm6.82-.44a14.93,14.93,0,0,0-1.65,0l-1.39,0L58.38-.19c.51,0,1,0,1.51,0s1.15,0,1.71.05Z" style="fill:#033b55"/><rect x="30.05" y="114.79" width="89.84" height="27.52" rx="7.13" ry="7.13" style="fill:#68c8d0"/><path d="M114.3,143.09h-3.13v-1.56h3.13a4.69,4.69,0,0,0,1.66-.3l.54,1.47A6.29,6.29,0,0,1,114.3,143.09Zm-3.91,0h-3.13v-1.56h3.13Zm-3.92,0h-3.13v-1.56h3.13Zm-3.91,0H99.43v-1.56h3.13Zm-3.92,0H95.51v-1.56h3.13Zm-3.91,0H91.6v-1.56h3.13Zm-3.92,0H87.68v-1.56h3.13Zm-3.91,0H83.77v-1.56H86.9Zm-3.92,0H79.85v-1.56H83Zm-3.91,0H75.94v-1.56h3.13Zm-3.92,0H72v-1.56h3.13Zm-3.91,0H68.11v-1.56h3.13Zm-3.92,0H64.19v-1.56h3.13Zm-3.91,0H60.28v-1.56h3.13Zm-3.92,0H56.36v-1.56h3.13Zm-3.91,0H52.45v-1.56h3.13Zm-3.92,0H48.53v-1.56h3.13Zm-3.91,0H44.62v-1.56h3.13Zm-3.92,0H40.7v-1.56h3.13Zm-3.91,0H36.79v-1.56h3.13Zm-3.92,0h-.37a6.38,6.38,0,0,1-3-.76l.75-1.38a4.73,4.73,0,0,0,2.27.58H36Zm81.31-.76-.74-1.37a4.92,4.92,0,0,0,1.9-1.86l1.36.77A6.34,6.34,0,0,1,117.31,142.33Zm-85.45-.48a6.41,6.41,0,0,1-2.15-2.79l1.46-.58a4.81,4.81,0,0,0,1.62,2.11Zm88.36-2.78-1.45-.58a4.78,4.78,0,0,0,.33-1.76v-1h1.57v1A6.28,6.28,0,0,1,120.22,139.07Zm-90.78-.86a6.12,6.12,0,0,1-.18-1.48v-1.82h1.57v1.82a5.18,5.18,0,0,0,.13,1.11Zm91.23-3.29H119.1v-3.14h1.57Zm-89.84-.8H29.26V131h1.57ZM120.67,131H119.1v-3.13h1.57Zm-89.84-.79H29.26v-3.13h1.57Zm89.84-3.12H119.1V124h1.57Zm-89.84-.8H29.26v-3.13h1.57Zm89.84-3.12H119.1v-3.08l1.56-.1c0,.13,0,.26,0,.39Zm-89.84-.79H29.26v-2a6.69,6.69,0,0,1,.13-1.28l1.54.31a4.5,4.5,0,0,0-.1,1Zm88.18-3a4.79,4.79,0,0,0-1.24-2.35l1.14-1.08a6.28,6.28,0,0,1,1.63,3.12Zm-87.9-.66-1.47-.52a6.27,6.27,0,0,1,2.06-2.86l1,1.23A4.83,4.83,0,0,0,31.11,118.76Zm86.17-2.15a4.9,4.9,0,0,0-2.46-1l.17-1.55a6.27,6.27,0,0,1,3.26,1.34Zm-84.06-.38-.79-1.35a6.33,6.33,0,0,1,3.2-.87h.19v1.56h-.19A4.75,4.75,0,0,0,33.22,116.23Zm80.9-.66H111V114h3.13Zm-3.91,0h-3.13V114h3.13Zm-3.92,0h-3.13V114h3.13Zm-3.91,0H99.25V114h3.13Zm-3.92,0H95.33V114h3.13Zm-3.91,0H91.42V114h3.13Zm-3.92,0H87.5V114h3.13Zm-3.91,0H83.59V114h3.13Zm-3.92,0H79.67V114H82.8Zm-3.91,0H75.76V114h3.13Zm-3.92,0H71.84V114H75Zm-3.91,0H67.93V114h3.13Zm-3.92,0H64V114h3.13Zm-3.91,0H60.1V114h3.13Zm-3.92,0H56.18V114h3.13Zm-3.91,0H52.27V114H55.4Zm-3.92,0H48.35V114h3.13Zm-3.91,0H44.44V114h3.13Zm-3.92,0H40.52V114h3.13Zm-3.91,0H36.61V114h3.13Z" style="fill:#033b55"/><path d="M112.39,130.1a4.56,4.56,0,1,1-2.65-6A4.68,4.68,0,0,1,112.39,130.1Z" style="fill:#ef502a"/><path d="M108.26,123.79a4.24,4.24,0,0,1,1.48.26,4.66,4.66,0,0,1,2.65,6,4.79,4.79,0,0,1-4.43,3.23,4.44,4.44,0,0,1-1.48-.26,4.68,4.68,0,0,1-2.65-6.06,4.77,4.77,0,0,1,4.43-3.22m0-1.18h0a6,6,0,0,0-5.54,4,5.86,5.86,0,0,0,3.36,7.56,5.43,5.43,0,0,0,1.88.33,6,6,0,0,0,5.53-4,5.86,5.86,0,0,0-3.35-7.56,5.47,5.47,0,0,0-1.88-.33Z" style="fill:#033b55"/><path d="M112.22,129.42A4.21,4.21,0,1,1,109.7,124,4.19,4.19,0,0,1,112.22,129.42Z" style="fill:#ef502a"/><path d="M108.27,132.49a4.54,4.54,0,0,1-1.54-.27,4.51,4.51,0,0,1-2.7-5.77,4.5,4.5,0,1,1,8.47,3.07h0a4.48,4.48,0,0,1-2.33,2.54A4.36,4.36,0,0,1,108.27,132.49Zm0-8.42a3.91,3.91,0,1,0,1.34.23A4.15,4.15,0,0,0,108.26,124.07Zm4,5.35h0Z" style="fill:#033b55"/><rect x="38.29" y="125.5" width="58.95" height="6.1" rx="2.94" ry="2.94" style="fill:#1da3a9"/><path d="M94.94,132H40.6a2.7,2.7,0,0,1-2.7-2.69v-1.5a2.7,2.7,0,0,1,2.7-2.69H94.94a2.69,2.69,0,0,1,2.69,2.69v1.5A2.69,2.69,0,0,1,94.94,132Zm-54.34-6.1a1.91,1.91,0,0,0-1.91,1.91v1.5a1.91,1.91,0,0,0,1.91,1.91H94.94a1.92,1.92,0,0,0,1.91-1.91v-1.5a1.92,1.92,0,0,0-1.91-1.91Z" style="fill:#033b55"/><rect x="30.05" y="48.75" width="89.84" height="27.52" rx="7.25" ry="7.25" style="fill:#68c8d0"/><path d="M114.26,77.05h-3.21V75.48h3.16Zm-4,0h-3.15V75.48h3.15Zm-3.94,0h-3.16V75.48h3.16Zm-3.95,0H99.22V75.48h3.15Zm-3.94,0H95.27V75.48h3.16Zm-4,0H91.32V75.48h3.16Zm-4,0H87.38V75.48h3.15Zm-3.94,0H83.43V75.48h3.16Zm-4,0H79.49V75.48h3.15Zm-3.94,0H75.54V75.48H78.7Zm-4,0H71.59V75.48h3.16Zm-3.94,0H67.65V75.48h3.16Zm-4,0H63.7V75.48h3.16Zm-4,0H59.76V75.48h3.15Zm-3.94,0H55.81V75.48H59Zm-3.95,0H51.87V75.48H55Zm-3.94,0H47.92V75.48h3.16Zm-3.95,0H44V75.48h3.15Zm-3.94,0H40V75.48h3.16Zm-3.95,0H36.08V75.48h3.16Zm-4,0a6.51,6.51,0,0,1-3.33-1.23l.93-1.27a4.83,4.83,0,0,0,2.52.94Zm79.92,0-.23-1.55a4.85,4.85,0,0,0,2.44-1.12l1,1.2A6.5,6.5,0,0,1,115.16,77ZM31.23,75.22a6.49,6.49,0,0,1-1.77-3.07L31,71.77a4.87,4.87,0,0,0,1.34,2.32Zm87.8-.34-1.17-1A4.86,4.86,0,0,0,119,71.42l1.55.27A6.46,6.46,0,0,1,119,74.88ZM29.3,71.26c0-.22,0-.44,0-.67V68h1.57v2.56a4.36,4.36,0,0,0,0,.51Zm91.37-.46-1.57-.06V67.62h1.57V70.8ZM30.83,67.24H29.26V64.08h1.57Zm89.84-.41H119.1V63.67h1.57ZM30.83,63.29H29.26V60.13h1.57Zm89.84-.41H119.1V59.72h1.57ZM30.83,59.35H29.26V56.19h1.57Zm89.84-.42H119.1V55.78h1.57ZM30.83,55.4H29.26v-1A6.31,6.31,0,0,1,29.74,52l1.45.59a4.83,4.83,0,0,0-.36,1.84ZM120.67,55H119.1v-.56a4.89,4.89,0,0,0-.5-2.16l1.4-.69a6.25,6.25,0,0,1,.67,2.85ZM31.49,52l-1.35-.78a6.49,6.49,0,0,1,2.54-2.47l.74,1.38A5,5,0,0,0,31.49,52Zm86.77-.3A5,5,0,0,0,116.2,50l.64-1.43a6.56,6.56,0,0,1,2.71,2.27ZM34,49.83l-.54-1.47A6.45,6.45,0,0,1,35.72,48h1.16v1.56H35.72A4.84,4.84,0,0,0,34,49.83Zm81.52-.11a5.12,5.12,0,0,0-1.35-.19h-1.57V48h1.57a6.33,6.33,0,0,1,1.78.25Zm-3.71-.19H108.7V48h3.15Zm-3.94,0h-3.16V48h3.16Zm-4,0H100.8V48H104Zm-3.95,0H96.86V48H100Zm-3.94,0H92.91V48h3.16Zm-3.95,0H89V48h3.15Zm-3.94,0H85V48h3.16Zm-4,0H81.08V48h3.15Zm-3.94,0H77.13V48h3.16Zm-4,0H73.18V48h3.16Zm-3.94,0H69.24V48H72.4Zm-4,0H65.29V48h3.16Zm-4,0H61.35V48H64.5Zm-3.94,0H57.4V48h3.16Zm-4,0H53.46V48h3.15Zm-3.94,0H49.51V48h3.16Zm-4,0H45.56V48h3.16Zm-3.94,0H41.62V48h3.16Zm-4,0H37.67V48h3.16Z" style="fill:#033b55"/><path d="M112.39,64.06A4.56,4.56,0,1,1,109.74,58,4.67,4.67,0,0,1,112.39,64.06Z" style="fill:#ef502a"/><path d="M108.26,57.74a4.48,4.48,0,0,1,1.48.26,4.68,4.68,0,0,1,2.65,6.06A4.78,4.78,0,0,1,108,67.28a4.2,4.2,0,0,1-1.48-.26A4.68,4.68,0,0,1,103.83,61a4.79,4.79,0,0,1,4.43-3.22m0-1.17h0a6,6,0,0,0-5.54,4,5.87,5.87,0,0,0,3.36,7.57,5.43,5.43,0,0,0,1.88.33,6,6,0,0,0,5.53-4,6.06,6.06,0,0,0-.12-4.51,5.54,5.54,0,0,0-3.23-3.05,5.47,5.47,0,0,0-1.88-.33Z" style="fill:#033b55"/><path d="M112.22,63.38A4.21,4.21,0,1,1,109.7,58,4.21,4.21,0,0,1,112.22,63.38Z" style="fill:#ef502a"/><path d="M108.26,66.45a4.57,4.57,0,0,1-1.53-.27,4.51,4.51,0,0,1-2.7-5.77,4.51,4.51,0,0,1,5.77-2.7,4.51,4.51,0,0,1,2.7,5.77h0A4.51,4.51,0,0,1,108.26,66.45Zm0-8.42a3.92,3.92,0,0,0-3.68,2.58A3.92,3.92,0,0,0,112,63.28h0A3.91,3.91,0,0,0,108.26,58Zm4,5.35h0Z" style="fill:#033b55"/><rect x="38.29" y="59.46" width="58.95" height="6.1" rx="2.94" ry="2.94" style="fill:#1da3a9"/><path d="M94.94,66H40.6a2.7,2.7,0,0,1-2.7-2.7V61.76a2.7,2.7,0,0,1,2.7-2.69H94.94a2.69,2.69,0,0,1,2.69,2.69v1.49A2.69,2.69,0,0,1,94.94,66ZM40.6,59.85a1.91,1.91,0,0,0-1.91,1.91v1.49a1.9,1.9,0,0,0,1.91,1.91H94.94a1.91,1.91,0,0,0,1.91-1.91V61.76a1.92,1.92,0,0,0-1.91-1.91Z" style="fill:#033b55"/><rect x="30.05" y="82.02" width="89.84" height="27.52" rx="7.22" ry="7.22" style="fill:#68c8d0"/><path d="M114.25,110.32h-3.14v-1.57h3.13a4.56,4.56,0,0,0,1.56-.26l.51,1.48A6.32,6.32,0,0,1,114.25,110.32Zm-3.93,0h-3.13v-1.57h3.13Zm-3.91,0h-3.13v-1.57h3.13Zm-3.92,0H99.36v-1.57h3.13Zm-3.91,0H95.45v-1.57h3.13Zm-3.92,0H91.53v-1.57h3.13Zm-3.91,0H87.62v-1.57h3.13Zm-3.92,0H83.7v-1.57h3.13Zm-3.91,0H79.79v-1.57h3.13Zm-3.92,0H75.87v-1.57H79Zm-3.91,0H72v-1.57h3.13Zm-3.92,0H68v-1.57h3.13Zm-3.91,0H64.13v-1.57h3.13Zm-3.92,0H60.21v-1.57h3.13Zm-3.91,0H56.3v-1.57h3.13Zm-3.92,0H52.38v-1.57h3.13Zm-3.91,0H48.47v-1.57H51.6Zm-3.92,0H44.55v-1.57h3.13Zm-3.91,0H40.64v-1.57h3.13Zm-3.92,0H36.72v-1.57h3.13Zm-3.91,0H35.7a6.39,6.39,0,0,1-3.15-.83l.77-1.36a4.8,4.8,0,0,0,2.38.62h.24Zm81.19-.69-.71-1.4a4.86,4.86,0,0,0,2-1.8l1.34.82A6.52,6.52,0,0,1,117.13,109.63ZM31.8,109a6.51,6.51,0,0,1-2.11-2.81l1.46-.57a5,5,0,0,0,1.6,2.13Zm88.33-2.54-1.43-.63a4.82,4.82,0,0,0,.4-1.94v-.81h1.57v.81A6.34,6.34,0,0,1,120.13,106.46Zm-90.7-1.13a6.39,6.39,0,0,1-.17-1.45V102h1.57v1.85A5.06,5.06,0,0,0,31,105Zm91.24-3H119.1V99.16h1.57Zm-89.84-1H29.26V98.12h1.57Zm89.84-2.87H119.1V95.25h1.57Zm-89.84-1H29.26V94.21h1.57Zm89.84-2.88H119.1V91.33h1.57Zm-89.84-1H29.26V90.29h1.57Zm89.84-2.87H119.1V87.67a1.61,1.61,0,0,0,0-.22l1.57-.07v3.17Zm-89.84-1H29.26V87.67a6.48,6.48,0,0,1,.17-1.46l1.53.36a4.53,4.53,0,0,0-.13,1.1ZM119,86.78a4.83,4.83,0,0,0-1.18-2.38L119,83.35a6.43,6.43,0,0,1,1.56,3.15Zm-87.86-.86-1.46-.56a6.4,6.4,0,0,1,2.11-2.81l.95,1.24A4.88,4.88,0,0,0,31.16,85.92Zm86.19-2a4.83,4.83,0,0,0-2.43-1.08l.22-1.55a6.33,6.33,0,0,1,3.21,1.43Zm-84-.51-.77-1.36a6.38,6.38,0,0,1,3.14-.83H36V82.8H35.7A4.9,4.9,0,0,0,33.33,83.42Zm80.92-.62h-3.13V81.23h3.12Zm-3.92,0H107.2V81.23h3.13Zm-3.91,0h-3.13V81.23h3.13Zm-3.92,0H99.37V81.23h3.13Zm-3.91,0H95.46V81.23h3.13Zm-3.92,0H91.54V81.23h3.13Zm-3.91,0H87.63V81.23h3.13Zm-3.92,0H83.71V81.23h3.13Zm-3.91,0H79.8V81.23h3.13ZM79,82.8H75.88V81.23H79Zm-3.91,0H72V81.23H75.1Zm-3.92,0H68.05V81.23h3.13Zm-3.91,0H64.13V81.23h3.14Zm-3.92,0H60.22V81.23h3.13Zm-3.91,0H56.3V81.23h3.14Zm-3.92,0H52.39V81.23h3.13Zm-3.91,0H48.47V81.23h3.14Zm-3.92,0H44.56V81.23h3.13Zm-3.91,0H40.64V81.23h3.14Zm-3.92,0H36.73V81.23h3.13Z" style="fill:#033b55"/><path d="M112.39,97.33a4.56,4.56,0,1,1-2.65-6.06A4.67,4.67,0,0,1,112.39,97.33Z" style="fill:#ef502a"/><path d="M108.26,91a4.24,4.24,0,0,1,1.48.26,4.68,4.68,0,0,1,2.65,6.06,4.78,4.78,0,0,1-4.43,3.22,4.2,4.2,0,0,1-1.48-.26,4.68,4.68,0,0,1-2.65-6.06A4.77,4.77,0,0,1,108.26,91m0-1.17h0a6,6,0,0,0-5.54,4,5.87,5.87,0,0,0,3.36,7.57,5.68,5.68,0,0,0,1.88.33,6,6,0,0,0,5.53-4,5.85,5.85,0,0,0-3.35-7.56,5.47,5.47,0,0,0-1.88-.33Z" style="fill:#033b55"/><path d="M112.22,96.64a4.21,4.21,0,1,1-2.52-5.39A4.21,4.21,0,0,1,112.22,96.64Z" style="fill:#ef502a"/><path d="M108.26,99.71a4.48,4.48,0,0,1-4.23-6,4.5,4.5,0,0,1,8.47,3.06h0A4.51,4.51,0,0,1,108.26,99.71Zm0-8.42A3.92,3.92,0,1,0,112,96.54h0a3.93,3.93,0,0,0-3.69-5.25Zm4,5.35h0Z" style="fill:#033b55"/><rect x="38.29" y="92.73" width="58.95" height="6.1" rx="2.94" ry="2.94" style="fill:#1da3a9"/><path d="M94.94,99.22H40.6a2.7,2.7,0,0,1-2.7-2.7V95a2.69,2.69,0,0,1,2.7-2.69H94.94A2.68,2.68,0,0,1,97.63,95v1.49A2.69,2.69,0,0,1,94.94,99.22ZM40.6,93.12A1.91,1.91,0,0,0,38.69,95v1.49a1.9,1.9,0,0,0,1.91,1.91H94.94a1.91,1.91,0,0,0,1.91-1.91V95a1.92,1.92,0,0,0-1.91-1.91Z" style="fill:#033b55"/><path d="M81.88,18.18a22.36,22.36,0,0,1,2.92-2.39C77.89,7.11,68.62.46,59.13,1.92,67.14,2.57,75.86,9.78,81.88,18.18Z" style="fill:#e6f4f4"/><path d="M136.08,50.69a27.57,27.57,0,0,0-14.33-9c2.53-11.54.28-21.32-10-27.56-6.05-3.68-11.35-4.54-17.29-2.86,4.52-.27,7.58,1.29,12.14,4.18,10.57,6.69,13.64,16.94,11,29.32a28.32,28.32,0,0,1,14.78,9.64c6.72,8.54,8.8,18.09,5.64,28.25.1.41.22.82.3,1.23A31.23,31.23,0,0,0,140.84,79C144.87,68.78,143.05,59.2,136.08,50.69Z" style="fill:#e6f4f4"/></svg>