<svg id="3f06555a-6d3b-489f-bdc9-b95be26f3acb" data-name="Layer 1" xmlns="http://www.w3.org/2000/svg" viewBox="0 0 150 150"><polygon points="84.42 76.12 84.42 68.52 77.84 64.72 71.27 68.52 71.27 76.12 77.84 79.91 84.42 76.12" style="fill:#68c8d0"/><path d="M77.84,80.52a.67.67,0,0,1-.3-.08L71,76.64a.61.61,0,0,1-.31-.52v-7.6A.61.61,0,0,1,71,68l6.57-3.8a.61.61,0,0,1,.61,0L84.72,68a.61.61,0,0,1,.31.52v7.6a.61.61,0,0,1-.31.52l-6.57,3.8A.68.68,0,0,1,77.84,80.52Zm-6-4.75,6,3.44,6-3.44v-6.9l-6-3.45-6,3.45Zm12.55.35h0Z" style="fill:#1da3a9"/><path d="M77.84,72.47l-.07,0-5.85-3.54a.15.15,0,0,1,0-.21.15.15,0,0,1,.2,0l5.78,3.49,6.5-3.75a.14.14,0,0,1,.2.06.15.15,0,0,1,0,.2l-6.58,3.8Z" style="fill:#1da3a9"/><path d="M77.84,80.09a.16.16,0,0,1-.15-.16V72.32a.15.15,0,0,1,.15-.15.16.16,0,0,1,.16.15v7.61A.16.16,0,0,1,77.84,80.09Z" style="fill:#1da3a9"/><polygon points="102.49 34.9 102.49 27.3 95.91 23.5 89.34 27.3 89.34 34.9 95.91 38.69 102.49 34.9" style="fill:#f05f43"/><path d="M95.91,39.3a.64.64,0,0,1-.3-.08L89,35.42a.62.62,0,0,1-.3-.52V27.3a.62.62,0,0,1,.3-.52L95.61,23a.59.59,0,0,1,.6,0l6.58,3.8a.6.6,0,0,1,.3.52v7.6a.6.6,0,0,1-.3.52l-6.58,3.8A.61.61,0,0,1,95.91,39.3Zm-6-4.75,6,3.45,6-3.45v-6.9l-6-3.45-6,3.45Zm12.55.35Z" style="fill:#d73a27"/><path d="M95.91,31.25l-.08,0L90,27.69a.15.15,0,0,1-.06-.21.16.16,0,0,1,.21-.05l5.77,3.49,6.5-3.75a.15.15,0,0,1,.21.06.14.14,0,0,1-.06.2L96,31.23Z" style="fill:#d73a27"/><path d="M95.91,38.87a.16.16,0,0,1-.15-.16V31.1a.15.15,0,0,1,.15-.15.15.15,0,0,1,.15.15v7.61A.15.15,0,0,1,95.91,38.87Z" style="fill:#d73a27"/><polygon points="115.64 34.88 115.64 27.29 109.06 23.49 102.49 27.29 102.49 34.88 109.06 38.68 115.64 34.88" style="fill:#f05f43"/><path d="M109.06,39.29a.58.58,0,0,1-.3-.09l-6.57-3.79a.61.61,0,0,1-.31-.53V27.29a.6.6,0,0,1,.31-.52l6.57-3.8a.61.61,0,0,1,.61,0l6.57,3.8a.59.59,0,0,1,.3.52v7.59a.6.6,0,0,1-.3.53l-6.57,3.79A.59.59,0,0,1,109.06,39.29Zm-6-4.75,6,3.44,6-3.44v-6.9l-6-3.45-6,3.45Zm12.55.34Z" style="fill:#d73a27"/><path d="M109.06,31.24l-.07,0-5.85-3.54a.15.15,0,0,1,0-.21.15.15,0,0,1,.2,0l5.78,3.49,6.5-3.75a.15.15,0,0,1,.2.05.16.16,0,0,1,0,.21l-6.58,3.8Z" style="fill:#d73a27"/><path d="M109.06,38.85a.15.15,0,0,1-.15-.15V31.09a.15.15,0,0,1,.15-.15.15.15,0,0,1,.16.15V38.7A.15.15,0,0,1,109.06,38.85Z" style="fill:#d73a27"/><polygon points="48.88 34.9 48.88 27.31 42.31 23.51 35.73 27.31 35.73 34.9 42.31 38.7 48.88 34.9" style="fill:#24637d"/><path d="M42.31,39.3a.61.61,0,0,1-.3-.08l-6.58-3.8a.58.58,0,0,1-.3-.52V27.31a.6.6,0,0,1,.3-.53L42,23a.59.59,0,0,1,.6,0l6.58,3.79a.63.63,0,0,1,.3.53V34.9a.6.6,0,0,1-.3.52l-6.58,3.8A.64.64,0,0,1,42.31,39.3Zm-6-4.75,6,3.45,6-3.45V27.66l-6-3.45-6,3.45Zm12.54.35h0Z" style="fill:#033b55"/><path d="M42.31,31.26a.11.11,0,0,1-.08,0L36.38,27.7a.16.16,0,0,1-.05-.21.15.15,0,0,1,.21,0l5.77,3.49,6.5-3.75a.15.15,0,0,1,.21.05.16.16,0,0,1-.06.21l-6.58,3.79A.11.11,0,0,1,42.31,31.26Z" style="fill:#033b55"/><line x1="42.31" y1="31.1" x2="42.31" y2="38.72" style="fill:#24637d"/><path d="M42.31,38.87a.15.15,0,0,1-.15-.15V31.1a.15.15,0,0,1,.15-.15.15.15,0,0,1,.15.15v7.62A.15.15,0,0,1,42.31,38.87Z" style="fill:#033b55"/><polygon points="62.04 34.89 62.04 27.3 55.46 23.5 48.88 27.3 48.88 34.89 55.46 38.69 62.04 34.89" style="fill:#24637d"/><path d="M55.46,39.29a.64.64,0,0,1-.3-.08l-6.58-3.8a.6.6,0,0,1-.3-.52V27.3a.63.63,0,0,1,.3-.53L55.16,23a.59.59,0,0,1,.6,0l6.58,3.79a.6.6,0,0,1,.3.53v7.59a.58.58,0,0,1-.3.52l-6.58,3.8A.64.64,0,0,1,55.46,39.29Zm-6-4.75,6,3.45,6-3.45v-6.9l-6-3.44-6,3.44ZM62,34.89Z" style="fill:#033b55"/><path d="M55.46,31.24a.12.12,0,0,1-.08,0l-5.85-3.54a.15.15,0,0,1-.05-.2.15.15,0,0,1,.21-.05l5.77,3.49L62,27.17a.15.15,0,0,1,.21,0,.16.16,0,0,1-.06.21l-6.57,3.79A.12.12,0,0,1,55.46,31.24Z" style="fill:#033b55"/><path d="M55.46,38.86a.15.15,0,0,1-.15-.15V31.09a.15.15,0,1,1,.3,0v7.62A.15.15,0,0,1,55.46,38.86Z" style="fill:#033b55"/><polygon points="55.46 46.28 55.46 38.69 48.88 34.89 42.31 38.69 42.31 46.28 48.88 50.08 55.46 46.28" style="fill:#24637d"/><path d="M48.88,50.68a.67.67,0,0,1-.3-.08L42,46.8a.59.59,0,0,1-.31-.52V38.69a.61.61,0,0,1,.31-.53l6.57-3.79a.61.61,0,0,1,.61,0l6.57,3.79a.6.6,0,0,1,.3.53v7.59a.58.58,0,0,1-.3.52l-6.57,3.8A.68.68,0,0,1,48.88,50.68Zm-6-4.75,6,3.45,6-3.45V39l-6-3.45-6,3.45Zm12.55.35Z" style="fill:#033b55"/><path d="M48.88,42.63a.1.1,0,0,1-.07,0L43,39.08a.15.15,0,0,1-.05-.21.14.14,0,0,1,.2,0l5.78,3.49,6.5-3.75a.15.15,0,0,1,.2,0,.16.16,0,0,1-.05.21L49,42.61A.11.11,0,0,1,48.88,42.63Z" style="fill:#033b55"/><line x1="48.88" y1="42.48" x2="48.88" y2="50.1" style="fill:#24637d"/><path d="M48.88,50.25a.15.15,0,0,1-.15-.15V42.48a.15.15,0,0,1,.15-.15.16.16,0,0,1,.16.15V50.1A.16.16,0,0,1,48.88,50.25Z" style="fill:#033b55"/><polygon points="135.34 61.53 135.34 53.94 128.76 50.14 122.18 53.94 122.18 61.53 128.76 65.33 135.34 61.53" style="fill:#68c8d0"/><path d="M128.76,65.93a.52.52,0,0,1-.3-.08l-6.58-3.79a.6.6,0,0,1-.3-.53V53.94a.58.58,0,0,1,.3-.52l6.58-3.8a.59.59,0,0,1,.6,0l6.58,3.8a.6.6,0,0,1,.3.52v7.59a.63.63,0,0,1-.3.53l-6.58,3.79A.54.54,0,0,1,128.76,65.93Zm-6-4.75,6,3.45,6-3.45V54.29l-6-3.45-6,3.45Zm12.54.35h0Z" style="fill:#1da3a9"/><path d="M128.76,66.08a.75.75,0,0,1-.38-.1l-6.57-3.79a.76.76,0,0,1-.38-.66V53.94a.73.73,0,0,1,.38-.65l6.57-3.8a.79.79,0,0,1,.76,0l6.57,3.8a.73.73,0,0,1,.38.65v7.59a.76.76,0,0,1-.38.66L129.14,66A.75.75,0,0,1,128.76,66.08Zm-5.82-5,5.82,3.36,5.82-3.36V54.38L128.76,51l-5.82,3.37Zm12.4.43Z" style="fill:#1da3a9"/><path d="M128.76,57.93a.17.17,0,0,1-.1,0l-5.85-3.54A.19.19,0,1,1,123,54l5.75,3.48,6.48-3.74a.18.18,0,0,1,.26.07.18.18,0,0,1-.07.25l-6.58,3.8A.16.16,0,0,1,128.76,57.93Z" style="fill:#1da3a9"/><line x1="128.76" y1="57.74" x2="128.76" y2="65.35" style="fill:#1da3a9"/><path d="M128.76,65.54a.18.18,0,0,1-.19-.19V57.74a.18.18,0,0,1,.19-.19.19.19,0,0,1,.19.19v7.61A.19.19,0,0,1,128.76,65.54Z" style="fill:#1da3a9"/><polygon points="148.49 84.76 148.49 77.17 141.91 73.37 135.34 77.17 135.34 84.76 141.91 88.56 148.49 84.76" style="fill:#68c8d0"/><path d="M141.91,89.17a.55.55,0,0,1-.3-.09L135,85.29a.63.63,0,0,1-.3-.53V77.17a.61.61,0,0,1,.3-.52l6.58-3.8a.59.59,0,0,1,.6,0l6.58,3.8a.59.59,0,0,1,.3.52v7.59a.6.6,0,0,1-.3.53l-6.58,3.79A.53.53,0,0,1,141.91,89.17Zm-6-4.75,6,3.44,6-3.44v-6.9l-6-3.45-6,3.45Zm12.55.34Z" style="fill:#1da3a9"/><path d="M141.91,89.32a.76.76,0,0,1-.38-.11L135,85.42a.76.76,0,0,1-.38-.66V77.17a.73.73,0,0,1,.38-.65l6.57-3.8a.79.79,0,0,1,.76,0l6.57,3.8a.73.73,0,0,1,.38.65v7.59a.76.76,0,0,1-.38.66l-6.57,3.79A.76.76,0,0,1,141.91,89.32Zm-5.82-5,5.82,3.36,5.82-3.36V77.61l-5.82-3.37-5.82,3.37Zm12.4.43Z" style="fill:#1da3a9"/><path d="M141.91,81.16a.19.19,0,0,1-.1,0L136,77.59a.19.19,0,1,1,.19-.32l5.75,3.48L148.39,77a.19.19,0,0,1,.26.07.18.18,0,0,1-.07.25L142,81.13A.19.19,0,0,1,141.91,81.16Z" style="fill:#1da3a9"/><line x1="141.91" y1="80.97" x2="141.91" y2="88.58" style="fill:#1da3a9"/><path d="M141.91,88.77a.19.19,0,0,1-.19-.19V81a.19.19,0,0,1,.19-.19.18.18,0,0,1,.19.19v7.61A.18.18,0,0,1,141.91,88.77Z" style="fill:#1da3a9"/><polygon points="141.91 72.91 141.91 65.32 135.34 61.52 128.76 65.32 128.76 72.91 135.34 76.71 141.91 72.91" style="fill:#68c8d0"/><path d="M135.33,77.31a.56.56,0,0,1-.3-.08l-6.57-3.79a.61.61,0,0,1-.31-.53V65.32a.59.59,0,0,1,.31-.52L135,61a.61.61,0,0,1,.61,0l6.57,3.8a.59.59,0,0,1,.31.52v7.59a.61.61,0,0,1-.31.53l-6.57,3.79A.58.58,0,0,1,135.33,77.31Zm-6-4.75,6,3.45,6-3.45V65.67l-6-3.45-6,3.45Zm12.55.35h0Z" style="fill:#1da3a9"/><path d="M135.34,77.46a.7.7,0,0,1-.38-.1l-6.58-3.79a.78.78,0,0,1-.38-.66V65.32a.75.75,0,0,1,.38-.65l6.58-3.8a.72.72,0,0,1,.75,0l6.58,3.8a.75.75,0,0,1,.38.65v7.59a.78.78,0,0,1-.38.66l-6.58,3.79A.69.69,0,0,1,135.34,77.46Zm-5.83-5,5.83,3.36,5.82-3.36V65.75l-5.82-3.36-5.83,3.36Zm12.4.43h0Z" style="fill:#1da3a9"/><path d="M135.34,69.3a.16.16,0,0,1-.1,0l-5.85-3.54a.18.18,0,0,1-.06-.26.17.17,0,0,1,.25-.06l5.76,3.48,6.48-3.74a.17.17,0,0,1,.25.07.17.17,0,0,1-.06.25l-6.58,3.8A.15.15,0,0,1,135.34,69.3Z" style="fill:#1da3a9"/><line x1="135.33" y1="69.12" x2="135.33" y2="76.73" style="fill:#1da3a9"/><path d="M135.34,76.92a.18.18,0,0,1-.19-.19V69.12a.18.18,0,0,1,.19-.19.18.18,0,0,1,.18.19v7.61A.18.18,0,0,1,135.34,76.92Z" style="fill:#1da3a9"/><polygon points="21.11 69.58 21.11 61.98 14.53 58.19 7.96 61.98 7.96 69.58 14.53 73.37 21.11 69.58" style="fill:#f05f43"/><path d="M14.53,74a.64.64,0,0,1-.3-.08L7.65,70.1a.62.62,0,0,1-.3-.52V62a.62.62,0,0,1,.3-.52l6.58-3.8a.64.64,0,0,1,.6,0l6.58,3.8a.6.6,0,0,1,.3.52v7.6a.6.6,0,0,1-.3.52l-6.58,3.8A.61.61,0,0,1,14.53,74Zm-6-4.75,6,3.45,6-3.45v-6.9l-6-3.45-6,3.45Zm12.55.35Z" style="fill:#d73a27"/><path d="M14.53,65.93l-.08,0L8.61,62.37a.15.15,0,0,1-.06-.21.16.16,0,0,1,.21,0l5.77,3.49L21,61.85a.15.15,0,0,1,.21.06.14.14,0,0,1-.06.2l-6.57,3.8Z" style="fill:#d73a27"/><path d="M14.53,73.55a.15.15,0,0,1-.15-.15V65.78a.15.15,0,0,1,.15-.15.15.15,0,0,1,.15.15V73.4A.15.15,0,0,1,14.53,73.55Z" style="fill:#d73a27"/><polygon points="34.26 92.81 34.26 85.21 27.68 81.42 21.11 85.21 21.11 92.81 27.68 96.6 34.26 92.81" style="fill:#f05f43"/><path d="M27.68,97.21a.67.67,0,0,1-.3-.08l-6.57-3.8a.61.61,0,0,1-.31-.52v-7.6a.61.61,0,0,1,.31-.52l6.57-3.8a.66.66,0,0,1,.61,0l6.57,3.8a.61.61,0,0,1,.31.52v7.6a.61.61,0,0,1-.31.52L28,97.13A.68.68,0,0,1,27.68,97.21Zm-6-4.75,6,3.45,6-3.45v-6.9l-6-3.45-6,3.45Zm12.55.35h0Z" style="fill:#d73a27"/><path d="M27.68,89.16l-.07,0L21.76,85.6a.14.14,0,0,1-.05-.2.14.14,0,0,1,.2-.06l5.78,3.5,6.5-3.76a.15.15,0,0,1,.2.06.15.15,0,0,1,0,.2l-6.58,3.8Z" style="fill:#d73a27"/><polygon points="27.68 80.96 27.68 73.36 21.11 69.57 14.53 73.36 14.53 80.96 21.11 84.75 27.68 80.96" style="fill:#f05f43"/><path d="M21.11,85.36a.61.61,0,0,1-.3-.08l-6.58-3.8a.6.6,0,0,1-.3-.52v-7.6a.6.6,0,0,1,.3-.52L20.81,69a.64.64,0,0,1,.6,0L28,72.84a.62.62,0,0,1,.3.52V81a.62.62,0,0,1-.3.52l-6.58,3.8A.64.64,0,0,1,21.11,85.36Zm-6-4.75,6,3.45,6-3.45v-6.9l-6-3.45-6,3.45ZM27.68,81h0Z" style="fill:#d73a27"/><path d="M21.11,77.31l-.08,0-5.85-3.54a.16.16,0,0,1,0-.21.16.16,0,0,1,.21-.05L21.11,77l6.5-3.75a.15.15,0,0,1,.21.06.15.15,0,0,1-.06.2l-6.58,3.8Z" style="fill:#d73a27"/><path d="M21.11,84.93a.15.15,0,0,1-.15-.15V77.16a.15.15,0,0,1,.3,0v7.62A.15.15,0,0,1,21.11,84.93Z" style="fill:#d73a27"/><polygon points="14.45 80.94 14.45 73.35 7.87 69.55 1.29 73.35 1.29 80.94 7.87 84.74 14.45 80.94" style="fill:#f05f43"/><path d="M7.87,85.35a.55.55,0,0,1-.3-.09L1,81.47A.62.62,0,0,1,.69,81v-7.6a.62.62,0,0,1,.3-.52L7.57,69a.59.59,0,0,1,.6,0l6.58,3.8a.6.6,0,0,1,.3.52V81a.6.6,0,0,1-.3.52L8.17,85.26A.55.55,0,0,1,7.87,85.35Zm-6-4.75,6,3.44,6-3.44V73.7l-6-3.45-6,3.45ZM14.45,81Z" style="fill:#d73a27"/><path d="M7.87,77.3l-.08,0L1.94,73.74a.16.16,0,0,1-.05-.21.16.16,0,0,1,.21,0L7.87,77l6.5-3.75a.15.15,0,0,1,.21.06.15.15,0,0,1-.06.2L8,77.28Z" style="fill:#d73a27"/><path d="M7.87,84.92a.16.16,0,0,1-.15-.16V77.15a.15.15,0,0,1,.3,0v7.61A.16.16,0,0,1,7.87,84.92Z" style="fill:#d73a27"/><path d="M27.68,96.78a.15.15,0,0,1-.15-.15V89a.15.15,0,0,1,.15-.15.16.16,0,0,1,.16.15v7.62A.16.16,0,0,1,27.68,96.78Z" style="fill:#d73a27"/><polygon points="104.45 110.36 104.45 102.76 97.87 98.97 91.29 102.76 91.29 110.36 97.87 114.15 104.45 110.36" style="fill:#24637d"/><path d="M97.87,114.76a.64.64,0,0,1-.3-.08L91,110.88a.62.62,0,0,1-.3-.52v-7.6a.62.62,0,0,1,.3-.52l6.58-3.8a.64.64,0,0,1,.6,0l6.58,3.8a.6.6,0,0,1,.3.52v7.6a.6.6,0,0,1-.3.52l-6.58,3.8A.64.64,0,0,1,97.87,114.76Zm-6-4.75,6,3.45,6-3.45v-6.9l-6-3.45-6,3.45Zm12.55.35Z" style="fill:#033b55"/><path d="M97.87,106.71l-.08,0-5.85-3.54a.16.16,0,0,1,0-.21.16.16,0,0,1,.21,0l5.77,3.49,6.5-3.75a.16.16,0,0,1,.21.06.14.14,0,0,1-.06.2L98,106.69Z" style="fill:#033b55"/><polygon points="111.02 99.08 111.02 91.48 104.45 87.69 97.87 91.48 97.87 99.08 104.45 102.87 111.02 99.08" style="fill:#24637d"/><path d="M104.45,103.48a.61.61,0,0,1-.3-.08l-6.58-3.8a.6.6,0,0,1-.3-.52v-7.6a.6.6,0,0,1,.3-.52l6.58-3.8a.59.59,0,0,1,.6,0l6.58,3.8a.62.62,0,0,1,.3.52v7.6a.62.62,0,0,1-.3.52l-6.58,3.8A.64.64,0,0,1,104.45,103.48Zm-6-4.75,6,3.44,6-3.44v-6.9l-6-3.45-6,3.45Zm12.55.35h0Z" style="fill:#033b55"/><path d="M104.45,95.43l-.08,0-5.85-3.54a.15.15,0,0,1,.16-.26l5.77,3.49,6.5-3.75a.14.14,0,0,1,.2.06.14.14,0,0,1-.05.2l-6.58,3.8Z" style="fill:#033b55"/><path d="M104.45,103.05a.15.15,0,0,1-.15-.16V95.28a.15.15,0,0,1,.15-.15.15.15,0,0,1,.15.15v7.61A.16.16,0,0,1,104.45,103.05Z" style="fill:#033b55"/><path d="M97.87,114.33a.15.15,0,0,1-.15-.15v-7.62a.15.15,0,1,1,.3,0v7.62A.15.15,0,0,1,97.87,114.33Z" style="fill:#033b55"/><path d="M66.12,59.15A.14.14,0,0,1,66,59L64.14,47a.16.16,0,0,1,.12-.18.17.17,0,0,1,.18.13l1.83,12a.16.16,0,0,1-.13.17Z" style="fill:#033b55;stroke:#033b55;stroke-miterlimit:10;stroke-width:0.708661437034607px"/><path d="M64.16,47.07h0a.9.9,0,1,1,1-.85h0A.91.91,0,0,1,64.16,47.07Zm0-1.5a.59.59,0,0,0-.4.16.58.58,0,0,0-.2.41.6.6,0,1,0,1.19.06h0a.58.58,0,0,0-.56-.62Zm.74.64h0Z" style="fill:#033b55;stroke:#033b55;stroke-miterlimit:10;stroke-width:0.708661437034607px"/><path d="M66.24,60.67h0a.89.89,0,0,1-.85-.94.9.9,0,0,1,.94-.85.88.88,0,0,1,.62.3.91.91,0,0,1,.23.65h0a.9.9,0,0,1-.3.62A.91.91,0,0,1,66.24,60.67Zm0-1.5a.6.6,0,0,0-.59.57.57.57,0,0,0,.15.43.63.63,0,0,0,.41.19.57.57,0,0,0,.43-.15.6.6,0,0,0,.2-.41h0a.6.6,0,0,0-.56-.63Z" style="fill:#033b55;stroke:#033b55;stroke-miterlimit:10;stroke-width:0.708661437034607px"/><path d="M43.21,82.57a.15.15,0,0,1-.15-.12.15.15,0,0,1,.11-.18L55,79.73a.14.14,0,0,1,.18.11.15.15,0,0,1-.11.18L43.24,82.57Z" style="fill:#033b55;stroke:#033b55;stroke-miterlimit:10;stroke-width:0.708661437034607px"/><path d="M42.37,83.5a.9.9,0,1,1,0-1.8A.88.88,0,0,1,43,82a.89.89,0,0,1,.27.63.9.9,0,0,1-.26.64.89.89,0,0,1-.63.27Zm0-1.65V82a.6.6,0,0,0-.59.6A.59.59,0,0,0,42,83a.62.62,0,0,0,.42.18h0A.64.64,0,0,0,42.8,83,.63.63,0,0,0,43,82.6a.6.6,0,0,0-.18-.42.58.58,0,0,0-.42-.18Z" style="fill:#033b55;stroke:#033b55;stroke-miterlimit:10;stroke-width:0.708661437034607px"/><path d="M55.82,80.61a.9.9,0,0,1,0-1.8h0a.9.9,0,0,1,0,1.8Zm0-1.49a.59.59,0,0,0-.42.17.55.55,0,0,0-.17.43.58.58,0,0,0,.6.59.59.59,0,0,0,.41-1,.59.59,0,0,0-.42-.17Zm0-.15Z" style="fill:#033b55;stroke:#033b55;stroke-miterlimit:10;stroke-width:0.708661437034607px"/><path d="M69.16,111a.15.15,0,0,1-.15-.11.14.14,0,0,1,.12-.18L81,108.11a.15.15,0,0,1,.18.12.15.15,0,0,1-.11.18L69.19,111Z" style="fill:#033b55;stroke:#033b55;stroke-miterlimit:10;stroke-width:0.708661437034607px"/><path d="M68.32,111.88a.9.9,0,0,1,0-1.8h0a.9.9,0,0,1,0,1.8Zm0-1.49a.6.6,0,0,0,0,1.19h0a.6.6,0,0,0,0-1.19Z" style="fill:#033b55;stroke:#033b55;stroke-miterlimit:10;stroke-width:0.708661437034607px"/><path d="M81.77,109a.89.89,0,0,1-.63-.26.86.86,0,0,1-.26-.63.89.89,0,0,1,.89-.9h0a.9.9,0,0,1,.9.89.92.92,0,0,1-.26.64.88.88,0,0,1-.63.26Zm0-1.49a.56.56,0,0,0-.42.18.6.6,0,0,0,0,.84.7.7,0,0,0,.43.17.56.56,0,0,0,.42-.18.59.59,0,0,0-.43-1Z" style="fill:#033b55;stroke:#033b55;stroke-miterlimit:10;stroke-width:0.708661437034607px"/><path d="M59.72,103.16h0a.15.15,0,0,1-.11-.18L62.48,91.2a.15.15,0,0,1,.29.07l-2.91,11.78A.13.13,0,0,1,59.72,103.16Z" style="fill:#033b55;stroke:#033b55;stroke-miterlimit:10;stroke-width:0.708661437034607px"/><path d="M59.51,104.74a.85.85,0,0,1-.38-.09.86.86,0,0,1-.46-.51.92.92,0,0,1,0-.69h0a1,1,0,0,1,.51-.46.92.92,0,0,1,.69,0,.9.9,0,0,1-.09,1.66A1,1,0,0,1,59.51,104.74Zm0-1.5a.79.79,0,0,0-.2,0,.55.55,0,0,0-.33.3h0a.61.61,0,0,0,0,.46.58.58,0,0,0,.31.34.54.54,0,0,0,.45,0,.59.59,0,0,0,.34-.3.6.6,0,0,0-.28-.8A.58.58,0,0,0,59.51,103.24Zm-.67.28Z" style="fill:#033b55;stroke:#033b55;stroke-miterlimit:10;stroke-width:0.708661437034607px"/><path d="M62.81,91.38a.88.88,0,0,1-.39-.08A.91.91,0,0,1,62,90.1h0a.9.9,0,1,1,1.11,1.23A.79.79,0,0,1,62.81,91.38Zm-.54-1.15a.6.6,0,0,0,.28.79.61.61,0,0,0,.46,0,.58.58,0,0,0,.34-.31.58.58,0,0,0,0-.45.59.59,0,0,0-.3-.34.6.6,0,0,0-.8.28Z" style="fill:#033b55;stroke:#033b55;stroke-miterlimit:10;stroke-width:0.708661437034607px"/><path d="M89.09,55.84a.17.17,0,0,1-.13-.07.15.15,0,0,1,.05-.21l10.3-6.4a.15.15,0,0,1,.16.26l-10.3,6.4Z" style="fill:#033b55;stroke:#033b55;stroke-miterlimit:10;stroke-width:0.708661437034607px"/><path d="M88.36,57A.81.81,0,0,1,88,57a.89.89,0,0,1-.47-.5.92.92,0,0,1,0-.69.87.87,0,0,1,.5-.46h0A.9.9,0,1,1,88.67,57,.81.81,0,0,1,88.36,57Zm0-1.5a.45.45,0,0,0-.2,0h0a.58.58,0,0,0-.34.31.63.63,0,0,0,0,.45.65.65,0,0,0,.31.34.61.61,0,0,0,.46,0,.6.6,0,0,0-.21-1.16Zm-.25-.1Z" style="fill:#033b55;stroke:#033b55;stroke-miterlimit:10;stroke-width:0.708661437034607px"/><path d="M100.05,49.78a.85.85,0,0,1-.38-.09.89.89,0,0,1-.44-1.19.89.89,0,0,1,.51-.46h0a.9.9,0,1,1,.31,1.74Zm0-1.5a.78.78,0,0,0-.21,0h0a.59.59,0,0,0-.33.31.57.57,0,0,0,0,.46.6.6,0,0,0,.76.35.6.6,0,0,0-.2-1.16Zm-.26-.1Z" style="fill:#033b55;stroke:#033b55;stroke-miterlimit:10;stroke-width:0.708661437034607px"/><path d="M70.65,30.11A.16.16,0,0,1,70.5,30a.16.16,0,0,1,.12-.18l11.86-2.55a.15.15,0,0,1,.06.3L70.68,30.11Z" style="fill:#033b55;stroke:#033b55;stroke-miterlimit:10;stroke-width:0.708661437034607px"/><path d="M69.82,31a.89.89,0,0,1-.9-.89.88.88,0,0,1,.26-.63.89.89,0,0,1,.63-.27h0a.9.9,0,1,1,0,1.79Zm0-1.49h0a.62.62,0,0,0-.42.18.59.59,0,0,0-.17.42.6.6,0,0,0,.18.42.63.63,0,0,0,.42.17.59.59,0,0,0,.42-.17.63.63,0,0,0,.17-.43A.6.6,0,0,0,69.82,29.54Z" style="fill:#033b55;stroke:#033b55;stroke-miterlimit:10;stroke-width:0.708661437034607px"/><path d="M83.27,28.15a.9.9,0,0,1,0-1.8h0a.89.89,0,0,1,.63.26.88.88,0,0,1,.26.63.89.89,0,0,1-.25.64.91.91,0,0,1-.64.27Zm0-1.5a.64.64,0,0,0-.42.18.6.6,0,0,0,.43,1h0a.64.64,0,0,0,.42-.18.63.63,0,0,0,.17-.42.56.56,0,0,0-.18-.42.6.6,0,0,0-.42-.18Zm0-.15Z" style="fill:#033b55;stroke:#033b55;stroke-miterlimit:10;stroke-width:0.708661437034607px"/><path d="M28.18,58.52l-.08,0a.16.16,0,0,1-.06-.21l5.82-10.64a.15.15,0,1,1,.26.14L28.31,58.44A.16.16,0,0,1,28.18,58.52Z" style="fill:#033b55;stroke:#033b55;stroke-miterlimit:10;stroke-width:0.708661437034607px"/><path d="M27.77,60a.86.86,0,0,1-.58-.21.88.88,0,0,1-.32-.61.94.94,0,0,1,.21-.66.9.9,0,0,1,1.27-.1.89.89,0,0,1,.31.61.91.91,0,0,1-.82,1Zm0-1.49a.6.6,0,0,0-.46.21h0a.6.6,0,0,0-.14.43.65.65,0,0,0,.21.41.59.59,0,0,0,.84-.07.62.62,0,0,0,.14-.43.59.59,0,0,0-.21-.41A.56.56,0,0,0,27.77,58.52Zm-.57.11Z" style="fill:#033b55;stroke:#033b55;stroke-miterlimit:10;stroke-width:0.708661437034607px"/><path d="M34.36,47.94a.94.94,0,0,1-.58-.21.89.89,0,0,1-.31-.62.87.87,0,0,1,.21-.65.89.89,0,0,1,.61-.31.9.9,0,0,1,.14,1.79Zm0-1.49h0a.53.53,0,0,0-.4.21h0a.53.53,0,0,0-.14.43.6.6,0,0,0,.2.41.65.65,0,0,0,.44.14.61.61,0,0,0,.4-.21.59.59,0,0,0-.06-.84A.62.62,0,0,0,34.36,46.45Zm-.57.11h0Z" style="fill:#033b55;stroke:#033b55;stroke-miterlimit:10;stroke-width:0.708661437034607px"/><path d="M130.76,43.1a.16.16,0,0,1-.11-.05l-8.45-8.69a.15.15,0,0,1,.21-.21l8.46,8.69a.16.16,0,0,1,0,.22A.15.15,0,0,1,130.76,43.1Z" style="fill:#033b55;stroke:#033b55;stroke-miterlimit:10;stroke-width:0.708661437034607px"/><path d="M121.71,34.54a.62.62,0,0,1-.19,0,.89.89,0,0,1-.69-1.07,1,1,0,0,1,.4-.56.9.9,0,0,1,1.24.27.91.91,0,0,1,.12.68.87.87,0,0,1-.4.56A.82.82,0,0,1,121.71,34.54Zm0-1.49a.62.62,0,0,0-.32.09.6.6,0,0,0-.26.38.56.56,0,0,0,.08.45.62.62,0,0,0,.37.26.63.63,0,0,0,.45-.08.57.57,0,0,0,.26-.38.53.53,0,0,0-.08-.44A.58.58,0,0,0,121.71,33.05Z" style="fill:#033b55;stroke:#033b55;stroke-miterlimit:10;stroke-width:0.708661437034607px"/><path d="M131.3,44.4l-.19,0a.85.85,0,0,1-.56-.39.87.87,0,0,1-.12-.68.9.9,0,1,1,1.75.39.87.87,0,0,1-.4.56A.9.9,0,0,1,131.3,44.4Zm0-1.49A.62.62,0,0,0,131,43a.64.64,0,0,0-.26.38.57.57,0,0,0,.08.44.62.62,0,0,0,.37.27.63.63,0,0,0,.45-.08.57.57,0,0,0,.26-.38.56.56,0,0,0-.08-.45h0a.59.59,0,0,0-.37-.26Z" style="fill:#033b55;stroke:#033b55;stroke-miterlimit:10;stroke-width:0.708661437034607px"/><path d="M116,84.2a.16.16,0,0,1-.07-.29l10.79-5.54a.16.16,0,0,1,.21.07.14.14,0,0,1-.07.2L116.1,84.18Z" style="fill:#033b55;stroke:#033b55;stroke-miterlimit:10;stroke-width:0.708661437034607px"/><path d="M115.28,85.33a.9.9,0,0,1-.87-.66,1,1,0,0,1,.08-.68.87.87,0,0,1,.55-.42h0a.9.9,0,0,1,1.1.62,1,1,0,0,1-.08.69.87.87,0,0,1-.55.42Zm0-1.49-.15,0h0a.57.57,0,0,0-.36.28.59.59,0,0,0,.67.87.57.57,0,0,0,.36-.28.59.59,0,0,0-.52-.89Zm-.19-.12Z" style="fill:#033b55;stroke:#033b55;stroke-miterlimit:10;stroke-width:0.708661437034607px"/><path d="M127.51,79.05a.9.9,0,0,1-.24-1.76.89.89,0,0,1,1,1.31,1,1,0,0,1-.54.42A1,1,0,0,1,127.51,79.05Zm0-1.49a.47.47,0,0,0-.16,0,.6.6,0,0,0-.41.73.59.59,0,0,0,1.09.14.58.58,0,0,0-.22-.81A.56.56,0,0,0,127.51,77.56Z" style="fill:#033b55;stroke:#033b55;stroke-miterlimit:10;stroke-width:0.708661437034607px"/><polygon points="58.23 117.93 58.23 110.65 51.92 107 45.61 110.65 45.61 117.93 51.92 121.58 58.23 117.93" style="fill:#f9a858"/><polygon points="64.54 128.87 64.54 121.59 58.23 117.94 51.92 121.59 51.92 128.87 58.23 132.51 64.54 128.87" style="fill:#f9a858"/><path d="M51.92,122.33a.75.75,0,0,1-.38-.1l-6.31-3.65a.74.74,0,0,1-.37-.65v-7.28a.77.77,0,0,1,.37-.66l6.31-3.64a.79.79,0,0,1,.76,0L58.61,110a.77.77,0,0,1,.37.66v7.28a.74.74,0,0,1-.37.65l-6.31,3.65A.75.75,0,0,1,51.92,122.33Zm-5.56-4.83,5.56,3.2,5.56-3.2v-6.42l-5.56-3.21-5.56,3.21Zm11.87.43Z" style="fill:#da7e27"/><path d="M51.92,114.48a.19.19,0,0,1-.1,0l-5.61-3.39a.18.18,0,0,1-.06-.26.19.19,0,0,1,.26-.07l5.51,3.34,6.21-3.59a.19.19,0,1,1,.19.33L52,114.45A.16.16,0,0,1,51.92,114.48Z" style="fill:#da7e27"/><path d="M51.92,121.79a.2.2,0,0,1-.19-.19v-7.31a.19.19,0,0,1,.38,0v7.31A.2.2,0,0,1,51.92,121.79Z" style="fill:#da7e27"/><path d="M58.23,133.27a.86.86,0,0,1-.38-.1l-6.31-3.65a.74.74,0,0,1-.37-.65v-7.28a.77.77,0,0,1,.37-.66l6.31-3.64a.79.79,0,0,1,.76,0l6.31,3.64a.77.77,0,0,1,.37.66v7.28a.74.74,0,0,1-.37.65l-6.31,3.65A.86.86,0,0,1,58.23,133.27Zm-5.56-4.83,5.56,3.2,5.55-3.2V122l-5.55-3.21L52.67,122Zm11.87.43Z" style="fill:#da7e27"/><path d="M58.23,125.42a.19.19,0,0,1-.1,0L52.52,122a.18.18,0,0,1-.06-.26.19.19,0,0,1,.26-.07L58.23,125l6.21-3.59a.19.19,0,0,1,.19.33l-6.31,3.64A.16.16,0,0,1,58.23,125.42Z" style="fill:#da7e27"/><path d="M58.23,132.72a.19.19,0,0,1-.19-.18v-7.31a.19.19,0,0,1,.38,0v7.31A.19.19,0,0,1,58.23,132.72Z" style="fill:#da7e27"/></svg>